$MeshFormat
2.0 0 8
$EndMeshFormat
$Nodes
42
1 0 0 0
2 17 0 0
3 34 0 0
4 50 0 0
5 66 0 0
6 83 0 0
7 100 0 0
8 0 20 0
9 17 20 0
10 34 20 0
11 50 20 0
12 66 20 0
13 83 20 0
14 100 20 0
15 0 40 0
16 17 40 0
17 34 40 0
18 50 40 0
19 66 40 0
20 83 40 0
21 100 40 0
22 0 60 0
23 17 60 0
24 34 60 0
25 50 60 0
26 66 60 0
27 83 60 0
28 100 60 0
29 0 80 0
30 17 80 0
31 34 80 0
32 50 80 0
33 66 80 0
34 83 80 0
35 100 80 0
36 0 100 0
37 17 100 0
38 34 100 0
39 50 100 0
40 66 100 0
41 83 100 0
42 100 100 0
$EndNodes
$Elements
30
29 3 0 1 2 9 8
28 3 0 8 9 16 15
27 3 0 15 16 23 22
26 3 0 22 23 30 29
25 3 0 29 30 37 36
24 3 0 2 3 10 9
23 3 0 9 10 17 16
22 3 0 16 17 24 23
21 3 0 23 24 31 30
20 3 0 30 31 38 37
19 3 0 3 4 11 10
18 3 0 10 11 18 17
17 3 0 17 18 25 24
16 3 0 24 25 32 31
15 3 0 31 32 39 38
14 3 0 4 5 12 11
13 3 0 11 12 19 18
12 3 0 18 19 26 25
11 3 0 25 26 33 32
10 3 0 32 33 40 39
9 3 0 5 6 13 12
8 3 0 12 13 20 19
7 3 0 19 20 27 26
6 3 0 26 27 34 33
5 3 0 33 34 41 40
4 3 0 6 7 14 13
3 3 0 13 14 21 20
2 3 0 20 21 28 27
1 3 0 27 28 35 34
-1 3 0 34 35 42 41
$EndElements
