$MeshFormat
2.2 0 8
$EndMeshFormat
$Nodes
81
1 0 0 0
2 100 0 0
3 100 100 0
4 0 100 0
5 12.49999999995268 0 0
6 24.99999999988813 0 0
7 37.49999999984409 0 0
8 49.99999999982364 0 0
9 62.4999999998032 0 0
10 74.99999999986325 0 0
11 87.49999999993162 0 0
12 100 12.49999999995268 0
13 100 24.99999999988813 0
14 100 37.49999999984409 0
15 100 49.99999999982364 0
16 100 62.4999999998032 0
17 100 74.99999999986325 0
18 100 87.49999999993162 0
19 87.50000000008882 100 0
20 75.00000000017764 100 0
21 62.50000000025812 100 0
22 50.00000000025813 100 0
23 37.50000000025813 100 0
24 25.00000000017762 100 0
25 12.5000000000888 100 0
26 0 87.50000000008882 0
27 0 75.00000000017764 0
28 0 62.50000000025812 0
29 0 50.00000000025813 0
30 0 37.50000000025813 0
31 0 25.00000000017762 0
32 0 12.5000000000888 0
33 12.49999999996969 12.50000000007179 0
34 12.49999999998671 25.00000000014143 0
35 12.50000000000373 37.50000000020637 0
36 12.50000000002074 50.00000000020382 0
37 12.50000000003776 62.50000000020125 0
38 12.50000000005477 75.00000000013833 0
39 12.50000000007179 87.50000000006919 0
40 24.99999999992432 12.50000000005478 0
41 24.9999999999605 25.00000000010525 0
42 24.99999999999669 37.50000000015462 0
43 25.00000000003288 50.00000000014951 0
44 25.00000000006906 62.50000000014439 0
45 25.00000000010525 75.00000000009904 0
46 25.00000000014143 87.50000000004954 0
47 37.49999999989585 12.50000000003776 0
48 37.49999999994761 25.00000000006905 0
49 37.49999999999935 37.50000000010287 0
50 37.50000000005112 50.00000000009519 0
51 37.50000000010287 62.50000000008752 0
52 37.50000000015461 75.00000000005976 0
53 37.50000000020637 87.50000000002987 0
54 49.99999999987795 12.50000000002074 0
55 49.99999999993227 25.00000000003288 0
56 49.99999999998658 37.50000000005112 0
57 50.0000000000409 50.00000000004088 0
58 50.0000000000952 62.50000000003067 0
59 50.00000000014951 75.00000000002042 0
60 50.00000000020382 87.50000000001022 0
61 62.49999999986007 12.50000000000372 0
62 62.49999999991694 24.99999999999669 0
63 62.49999999997378 37.49999999999936 0
64 62.50000000003067 49.99999999998657 0
65 62.50000000008752 62.4999999999738 0
66 62.50000000014438 74.99999999998114 0
67 62.50000000020125 87.49999999999059 0
68 74.99999999990254 12.49999999998671 0
69 74.99999999994183 24.9999999999605 0
70 74.99999999998114 37.4999999999476 0
71 75.00000000002045 49.99999999993227 0
72 75.00000000005976 62.49999999991692 0
73 75.00000000009904 74.99999999994186 0
74 75.00000000013834 87.49999999997092 0
75 87.49999999995127 12.49999999996969 0
76 87.49999999997092 24.99999999992432 0
77 87.49999999999059 37.49999999989585 0
78 87.50000000001022 49.99999999987795 0
79 87.50000000002987 62.49999999986007 0
80 87.50000000004954 74.99999999990253 0
81 87.50000000006919 87.49999999995124 0
$EndNodes
$Elements
100
1 15 2 0 1 1
2 15 2 0 2 2
3 15 2 0 3 3
4 15 2 0 4 4
5 1 2 0 1 1 5
6 1 2 0 1 5 6
7 1 2 0 1 6 7
8 1 2 0 1 7 8
9 1 2 0 1 8 9
10 1 2 0 1 9 10
11 1 2 0 1 10 11
12 1 2 0 1 11 2
13 1 2 0 2 2 12
14 1 2 0 2 12 13
15 1 2 0 2 13 14
16 1 2 0 2 14 15
17 1 2 0 2 15 16
18 1 2 0 2 16 17
19 1 2 0 2 17 18
20 1 2 0 2 18 3
21 1 2 0 3 3 19
22 1 2 0 3 19 20
23 1 2 0 3 20 21
24 1 2 0 3 21 22
25 1 2 0 3 22 23
26 1 2 0 3 23 24
27 1 2 0 3 24 25
28 1 2 0 3 25 4
29 1 2 0 4 4 26
30 1 2 0 4 26 27
31 1 2 0 4 27 28
32 1 2 0 4 28 29
33 1 2 0 4 29 30
34 1 2 0 4 30 31
35 1 2 0 4 31 32
36 1 2 0 4 32 1
37 3 2 0 1 1 5 33 32
38 3 2 0 1 32 33 34 31
39 3 2 0 1 31 34 35 30
40 3 2 0 1 30 35 36 29
41 3 2 0 1 29 36 37 28
42 3 2 0 1 28 37 38 27
43 3 2 0 1 27 38 39 26
44 3 2 0 1 26 39 25 4
45 3 2 0 1 5 6 40 33
46 3 2 0 1 33 40 41 34
47 3 2 0 1 34 41 42 35
48 3 2 0 1 35 42 43 36
49 3 2 0 1 36 43 44 37
50 3 2 0 1 37 44 45 38
51 3 2 0 1 38 45 46 39
52 3 2 0 1 39 46 24 25
53 3 2 0 1 6 7 47 40
54 3 2 0 1 40 47 48 41
55 3 2 0 1 41 48 49 42
56 3 2 0 1 42 49 50 43
57 3 2 0 1 43 50 51 44
58 3 2 0 1 44 51 52 45
59 3 2 0 1 45 52 53 46
60 3 2 0 1 46 53 23 24
61 3 2 0 1 7 8 54 47
62 3 2 0 1 47 54 55 48
63 3 2 0 1 48 55 56 49
64 3 2 0 1 49 56 57 50
65 3 2 0 1 50 57 58 51
66 3 2 0 1 51 58 59 52
67 3 2 0 1 52 59 60 53
68 3 2 0 1 53 60 22 23
69 3 2 0 1 8 9 61 54
70 3 2 0 1 54 61 62 55
71 3 2 0 1 55 62 63 56
72 3 2 0 1 56 63 64 57
73 3 2 0 1 57 64 65 58
74 3 2 0 1 58 65 66 59
75 3 2 0 1 59 66 67 60
76 3 2 0 1 60 67 21 22
77 3 2 0 1 9 10 68 61
78 3 2 0 1 61 68 69 62
79 3 2 0 1 62 69 70 63
80 3 2 0 1 63 70 71 64
81 3 2 0 1 64 71 72 65
82 3 2 0 1 65 72 73 66
83 3 2 0 1 66 73 74 67
84 3 2 0 1 67 74 20 21
85 3 2 0 1 10 11 75 68
86 3 2 0 1 68 75 76 69
87 3 2 0 1 69 76 77 70
88 3 2 0 1 70 77 78 71
89 3 2 0 1 71 78 79 72
90 3 2 0 1 72 79 80 73
91 3 2 0 1 73 80 81 74
92 3 2 0 1 74 81 19 20
93 3 2 0 1 11 2 12 75
94 3 2 0 1 75 12 13 76
95 3 2 0 1 76 13 14 77
96 3 2 0 1 77 14 15 78
97 3 2 0 1 78 15 16 79
98 3 2 0 1 79 16 17 80
99 3 2 0 1 80 17 18 81
100 3 2 0 1 81 18 3 19
$EndElements
