$MeshFormat
2.2 0 8
$EndMeshFormat
$Nodes
36
1 0 0 0
2 300 0 0
3 300 300 0
4 0 300 0
5 59.99999999987929 0 0
6 119.9999999997583 0 0
7 179.9999999996739 0 0
8 239.9999999998369 0 0
9 300 59.99999999987929 0
10 300 119.9999999997583 0
11 300 179.9999999996739 0
12 300 239.9999999998369 0
13 239.9999999999577 300 0
14 179.9999999999153 300 0
15 120.0000000000841 300 0
16 60.00000000004201 300 0
17 0 239.9999999999577 0
18 0 179.9999999999153 0
19 0 120.0000000000841 0
20 0 60.00000000004201 0
21 59.99999999991183 60.00000000000946 0
22 59.99999999994438 120.0000000000189 0
23 59.99999999997691 179.9999999998671 0
24 60.00000000000946 239.9999999999336 0
25 119.9999999998235 59.99999999997692 0
26 119.9999999998886 119.9999999999538 0
27 119.9999999999538 179.9999999998188 0
28 120.0000000000189 239.9999999999094 0
29 179.9999999997222 59.99999999994438 0
30 179.9999999997705 119.9999999998886 0
31 179.9999999998188 179.9999999997704 0
32 179.9999999998671 239.9999999998852 0
33 239.9999999998611 59.99999999991184 0
34 239.9999999998852 119.9999999998235 0
35 239.9999999999094 179.9999999997221 0
36 239.9999999999336 239.9999999998611 0
$EndNodes
$Elements
49
1 15 2 0 1 1
2 15 2 0 2 2
3 15 2 0 3 3
4 15 2 0 4 4
5 1 2 0 1 1 5
6 1 2 0 1 5 6
7 1 2 0 1 6 7
8 1 2 0 1 7 8
9 1 2 0 1 8 2
10 1 2 0 2 2 9
11 1 2 0 2 9 10
12 1 2 0 2 10 11
13 1 2 0 2 11 12
14 1 2 0 2 12 3
15 1 2 0 3 3 13
16 1 2 0 3 13 14
17 1 2 0 3 14 15
18 1 2 0 3 15 16
19 1 2 0 3 16 4
20 1 2 0 4 4 17
21 1 2 0 4 17 18
22 1 2 0 4 18 19
23 1 2 0 4 19 20
24 1 2 0 4 20 1
25 3 2 0 1 1 5 21 20
26 3 2 0 1 20 21 22 19
27 3 2 0 1 19 22 23 18
28 3 2 0 1 18 23 24 17
29 3 2 0 1 17 24 16 4
30 3 2 0 1 5 6 25 21
31 3 2 0 1 21 25 26 22
32 3 2 0 1 22 26 27 23
33 3 2 0 1 23 27 28 24
34 3 2 0 1 24 28 15 16
35 3 2 0 1 6 7 29 25
36 3 2 0 1 25 29 30 26
37 3 2 0 1 26 30 31 27
38 3 2 0 1 27 31 32 28
39 3 2 0 1 28 32 14 15
40 3 2 0 1 7 8 33 29
41 3 2 0 1 29 33 34 30
42 3 2 0 1 30 34 35 31
43 3 2 0 1 31 35 36 32
44 3 2 0 1 32 36 13 14
45 3 2 0 1 8 2 9 33
46 3 2 0 1 33 9 10 34
47 3 2 0 1 34 10 11 35
48 3 2 0 1 35 11 12 36
49 3 2 0 1 36 12 3 13
$EndElements
