$MeshFormat
2.0 0 8
$EndMeshFormat
$Nodes
64
1 0 0 0
2 0.08333333333 0 0
3 0.25 0 0
4 0.4166666667 0 0
5 0.5833333333 0 0
6 0.75 0 0
7 0.9166666667 0 0
8 1 0 0
9 0 0.08333333333 0
10 0.08333333333 0.08333333333 0
11 0.25 0.08333333333 0
12 0.4166666667 0.08333333333 0
13 0.5833333333 0.08333333333 0
14 0.75 0.08333333333 0
15 0.9166666667 0.08333333333 0
16 1 0.08333333333 0
17 0 0.25 0
18 0.08333333333 0.25 0
19 0.25 0.25 0
20 0.4166666667 0.25 0
21 0.5833333333 0.25 0
22 0.75 0.25 0
23 0.9166666667 0.25 0
24 1 0.25 0
25 0 0.4166666667 0
26 0.08333333333 0.4166666667 0
27 0.25 0.4166666667 0
28 0.4166666667 0.4166666667 0
29 0.5833333333 0.4166666667 0
30 0.75 0.4166666667 0
31 0.9166666667 0.4166666667 0
32 1 0.4166666667 0
33 0 0.5833333333 0
34 0.08333333333 0.5833333333 0
35 0.25 0.5833333333 0
36 0.4166666667 0.5833333333 0
37 0.5833333333 0.5833333333 0
38 0.75 0.5833333333 0
39 0.9166666667 0.5833333333 0
40 1 0.5833333333 0
41 0 0.75 0
42 0.08333333333 0.75 0
43 0.25 0.75 0
44 0.4166666667 0.75 0
45 0.5833333333 0.75 0
46 0.75 0.75 0
47 0.9166666667 0.75 0
48 1 0.75 0
49 0 0.9166666667 0
50 0.08333333333 0.9166666667 0
51 0.25 0.9166666667 0
52 0.4166666667 0.9166666667 0
53 0.5833333333 0.9166666667 0
54 0.75 0.9166666667 0
55 0.9166666667 0.9166666667 0
56 1 0.9166666667 0
57 0 1 0
58 0.08333333333 1 0
59 0.25 1 0
60 0.4166666667 1 0
61 0.5833333333 1 0
62 0.75 1 0
63 0.9166666667 1 0
64 1 1 0
$EndNodes
$Elements
49
48 3 0 1 2 10 9
47 3 0 9 10 18 17
46 3 0 17 18 26 25
45 3 0 25 26 34 33
44 3 0 33 34 42 41
43 3 0 41 42 50 49
42 3 0 49 50 58 57
41 3 0 2 3 11 10
40 3 0 10 11 19 18
39 3 0 18 19 27 26
38 3 0 26 27 35 34
37 3 0 34 35 43 42
36 3 0 42 43 51 50
35 3 0 50 51 59 58
34 3 0 3 4 12 11
33 3 0 11 12 20 19
32 3 0 19 20 28 27
31 3 0 27 28 36 35
30 3 0 35 36 44 43
29 3 0 43 44 52 51
28 3 0 51 52 60 59
27 3 0 4 5 13 12
26 3 0 12 13 21 20
25 3 0 20 21 29 28
24 3 0 28 29 37 36
23 3 0 36 37 45 44
22 3 0 44 45 53 52
21 3 0 52 53 61 60
20 3 0 5 6 14 13
19 3 0 13 14 22 21
18 3 0 21 22 30 29
17 3 0 29 30 38 37
16 3 0 37 38 46 45
15 3 0 45 46 54 53
14 3 0 53 54 62 61
13 3 0 6 7 15 14
12 3 0 14 15 23 22
11 3 0 22 23 31 30
10 3 0 30 31 39 38
9 3 0 38 39 47 46
8 3 0 46 47 55 54
7 3 0 54 55 63 62
6 3 0 7 8 16 15
5 3 0 15 16 24 23
4 3 0 23 24 32 31
3 3 0 31 32 40 39
2 3 0 39 40 48 47
1 3 0 47 48 56 55
-1 3 0 55 56 64 63
$EndElements
