$MeshFormat
2.0 0 8
$EndMeshFormat
$Nodes
28
1 0 0 0
2 0.1666666667 0 0
3 0.5 0 0
4 0.8333333333 0 0
5 1 0 0
6 0 0.1666666667 0
7 0.3333333333 0.1666666667 0
8 0.6666666667 0.1666666667 0
9 1 0.1666666667 0
10 0.1666666667 0.3333333333 0
11 0.5 0.3333333333 0
12 0.8333333333 0.3333333333 0
13 0 0.5 0
14 0.3333333333 0.5 0
15 0.6666666667 0.5 0
16 1 0.5 0
17 0.1666666667 0.6666666667 0
18 0.5 0.6666666667 0
19 0.8333333333 0.6666666667 0
20 0 0.8333333333 0
21 0.3333333333 0.8333333333 0
22 0.6666666667 0.8333333333 0
23 1 0.8333333333 0
24 0 1 0
25 0.1666666667 1 0
26 0.5 1 0
27 0.8333333333 1 0
28 1 1 0
$EndNodes
$Elements
25
24 2 0 1 2 6
23 2 0 6 10 13
22 2 0 13 17 20
21 2 0 20 24 25
20 2 0 21 25 26
19 2 0 22 26 27
18 2 0 23 27 28
17 2 0 16 19 23
16 2 0 9 12 16
15 2 0 4 5 9
14 2 0 3 4 8
13 2 0 2 3 7
12 3 0 10 6 2 7
11 3 0 11 7 3 8
10 3 0 12 8 4 9
9 3 0 19 15 12 16
8 3 0 26 21 18 22
7 3 0 25 20 17 21
6 3 0 27 22 19 23
5 3 0 22 18 15 19
4 3 0 21 17 14 18
3 3 0 17 13 10 14
2 3 0 14 10 7 11
1 3 0 18 14 11 15
-1 3 0 15 11 8 12
$EndElements
