$MeshFormat
2.2 0 8
$EndMeshFormat
$Nodes
142
1 0 0.62 0
2 0.02 0.639867 0
3 0.04 0.658942 0
4 0.06 0.676464 0
5 0.08 0.691736 0
6 0.1 0.704147 0
7 0.12 0.7132039999999999 0
8 0.14 0.718545 0
9 0.16 0.719957 0
10 0.18 0.7173850000000001 0
11 0.2 0.71093 0
12 0.22 0.70085 0
13 0.24 0.687546 0
14 0.26 0.67155 0
15 0.28 0.6534989999999999 0
16 0.3 0.634112 0
17 0.32 0.614163 0
18 0.34 0.594446 0
19 0.36 0.5757479999999999 0
20 0.38 0.5588139999999999 0
21 0.4 0.5443199999999999 0
22 0.42 0.532842 0
23 0.44 0.52484 0
24 0.46 0.5206310000000001 0
25 0.48 0.520384 0
26 0.5 0.524108 0
27 0.52 0.531655 0
28 0.54 0.542724 0
29 0.5600000000000001 0.556873 0
30 0.58 0.5735399999999999 0
31 0.6 0.592058 0
32 0.62 0.611691 0
33 0.64 0.631655 0
34 0.66 0.651154 0
35 0.68 0.669411 0
36 0.7000000000000001 0.6856989999999999 0
37 0.72 0.699367 0
38 0.74 0.709871 0
39 0.76 0.716792 0
40 0.78 0.719854 0
41 0.8 0.718936 0
42 0.8200000000000001 0.714073 0
43 0.84 0.70546 0
44 0.86 0.6934399999999999 0
45 0.88 0.678492 0
46 0.9 0.661212 0
47 0.92 0.642289 0
48 0.9400000000000001 0.622478 0
49 0.96 0.6025670000000001 0
50 0.98 0.583352 0
51 1 0.565598 0
52 0 0.38 0
53 0.02 0.399867 0
54 0.04 0.418942 0
55 0.06 0.436464 0
56 0.08 0.451736 0
57 0.1 0.464147 0
58 0.12 0.473204 0
59 0.14 0.478545 0
60 0.16 0.479957 0
61 0.18 0.4773850000000001 0
62 0.2 0.47093 0
63 0.22 0.46085 0
64 0.24 0.447546 0
65 0.26 0.43155 0
66 0.28 0.4134989999999999 0
67 0.3 0.394112 0
68 0.32 0.374163 0
69 0.34 0.354446 0
70 0.36 0.335748 0
71 0.38 0.318814 0
72 0.4 0.30432 0
73 0.42 0.292842 0
74 0.44 0.28484 0
75 0.46 0.280631 0
76 0.48 0.280384 0
77 0.5 0.284108 0
78 0.52 0.291655 0
79 0.54 0.302724 0
80 0.5600000000000001 0.316873 0
81 0.58 0.33354 0
82 0.6 0.352058 0
83 0.62 0.371691 0
84 0.64 0.391655 0
85 0.66 0.411154 0
86 0.68 0.429411 0
87 0.7000000000000001 0.445699 0
88 0.72 0.459367 0
89 0.74 0.469871 0
90 0.76 0.476792 0
91 0.78 0.479854 0
92 0.8 0.478936 0
93 0.8200000000000001 0.474073 0
94 0.84 0.46546 0
95 0.86 0.45344 0
96 0.88 0.438492 0
97 0.9 0.421212 0
98 0.92 0.402289 0
99 0.9400000000000001 0.382478 0
100 0.96 0.362567 0
101 0.98 0.343352 0
102 1 0.325598 0
103 0 0 0
104 1 0 0
105 1 1 0
106 0 1 0
107 0.1702420709981334 0.7184758385526204 0
108 0.3329417629129812 0.6014520790545038 0
109 0.5099279923992042 0.528007508034638 0
110 0.6662152264184646 0.656749944296407 0
111 0.8478545330533214 0.7005826998102572 0
112 0.1702420709379046 0.4784758385604712 0
113 0.3329417629285358 0.3614520790393239 0
114 0.5099279924216628 0.2880075080430557 0
115 0.6662152264388711 0.416749944315239 0
116 0.8478545330355984 0.460582699820552 0
117 0.2499999999994109 0 0
118 0.4999999999986918 0 0
119 0.7499999999993401 0 0
120 1 0.1702142821044183 0
121 1 0.4455979999996963 0
122 1 0.7729057777533542 0
123 0.7500000000003477 1 0
124 0.5000000000020616 1 0
125 0.2500000000010419 1 0
126 0 0.8013457478249384 0
127 0 0.5000000000003795 0
128 0 0.1986542521759563 0
129 0.4352213455587634 0.7697059685235815 0
130 0.6707459483892935 0.8291402658020874 0
131 0.8319643744372728 0.8383348622418991 0
132 0.297813190404339 0.8237188588097517 0
133 0.126909419115091 0.8320841213661719 0
134 0.1251703058029424 0.5713096007690167 0
135 0.8496177506575704 0.5232195628497502 0
136 0.7304027503561753 0.5428914775413618 0
137 0.7863355181033987 0.2493403602225829 0
138 0.1820079158186179 0.2941003275943854 0
139 0.4183050555150004 0.1613166458622945 0
140 0.6385034278222733 0.1511220303787582 0
141 0.2094372521232433 0.1699150663727379 0
142 0.8567275226161928 0.1457198371222604 0
$EndNodes
$Elements
171
1 15 2 0 1 1
2 15 2 0 2 2
3 15 2 0 3 3
4 15 2 0 4 4
5 15 2 0 5 5
6 15 2 0 6 6
7 15 2 0 7 7
8 15 2 0 8 8
9 15 2 0 9 9
10 15 2 0 10 10
11 15 2 0 11 11
12 15 2 0 12 12
13 15 2 0 13 13
14 15 2 0 14 14
15 15 2 0 15 15
16 15 2 0 16 16
17 15 2 0 17 17
18 15 2 0 18 18
19 15 2 0 19 19
20 15 2 0 20 20
21 15 2 0 21 21
22 15 2 0 22 22
23 15 2 0 23 23
24 15 2 0 24 24
25 15 2 0 25 25
26 15 2 0 26 26
27 15 2 0 27 27
28 15 2 0 28 28
29 15 2 0 29 29
30 15 2 0 30 30
31 15 2 0 31 31
32 15 2 0 32 32
33 15 2 0 33 33
34 15 2 0 34 34
35 15 2 0 35 35
36 15 2 0 36 36
37 15 2 0 37 37
38 15 2 0 38 38
39 15 2 0 39 39
40 15 2 0 40 40
41 15 2 0 41 41
42 15 2 0 42 42
43 15 2 0 43 43
44 15 2 0 44 44
45 15 2 0 45 45
46 15 2 0 46 46
47 15 2 0 47 47
48 15 2 0 48 48
49 15 2 0 49 49
50 15 2 0 50 50
51 15 2 0 51 51
52 15 2 0 52 52
53 15 2 0 53 53
54 15 2 0 54 54
55 15 2 0 55 55
56 15 2 0 56 56
57 15 2 0 57 57
58 15 2 0 58 58
59 15 2 0 59 59
60 15 2 0 60 60
61 15 2 0 61 61
62 15 2 0 62 62
63 15 2 0 63 63
64 15 2 0 64 64
65 15 2 0 65 65
66 15 2 0 66 66
67 15 2 0 67 67
68 15 2 0 68 68
69 15 2 0 69 69
70 15 2 0 70 70
71 15 2 0 71 71
72 15 2 0 72 72
73 15 2 0 73 73
74 15 2 0 74 74
75 15 2 0 75 75
76 15 2 0 76 76
77 15 2 0 77 77
78 15 2 0 78 78
79 15 2 0 79 79
80 15 2 0 80 80
81 15 2 0 81 81
82 15 2 0 82 82
83 15 2 0 83 83
84 15 2 0 84 84
85 15 2 0 85 85
86 15 2 0 86 86
87 15 2 0 87 87
88 15 2 0 88 88
89 15 2 0 89 89
90 15 2 0 90 90
91 15 2 0 91 91
92 15 2 0 92 92
93 15 2 0 93 93
94 15 2 0 94 94
95 15 2 0 95 95
96 15 2 0 96 96
97 15 2 0 97 97
98 15 2 0 98 98
99 15 2 0 99 99
100 15 2 0 100 100
101 15 2 0 101 101
102 15 2 0 102 102
103 15 2 0 103 103
104 15 2 0 104 104
105 15 2 0 105 105
106 15 2 0 106 106
107 1 2 0 1 1 107
108 1 2 0 1 107 108
109 1 2 0 1 108 109
110 1 2 0 1 109 110
111 1 2 0 1 110 111
112 1 2 0 1 111 51
113 1 2 0 2 52 112
114 1 2 0 2 112 113
115 1 2 0 2 113 114
116 1 2 0 2 114 115
117 1 2 0 2 115 116
118 1 2 0 2 116 102
119 1 2 0 3 103 117
120 1 2 0 3 117 118
121 1 2 0 3 118 119
122 1 2 0 3 119 104
123 1 2 0 4 104 120
124 1 2 0 4 120 102
125 1 2 0 5 102 121
126 1 2 0 5 121 51
127 1 2 0 6 51 122
128 1 2 0 6 122 105
129 1 2 0 7 105 123
130 1 2 0 7 123 124
131 1 2 0 7 124 125
132 1 2 0 7 125 106
133 1 2 0 8 106 126
134 1 2 0 8 126 1
135 1 2 0 9 1 127
136 1 2 0 9 127 52
137 1 2 0 10 52 128
138 1 2 0 10 128 103
139 3 2 0 1 110 129 108 109
140 3 2 0 1 124 129 110 130
141 3 2 0 1 107 108 129 132
142 3 2 0 1 129 124 125 132
143 3 2 0 1 51 122 131 111
144 3 2 0 1 122 105 123 131
145 3 2 0 1 125 106 126 133
146 3 2 0 1 110 111 131 130
147 3 2 0 1 1 107 133 126
148 3 2 0 1 124 130 131 123
149 3 2 0 1 107 132 125 133
150 3 2 0 2 111 135 121 51
151 3 2 0 2 109 108 112 113
152 3 2 0 2 113 114 115 109
153 3 2 0 2 115 136 110 109
154 3 2 0 2 110 136 135 111
155 3 2 0 2 107 1 127 134
156 3 2 0 2 115 116 135 136
157 3 2 0 2 135 116 102 121
158 3 2 0 2 134 127 52 112
159 3 2 0 2 107 134 112 108
160 3 2 0 3 137 115 114 140
161 3 2 0 3 102 116 115 137
162 3 2 0 3 102 137 142 120
163 3 2 0 3 52 138 113 112
164 3 2 0 3 113 138 141 139
165 3 2 0 3 140 114 113 139
166 3 2 0 3 137 140 119 142
167 3 2 0 3 117 141 128 103
168 3 2 0 3 139 118 119 140
169 3 2 0 3 119 104 120 142
170 3 2 0 3 52 128 141 138
171 3 2 0 3 118 139 141 117
$EndElements
