$MeshFormat
2.2 0 8
$EndMeshFormat
$Nodes
192
1 0 0.62 0
2 0.02 0.639867 0
3 0.04 0.658942 0
4 0.06 0.676464 0
5 0.08 0.691736 0
6 0.1 0.704147 0
7 0.12 0.7132039999999999 0
8 0.14 0.718545 0
9 0.16 0.719957 0
10 0.18 0.7173850000000001 0
11 0.2 0.71093 0
12 0.22 0.70085 0
13 0.24 0.687546 0
14 0.26 0.67155 0
15 0.28 0.6534989999999999 0
16 0.3 0.634112 0
17 0.32 0.614163 0
18 0.34 0.594446 0
19 0.36 0.5757479999999999 0
20 0.38 0.5588139999999999 0
21 0.4 0.5443199999999999 0
22 0.42 0.532842 0
23 0.44 0.52484 0
24 0.46 0.5206310000000001 0
25 0.48 0.520384 0
26 0.5 0.524108 0
27 0.52 0.531655 0
28 0.54 0.542724 0
29 0.5600000000000001 0.556873 0
30 0.58 0.5735399999999999 0
31 0.6 0.592058 0
32 0.62 0.611691 0
33 0.64 0.631655 0
34 0.66 0.651154 0
35 0.68 0.669411 0
36 0.7000000000000001 0.6856989999999999 0
37 0.72 0.699367 0
38 0.74 0.709871 0
39 0.76 0.716792 0
40 0.78 0.719854 0
41 0.8 0.718936 0
42 0.8200000000000001 0.714073 0
43 0.84 0.70546 0
44 0.86 0.6934399999999999 0
45 0.88 0.678492 0
46 0.9 0.661212 0
47 0.92 0.642289 0
48 0.9400000000000001 0.622478 0
49 0.96 0.6025670000000001 0
50 0.98 0.583352 0
51 1 0.565598 0
52 0 0.38 0
53 0.02 0.399867 0
54 0.04 0.418942 0
55 0.06 0.436464 0
56 0.08 0.451736 0
57 0.1 0.464147 0
58 0.12 0.473204 0
59 0.14 0.478545 0
60 0.16 0.479957 0
61 0.18 0.4773850000000001 0
62 0.2 0.47093 0
63 0.22 0.46085 0
64 0.24 0.447546 0
65 0.26 0.43155 0
66 0.28 0.4134989999999999 0
67 0.3 0.394112 0
68 0.32 0.374163 0
69 0.34 0.354446 0
70 0.36 0.335748 0
71 0.38 0.318814 0
72 0.4 0.30432 0
73 0.42 0.292842 0
74 0.44 0.28484 0
75 0.46 0.280631 0
76 0.48 0.280384 0
77 0.5 0.284108 0
78 0.52 0.291655 0
79 0.54 0.302724 0
80 0.5600000000000001 0.316873 0
81 0.58 0.33354 0
82 0.6 0.352058 0
83 0.62 0.371691 0
84 0.64 0.391655 0
85 0.66 0.411154 0
86 0.68 0.429411 0
87 0.7000000000000001 0.445699 0
88 0.72 0.459367 0
89 0.74 0.469871 0
90 0.76 0.476792 0
91 0.78 0.479854 0
92 0.8 0.478936 0
93 0.8200000000000001 0.474073 0
94 0.84 0.46546 0
95 0.86 0.45344 0
96 0.88 0.438492 0
97 0.9 0.421212 0
98 0.92 0.402289 0
99 0.9400000000000001 0.382478 0
100 0.96 0.362567 0
101 0.98 0.343352 0
102 1 0.325598 0
103 0 0 0
104 1 0 0
105 1 1 0
106 0 1 0
107 0.09261189210533102 0.6993981004481975 0
108 0.2089416601201005 0.7062732587752932 0
109 0.303959313253886 0.6301147588649237 0
110 0.3946910320486978 0.5483742419298114 0
111 0.5099279923693848 0.5280075080234615 0
112 0.6078643083802753 0.5998228694831074 0
113 0.697238039176455 0.683169203526204 0
114 0.8103752791015515 0.7162527186471129 0
115 0.9116617307532151 0.6501290696392176 0
116 0.09261189209924708 0.4593981004445657 0
117 0.2089416601130733 0.4662732587787535 0
118 0.3039593132521168 0.390114758866672 0
119 0.3946910320455345 0.3083742419319889 0
120 0.5099279923605785 0.2880075080201609 0
121 0.6078643083708913 0.3598228694739801 0
122 0.6972380391687896 0.4431692035203272 0
123 0.8103752790926185 0.4762527186493062 0
124 0.9116617307481164 0.4101290696440437 0
125 0.1666666666663217 0 0
126 0.3333333333325025 0 0
127 0.4999999999986943 0 0
128 0.6666666666657889 0 0
129 0.8333333333328945 0 0
130 1 0.1744874327515443 0
131 1 0.4455979999996965 0
132 1 0.6627779869333794 0
133 1 0.7672046803115038 0
134 1 0.8794184579172074 0
135 0.8333333333331019 1 0
136 0.6666666666675911 1 0
137 0.5000000000020587 1 0
138 0.3333333333347203 1 0
139 0.1666666666673601 1 0
140 0 0.8945193958442046 0
141 0 0.7963586237668592 0
142 0 0.7050097264829857 0
143 0 0.5000000000003797 0
144 0 0.2949902735173685 0
145 0 0.2036413762340216 0
146 0 0.1054806041563097 0
147 0.4583976722900636 0.7630574771295975 0
148 0.7458190160863364 0.838340384095802 0
149 0.3355651876317194 0.883219187087296 0
150 0.8456620461171525 0.7937141257537496 0
151 0.4634591776046658 0.65354199856219 0
152 0.5781839732617888 0.7447070981626343 0
153 0.9137449681695672 0.7419492078046881 0
154 0.3309790535131528 0.7692888832642164 0
155 0.47697438588521 0.8787148482188571 0
156 0.6182238340402533 0.8646780513525002 0
157 0.09909047427964328 0.787305391049859 0
158 0.9137543803065677 0.8911089533723684 0
159 0.08188123385514089 0.9061564332882114 0
160 0.9443518600039452 0.7935642611249559 0
161 0.5516830322252559 0.6638023912822493 0
162 0.2056988554862423 0.8736315149314586 0
163 0.2100376409085278 0.7778914938069327 0
164 0.09604097655228372 0.8424932435433401 0
165 0.1169450107298546 0.5682408704671563 0
166 0.5044233645516497 0.4422056059215709 0
167 0.8065913400852051 0.5594910530212004 0
168 0.906926645640856 0.5216233165536406 0
169 0.6049679368133425 0.4861389199602237 0
170 0.308059056923687 0.5071910508990772 0
171 0.703082997076569 0.5458750477263173 0
172 0.4002902968380665 0.4489800246098756 0
173 0.06969607327773042 0.5031749596198778 0
174 0.2415747403329883 0.5506010306394822 0
175 0.1918328844342879 0.2604226094132934 0
176 0.7641056731502582 0.2086922759257184 0
177 0.3407948136699219 0.1781194565678757 0
178 0.6464705897980242 0.1271105876382089 0
179 0.09384614737425352 0.3324174308284735 0
180 0.09323313728772936 0.1729813285737065 0
181 0.1981845767118049 0.1532322075250439 0
182 0.7830190550665087 0.3534270985356919 0
183 0.09337594645105073 0.2669385116640309 0
184 0.2709655329693683 0.2739021757625893 0
185 0.8880684830527176 0.2763367627890161 0
186 0.8750171781354532 0.1755664504141251 0
187 0.162080044159661 0.355684051284328 0
188 0.7433682272127143 0.1212150359638556 0
189 0.6534778905356977 0.2401083351502076 0
190 0.5040250731536641 0.1447494583198867 0
191 0.08030521887699087 0.100756018689477 0
192 0.673858852985696 0.3171921425401625 0
$EndNodes
$Elements
234
1 15 2 0 1 1
2 15 2 0 2 2
3 15 2 0 3 3
4 15 2 0 4 4
5 15 2 0 5 5
6 15 2 0 6 6
7 15 2 0 7 7
8 15 2 0 8 8
9 15 2 0 9 9
10 15 2 0 10 10
11 15 2 0 11 11
12 15 2 0 12 12
13 15 2 0 13 13
14 15 2 0 14 14
15 15 2 0 15 15
16 15 2 0 16 16
17 15 2 0 17 17
18 15 2 0 18 18
19 15 2 0 19 19
20 15 2 0 20 20
21 15 2 0 21 21
22 15 2 0 22 22
23 15 2 0 23 23
24 15 2 0 24 24
25 15 2 0 25 25
26 15 2 0 26 26
27 15 2 0 27 27
28 15 2 0 28 28
29 15 2 0 29 29
30 15 2 0 30 30
31 15 2 0 31 31
32 15 2 0 32 32
33 15 2 0 33 33
34 15 2 0 34 34
35 15 2 0 35 35
36 15 2 0 36 36
37 15 2 0 37 37
38 15 2 0 38 38
39 15 2 0 39 39
40 15 2 0 40 40
41 15 2 0 41 41
42 15 2 0 42 42
43 15 2 0 43 43
44 15 2 0 44 44
45 15 2 0 45 45
46 15 2 0 46 46
47 15 2 0 47 47
48 15 2 0 48 48
49 15 2 0 49 49
50 15 2 0 50 50
51 15 2 0 51 51
52 15 2 0 52 52
53 15 2 0 53 53
54 15 2 0 54 54
55 15 2 0 55 55
56 15 2 0 56 56
57 15 2 0 57 57
58 15 2 0 58 58
59 15 2 0 59 59
60 15 2 0 60 60
61 15 2 0 61 61
62 15 2 0 62 62
63 15 2 0 63 63
64 15 2 0 64 64
65 15 2 0 65 65
66 15 2 0 66 66
67 15 2 0 67 67
68 15 2 0 68 68
69 15 2 0 69 69
70 15 2 0 70 70
71 15 2 0 71 71
72 15 2 0 72 72
73 15 2 0 73 73
74 15 2 0 74 74
75 15 2 0 75 75
76 15 2 0 76 76
77 15 2 0 77 77
78 15 2 0 78 78
79 15 2 0 79 79
80 15 2 0 80 80
81 15 2 0 81 81
82 15 2 0 82 82
83 15 2 0 83 83
84 15 2 0 84 84
85 15 2 0 85 85
86 15 2 0 86 86
87 15 2 0 87 87
88 15 2 0 88 88
89 15 2 0 89 89
90 15 2 0 90 90
91 15 2 0 91 91
92 15 2 0 92 92
93 15 2 0 93 93
94 15 2 0 94 94
95 15 2 0 95 95
96 15 2 0 96 96
97 15 2 0 97 97
98 15 2 0 98 98
99 15 2 0 99 99
100 15 2 0 100 100
101 15 2 0 101 101
102 15 2 0 102 102
103 15 2 0 103 103
104 15 2 0 104 104
105 15 2 0 105 105
106 15 2 0 106 106
107 1 2 0 1 1 107
108 1 2 0 1 107 108
109 1 2 0 1 108 109
110 1 2 0 1 109 110
111 1 2 0 1 110 111
112 1 2 0 1 111 112
113 1 2 0 1 112 113
114 1 2 0 1 113 114
115 1 2 0 1 114 115
116 1 2 0 1 115 51
117 1 2 0 2 52 116
118 1 2 0 2 116 117
119 1 2 0 2 117 118
120 1 2 0 2 118 119
121 1 2 0 2 119 120
122 1 2 0 2 120 121
123 1 2 0 2 121 122
124 1 2 0 2 122 123
125 1 2 0 2 123 124
126 1 2 0 2 124 102
127 1 2 0 3 103 125
128 1 2 0 3 125 126
129 1 2 0 3 126 127
130 1 2 0 3 127 128
131 1 2 0 3 128 129
132 1 2 0 3 129 104
133 1 2 0 4 104 130
134 1 2 0 4 130 102
135 1 2 0 5 102 131
136 1 2 0 5 131 51
137 1 2 0 6 51 132
138 1 2 0 6 132 133
139 1 2 0 6 133 134
140 1 2 0 6 134 105
141 1 2 0 7 105 135
142 1 2 0 7 135 136
143 1 2 0 7 136 137
144 1 2 0 7 137 138
145 1 2 0 7 138 139
146 1 2 0 7 139 106
147 1 2 0 8 106 140
148 1 2 0 8 140 141
149 1 2 0 8 141 142
150 1 2 0 8 142 1
151 1 2 0 9 1 143
152 1 2 0 9 143 52
153 1 2 0 10 52 144
154 1 2 0 10 144 145
155 1 2 0 10 145 146
156 1 2 0 10 146 103
157 3 2 0 1 113 114 150 148
158 3 2 0 1 51 132 153 115
159 3 2 0 1 107 108 163 157
160 3 2 0 1 135 136 156 148
161 3 2 0 1 163 108 109 154
162 3 2 0 1 1 107 157 142
163 3 2 0 1 113 148 156 152
164 3 2 0 1 154 147 155 149
165 3 2 0 1 109 110 111 151
166 3 2 0 1 150 114 115 153
167 3 2 0 1 111 112 161 151
168 3 2 0 1 112 113 152 161
169 3 2 0 1 139 106 140 159
170 3 2 0 1 109 151 147 154
171 3 2 0 1 149 155 137 138
172 3 2 0 1 151 161 152 147
173 3 2 0 1 149 138 139 162
174 3 2 0 1 148 150 158 135
175 3 2 0 1 135 158 134 105
176 3 2 0 1 133 134 158 160
177 3 2 0 1 153 160 158 150
178 3 2 0 1 152 156 155 147
179 3 2 0 1 141 164 159 140
180 3 2 0 1 136 137 155 156
181 3 2 0 1 132 133 160 153
182 3 2 0 1 164 162 139 159
183 3 2 0 1 157 163 162 164
184 3 2 0 1 142 157 164 141
185 3 2 0 1 154 149 162 163
186 3 2 0 2 1 165 108 107
187 3 2 0 2 166 111 110 172
188 3 2 0 2 120 121 169 166
189 3 2 0 2 117 165 173 116
190 3 2 0 2 168 115 114 167
191 3 2 0 2 172 119 120 166
192 3 2 0 2 166 169 112 111
193 3 2 0 2 102 131 168 124
194 3 2 0 2 169 171 113 112
195 3 2 0 2 171 167 114 113
196 3 2 0 2 131 51 115 168
197 3 2 0 2 167 171 122 123
198 3 2 0 2 119 172 170 118
199 3 2 0 2 167 123 124 168
200 3 2 0 2 108 165 117 174
201 3 2 0 2 165 1 143 173
202 3 2 0 2 171 169 121 122
203 3 2 0 2 109 170 172 110
204 3 2 0 2 118 170 174 117
205 3 2 0 2 52 116 173 143
206 3 2 0 2 108 174 170 109
207 3 2 0 3 190 127 128 178
208 3 2 0 3 189 120 190 178
209 3 2 0 3 118 187 175 184
210 3 2 0 3 177 119 118 184
211 3 2 0 3 52 179 187 116
212 3 2 0 3 119 177 190 120
213 3 2 0 3 102 185 186 130
214 3 2 0 3 190 177 126 127
215 3 2 0 3 180 191 125 181
216 3 2 0 3 189 178 188 176
217 3 2 0 3 52 144 183 179
218 3 2 0 3 124 123 122 182
219 3 2 0 3 130 186 129 104
220 3 2 0 3 177 184 175 181
221 3 2 0 3 177 181 125 126
222 3 2 0 3 180 183 144 145
223 3 2 0 3 182 185 102 124
224 3 2 0 3 176 182 192 189
225 3 2 0 3 116 187 118 117
226 3 2 0 3 181 175 183 180
227 3 2 0 3 187 179 183 175
228 3 2 0 3 125 191 146 103
229 3 2 0 3 145 146 191 180
230 3 2 0 3 186 185 182 176
231 3 2 0 3 178 128 129 188
232 3 2 0 3 182 122 121 192
233 3 2 0 3 176 188 129 186
234 3 2 0 3 120 189 192 121
$EndElements
