$MeshFormat
2.2 0 8
$EndMeshFormat
$Nodes
211
1 0 0.71 0
2 0.02 0.7298669999999999 0
3 0.04 0.748942 0
4 0.06 0.7664639999999999 0
5 0.08 0.781736 0
6 0.1 0.7941469999999999 0
7 0.12 0.8032039999999999 0
8 0.14 0.808545 0
9 0.16 0.8099569999999999 0
10 0.18 0.807385 0
11 0.2 0.8009299999999999 0
12 0.22 0.7908499999999999 0
13 0.24 0.777546 0
14 0.26 0.7615499999999999 0
15 0.28 0.7434989999999999 0
16 0.3 0.724112 0
17 0.32 0.704163 0
18 0.34 0.684446 0
19 0.36 0.665748 0
20 0.38 0.648814 0
21 0.4 0.63432 0
22 0.42 0.622842 0
23 0.44 0.6148399999999999 0
24 0.46 0.610631 0
25 0.48 0.610384 0
26 0.5 0.614108 0
27 0.52 0.621655 0
28 0.54 0.632724 0
29 0.5600000000000001 0.646873 0
30 0.58 0.66354 0
31 0.6 0.6820579999999999 0
32 0.62 0.701691 0
33 0.64 0.7216549999999999 0
34 0.66 0.741154 0
35 0.68 0.7594109999999999 0
36 0.7000000000000001 0.7756989999999999 0
37 0.72 0.7893669999999999 0
38 0.74 0.799871 0
39 0.76 0.806792 0
40 0.78 0.809854 0
41 0.8 0.808936 0
42 0.8200000000000001 0.8040729999999999 0
43 0.84 0.7954599999999999 0
44 0.86 0.7834399999999999 0
45 0.88 0.768492 0
46 0.9 0.751212 0
47 0.92 0.732289 0
48 0.9400000000000001 0.7124779999999999 0
49 0.96 0.692567 0
50 0.98 0.673352 0
51 1 0.655598 0
52 0 0.29 0
53 0.02 0.309867 0
54 0.04 0.3289420000000001 0
55 0.06 0.346464 0
56 0.08 0.3617360000000001 0
57 0.1 0.374147 0
58 0.12 0.383204 0
59 0.14 0.388545 0
60 0.16 0.389957 0
61 0.18 0.3873850000000001 0
62 0.2 0.38093 0
63 0.22 0.37085 0
64 0.24 0.357546 0
65 0.26 0.34155 0
66 0.28 0.323499 0
67 0.3 0.304112 0
68 0.32 0.2841630000000001 0
69 0.34 0.264446 0
70 0.36 0.245748 0
71 0.38 0.228814 0
72 0.4 0.21432 0
73 0.42 0.202842 0
74 0.44 0.19484 0
75 0.46 0.190631 0
76 0.48 0.190384 0
77 0.5 0.194108 0
78 0.52 0.201655 0
79 0.54 0.212724 0
80 0.5600000000000001 0.226873 0
81 0.58 0.24354 0
82 0.6 0.262058 0
83 0.62 0.281691 0
84 0.64 0.301655 0
85 0.66 0.3211540000000001 0
86 0.68 0.339411 0
87 0.7000000000000001 0.355699 0
88 0.72 0.369367 0
89 0.74 0.3798710000000001 0
90 0.76 0.386792 0
91 0.78 0.389854 0
92 0.8 0.3889360000000001 0
93 0.8200000000000001 0.384073 0
94 0.84 0.37546 0
95 0.86 0.36344 0
96 0.88 0.348492 0
97 0.9 0.3312120000000001 0
98 0.92 0.312289 0
99 0.9400000000000001 0.292478 0
100 0.96 0.272567 0
101 0.98 0.253352 0
102 1 0.235598 0
103 0 0 0
104 1 0 0
105 1 1 0
106 0 1 0
107 0.09261189210629886 0.7893981004487753 0
108 0.208941660120735 0.7962732587749808 0
109 0.3039593132587408 0.7201147588601262 0
110 0.3946910320489045 0.6383742419296692 0
111 0.509927992365514 0.6180075080220107 0
112 0.6078643083712679 0.6898228694743462 0
113 0.6972380391658773 0.7731692035180944 0
114 0.8103752790899335 0.8062527186499654 0
115 0.911661730749182 0.7401290696430349 0
116 0.09261189209825704 0.3693981004439748 0
117 0.2089416601121568 0.3762732587792049 0
118 0.3039593132512498 0.300114758867529 0
119 0.3946910320408373 0.218374241935222 0
120 0.5099279923573079 0.198007508018935 0
121 0.6078643083705103 0.2698228694736094 0
122 0.6972380391689715 0.3531692035204668 0
123 0.8103752790916663 0.38625271864954 0
124 0.9116617307487828 0.320129069643413 0
125 0.1249999999997731 0 0
126 0.2499999999994109 0 0
127 0.374999999999046 0 0
128 0.4999999999986918 0 0
129 0.6249999999990101 0 0
130 0.7499999999993401 0 0
131 0.87499999999967 0 0
132 1 0.117798999999693 0
133 1 0.3405979999997479 0
134 1 0.445597999999409 0
135 1 0.5505979999996775 0
136 1 0.7416984999998482 0
137 1 0.8277989999995881 0
138 1 0.9138994999997399 0
139 0.8749999999995017 1 0
140 0.7500000000003477 1 0
141 0.6250000000012155 1 0
142 0.5000000000020616 1 0
143 0.375000000001563 1 0
144 0.2500000000010419 1 0
145 0.125000000000521 1 0
146 0 0.8550000000003251 0
147 0 0.6050000000003686 0
148 0 0.500000000000737 0
149 0 0.3950000000003682 0
150 0 0.1450000000003145 0
151 0.3285679966483807 0.8382036822361134 0
152 0.6289165623951558 0.8730883436010137 0
153 0.8990719195122199 0.8708492112373197 0
154 0.7625186438918311 0.9034591616815331 0
155 0.1583117558475199 0.8910200395846745 0
156 0.468820651860924 0.8648728862564803 0
157 0.4862971868060598 0.7270327615919947 0
158 0.8403926175902178 0.9199560183097897 0
159 0.2323918737881364 0.8802521492355442 0
160 0.5428863053201979 0.782333252880641 0
161 0.06554675478535872 0.8797719180523481 0
162 0.3989067273968003 0.7779932921043716 0
163 0.9319869484017465 0.924211869807092 0
164 0.9368520937310667 0.7773429971327804 0
165 0.5261008339547224 0.9170120722604796 0
166 0.4947639958110069 0.4108054373980102 0
167 0.7681852659891922 0.5559754366660938 0
168 0.1566440435761837 0.5977493639437498 0
169 0.6445809576385738 0.5297826191172048 0
170 0.3305805860456809 0.5054200738214295 0
171 0.8806145252155713 0.4874984404508853 0
172 0.1140713579247389 0.6767217857859501 0
173 0.1138813312679138 0.4767916092808766 0
174 0.8958456955368798 0.6131239024614566 0
175 0.5869890118269336 0.4359231727877846 0
176 0.4246278335040771 0.490436431337667 0
177 0.4626400086657894 0.3322350790540451 0
178 0.7199426431223834 0.4707951080535175 0
179 0.7962232552633187 0.6604596589661467 0
180 0.2922120277219607 0.572991568356687 0
181 0.2325046268473444 0.6522801918093576 0
182 0.6767785204155109 0.5999877841184235 0
183 0.9324998815380933 0.3743123927029891 0
184 0.3647961168270879 0.3868615640355401 0
185 0.5308864153992036 0.5422172313917704 0
186 0.213279333271122 0.5223126204455885 0
187 0.09618473902229553 0.5619162800114536 0
188 0.592328694579677 0.5792869387275692 0
189 0.1839114981555113 0.7067616343356137 0
190 0.06891295141491463 0.4059767463926623 0
191 0.2810757163663666 0.4506662302452699 0
192 0.7247071126480741 0.6802696083512646 0
193 0.6745429671508744 0.4119153759954336 0
194 0.7830682845632648 0.1760993828103921 0
195 0.2062339823552383 0.1605497052755641 0
196 0.6568974000639394 0.162594286075233 0
197 0.3296033283680035 0.09530889855381949 0
198 0.4451154108283967 0.1045411469964211 0
199 0.8801652789123062 0.1932165305978143 0
200 0.1330914593568283 0.2042299610865719 0
201 0.5558359936529325 0.1249715478554949 0
202 0.7908711388690914 0.2663462853657352 0
203 0.7743438656275516 0.0895828669482619 0
204 0.201161844772152 0.264508618041986 0
205 0.1151918448191473 0.110308076687485 0
206 0.7208349451973245 0.2656890991587733 0
207 0.2790074912763965 0.1822327056690299 0
208 0.6902005210600023 0.08919499661618049 0
209 0.2226700652729878 0.09244809355286904 0
210 0.883895696343992 0.1003971749206601 0
211 0.862194096872827 0.2614206093223961 0
$EndNodes
$Elements
255
1 15 2 0 1 1
2 15 2 0 2 2
3 15 2 0 3 3
4 15 2 0 4 4
5 15 2 0 5 5
6 15 2 0 6 6
7 15 2 0 7 7
8 15 2 0 8 8
9 15 2 0 9 9
10 15 2 0 10 10
11 15 2 0 11 11
12 15 2 0 12 12
13 15 2 0 13 13
14 15 2 0 14 14
15 15 2 0 15 15
16 15 2 0 16 16
17 15 2 0 17 17
18 15 2 0 18 18
19 15 2 0 19 19
20 15 2 0 20 20
21 15 2 0 21 21
22 15 2 0 22 22
23 15 2 0 23 23
24 15 2 0 24 24
25 15 2 0 25 25
26 15 2 0 26 26
27 15 2 0 27 27
28 15 2 0 28 28
29 15 2 0 29 29
30 15 2 0 30 30
31 15 2 0 31 31
32 15 2 0 32 32
33 15 2 0 33 33
34 15 2 0 34 34
35 15 2 0 35 35
36 15 2 0 36 36
37 15 2 0 37 37
38 15 2 0 38 38
39 15 2 0 39 39
40 15 2 0 40 40
41 15 2 0 41 41
42 15 2 0 42 42
43 15 2 0 43 43
44 15 2 0 44 44
45 15 2 0 45 45
46 15 2 0 46 46
47 15 2 0 47 47
48 15 2 0 48 48
49 15 2 0 49 49
50 15 2 0 50 50
51 15 2 0 51 51
52 15 2 0 52 52
53 15 2 0 53 53
54 15 2 0 54 54
55 15 2 0 55 55
56 15 2 0 56 56
57 15 2 0 57 57
58 15 2 0 58 58
59 15 2 0 59 59
60 15 2 0 60 60
61 15 2 0 61 61
62 15 2 0 62 62
63 15 2 0 63 63
64 15 2 0 64 64
65 15 2 0 65 65
66 15 2 0 66 66
67 15 2 0 67 67
68 15 2 0 68 68
69 15 2 0 69 69
70 15 2 0 70 70
71 15 2 0 71 71
72 15 2 0 72 72
73 15 2 0 73 73
74 15 2 0 74 74
75 15 2 0 75 75
76 15 2 0 76 76
77 15 2 0 77 77
78 15 2 0 78 78
79 15 2 0 79 79
80 15 2 0 80 80
81 15 2 0 81 81
82 15 2 0 82 82
83 15 2 0 83 83
84 15 2 0 84 84
85 15 2 0 85 85
86 15 2 0 86 86
87 15 2 0 87 87
88 15 2 0 88 88
89 15 2 0 89 89
90 15 2 0 90 90
91 15 2 0 91 91
92 15 2 0 92 92
93 15 2 0 93 93
94 15 2 0 94 94
95 15 2 0 95 95
96 15 2 0 96 96
97 15 2 0 97 97
98 15 2 0 98 98
99 15 2 0 99 99
100 15 2 0 100 100
101 15 2 0 101 101
102 15 2 0 102 102
103 15 2 0 103 103
104 15 2 0 104 104
105 15 2 0 105 105
106 15 2 0 106 106
107 1 2 0 1 1 107
108 1 2 0 1 107 108
109 1 2 0 1 108 109
110 1 2 0 1 109 110
111 1 2 0 1 110 111
112 1 2 0 1 111 112
113 1 2 0 1 112 113
114 1 2 0 1 113 114
115 1 2 0 1 114 115
116 1 2 0 1 115 51
117 1 2 0 2 52 116
118 1 2 0 2 116 117
119 1 2 0 2 117 118
120 1 2 0 2 118 119
121 1 2 0 2 119 120
122 1 2 0 2 120 121
123 1 2 0 2 121 122
124 1 2 0 2 122 123
125 1 2 0 2 123 124
126 1 2 0 2 124 102
127 1 2 0 3 103 125
128 1 2 0 3 125 126
129 1 2 0 3 126 127
130 1 2 0 3 127 128
131 1 2 0 3 128 129
132 1 2 0 3 129 130
133 1 2 0 3 130 131
134 1 2 0 3 131 104
135 1 2 0 4 104 132
136 1 2 0 4 132 102
137 1 2 0 5 102 133
138 1 2 0 5 133 134
139 1 2 0 5 134 135
140 1 2 0 5 135 51
141 1 2 0 6 51 136
142 1 2 0 6 136 137
143 1 2 0 6 137 138
144 1 2 0 6 138 105
145 1 2 0 7 105 139
146 1 2 0 7 139 140
147 1 2 0 7 140 141
148 1 2 0 7 141 142
149 1 2 0 7 142 143
150 1 2 0 7 143 144
151 1 2 0 7 144 145
152 1 2 0 7 145 106
153 1 2 0 8 106 146
154 1 2 0 8 146 1
155 1 2 0 9 1 147
156 1 2 0 9 147 148
157 1 2 0 9 148 149
158 1 2 0 9 149 52
159 1 2 0 10 52 150
160 1 2 0 10 150 103
161 3 2 0 1 151 143 144 159
162 3 2 0 1 152 154 140 141
163 3 2 0 1 155 159 144 145
164 3 2 0 1 1 107 161 146
165 3 2 0 1 151 109 110 162
166 3 2 0 1 109 151 159 108
167 3 2 0 1 152 160 112 113
168 3 2 0 1 111 112 160 157
169 3 2 0 1 115 164 153 114
170 3 2 0 1 143 151 162 156
171 3 2 0 1 165 156 160 152
172 3 2 0 1 152 113 114 154
173 3 2 0 1 137 138 163 153
174 3 2 0 1 152 141 142 165
175 3 2 0 1 153 164 136 137
176 3 2 0 1 51 136 164 115
177 3 2 0 1 153 163 139 158
178 3 2 0 1 153 158 154 114
179 3 2 0 1 162 110 111 157
180 3 2 0 1 107 108 159 155
181 3 2 0 1 146 161 145 106
182 3 2 0 1 139 140 154 158
183 3 2 0 1 139 163 138 105
184 3 2 0 1 160 156 162 157
185 3 2 0 1 107 155 145 161
186 3 2 0 1 143 156 165 142
187 3 2 0 2 119 177 184 118
188 3 2 0 2 170 176 110 180
189 3 2 0 2 134 135 174 171
190 3 2 0 2 121 175 166 177
191 3 2 0 2 123 171 167 178
192 3 2 0 2 107 1 147 172
193 3 2 0 2 115 174 135 51
194 3 2 0 2 169 178 167 182
195 3 2 0 2 102 133 183 124
196 3 2 0 2 179 167 171 174
197 3 2 0 2 174 115 114 179
198 3 2 0 2 171 183 133 134
199 3 2 0 2 124 183 171 123
200 3 2 0 2 123 178 193 122
201 3 2 0 2 117 173 190 116
202 3 2 0 2 176 184 177 166
203 3 2 0 2 110 109 181 180
204 3 2 0 2 121 177 119 120
205 3 2 0 2 173 187 147 148
206 3 2 0 2 110 176 185 111
207 3 2 0 2 179 192 182 167
208 3 2 0 2 147 187 168 172
209 3 2 0 2 186 168 187 173
210 3 2 0 2 109 108 189 181
211 3 2 0 2 186 180 181 168
212 3 2 0 2 173 148 149 190
213 3 2 0 2 112 111 185 188
214 3 2 0 2 175 185 176 166
215 3 2 0 2 121 122 193 175
216 3 2 0 2 172 189 108 107
217 3 2 0 2 117 118 184 191
218 3 2 0 2 52 116 190 149
219 3 2 0 2 175 193 178 169
220 3 2 0 2 175 169 188 185
221 3 2 0 2 114 113 192 179
222 3 2 0 2 112 188 169 182
223 3 2 0 2 168 181 189 172
224 3 2 0 2 176 170 191 184
225 3 2 0 2 113 112 182 192
226 3 2 0 2 173 117 191 186
227 3 2 0 2 180 186 191 170
228 3 2 0 3 121 120 201 196
229 3 2 0 3 52 150 205 200
230 3 2 0 3 199 102 124 211
231 3 2 0 3 202 211 124 123
232 3 2 0 3 208 196 201 129
233 3 2 0 3 125 205 150 103
234 3 2 0 3 197 127 128 198
235 3 2 0 3 204 116 52 200
236 3 2 0 3 198 119 207 197
237 3 2 0 3 127 197 209 126
238 3 2 0 3 119 198 201 120
239 3 2 0 3 129 201 198 128
240 3 2 0 3 196 206 122 121
241 3 2 0 3 209 197 207 195
242 3 2 0 3 116 204 118 117
243 3 2 0 3 131 104 132 210
244 3 2 0 3 123 122 206 202
245 3 2 0 3 129 130 203 208
246 3 2 0 3 102 199 210 132
247 3 2 0 3 200 195 207 204
248 3 2 0 3 196 194 202 206
249 3 2 0 3 194 203 210 199
250 3 2 0 3 196 208 203 194
251 3 2 0 3 199 211 202 194
252 3 2 0 3 119 118 204 207
253 3 2 0 3 126 209 205 125
254 3 2 0 3 130 131 210 203
255 3 2 0 3 200 205 209 195
$EndElements
