$MeshFormat
4.1 0 8
$EndMeshFormat
$Entities
4 4 1 0
103 0 0 0 0 
104 1 0 0 0 
105 1 1 0 0 
106 0 1 0 0 
3 0 0 0 1 0 0 1 203 2 103 -104 
4 1 0 0 1 1 0 1 202 2 104 -105 
5 0 1 0 1 1 0 1 203 2 105 -106 
6 0 0 0 0 1 0 1 201 2 106 -103 
1 0 0 0 1 1 0 0 4 3 4 5 6 
$EndEntities
$Nodes
8 300 1 300
0 103 0 1
1
0 0 0
0 104 0 1
2
1 0 0
0 105 0 1
3
1 1 0
0 106 0 1
4
0 1 0
1 3 0 59
5
6
7
8
9
10
11
12
13
14
15
16
17
18
19
20
21
22
23
24
25
26
27
28
29
30
31
32
33
34
35
36
37
38
39
40
41
42
43
44
45
46
47
48
49
50
51
52
53
54
55
56
57
58
59
60
61
62
63
0.0166666666666352 0 0
0.03333333333326933 0 0
0.0499999999998994 0 0
0.0666666666665325 0 0
0.083333333333173 0 0
0.09999999999981414 0 0
0.1166666666664553 0 0
0.1333333333330848 0 0
0.1499999999997029 0 0
0.1666666666663209 0 0
0.1833333333329389 0 0
0.1999999999995569 0 0
0.216666666666175 0 0
0.2333333333327929 0 0
0.2499999999994109 0 0
0.266666666666029 0 0
0.283333333332647 0 0
0.299999999999265 0 0
0.316666666665883 0 0
0.3333333333325011 0 0
0.3499999999991191 0 0
0.3666666666657371 0 0
0.3833333333323551 0 0
0.3999999999989731 0 0
0.4166666666655911 0 0
0.4333333333322092 0 0
0.4499999999988272 0 0
0.4666666666654452 0 0
0.4833333333320632 0 0
0.4999999999986921 0 0
0.5166666666653918 0 0
0.5333333333321025 0 0
0.5499999999988131 0 0
0.5666666666655237 0 0
0.5833333333322344 0 0
0.599999999998945 0 0
0.6166666666656556 0 0
0.6333333333323662 0 0
0.6499999999990769 0 0
0.6666666666657876 0 0
0.6833333333324981 0 0
0.6999999999992088 0 0
0.7166666666659194 0 0
0.73333333333263 0 0
0.7499999999993406 0 0
0.7666666666660513 0 0
0.7833333333327619 0 0
0.7999999999994725 0 0
0.8166666666661831 0 0
0.8333333333328937 0 0
0.8499999999996044 0 0
0.8666666666663151 0 0
0.8833333333330255 0 0
0.8999999999997362 0 0
0.9166666666664469 0 0
0.9333333333331575 0 0
0.9499999999998682 0 0
0.9666666666665787 0 0
0.9833333333332894 0 0
1 4 0 89
64
65
66
67
68
69
70
71
72
73
74
75
76
77
78
79
80
81
82
83
84
85
86
87
88
89
90
91
92
93
94
95
96
97
98
99
100
101
102
103
104
105
106
107
108
109
110
111
112
113
114
115
116
117
118
119
120
121
122
123
124
125
126
127
128
129
130
131
132
133
134
135
136
137
138
139
140
141
142
143
144
145
146
147
148
149
150
151
152
1 0.01111111111109007 0
1 0.02222222222218031 0
1 0.03333333333326933 0
1 0.0444444444443562 0
1 0.05555555555544273 0
1 0.0666666666665325 0
1 0.07777777777762594 0
1 0.08888888888872004 0
1 0.09999999999981413 0
1 0.1111111111109082 0
1 0.1222222222220006 0
1 0.1333333333330848 0
1 0.1444444444441635 0
1 0.1555555555552422 0
1 0.1666666666663209 0
1 0.1777777777773995 0
1 0.1888888888884782 0
1 0.1999999999995569 0
1 0.2111111111106356 0
1 0.2222222222217143 0
1 0.2333333333327929 0
1 0.2444444444438716 0
1 0.2555555555549502 0
1 0.266666666666029 0
1 0.2777777777771076 0
1 0.2888888888881863 0
1 0.299999999999265 0
1 0.3111111111103437 0
1 0.3222222222214223 0
1 0.333333333332501 0
1 0.3444444444435797 0
1 0.3555555555546583 0
1 0.3666666666657371 0
1 0.3777777777768157 0
1 0.3888888888878944 0
1 0.3999999999989731 0
1 0.4111111111100518 0
1 0.4222222222211304 0
1 0.4333333333322091 0
1 0.4444444444432878 0
1 0.4555555555543664 0
1 0.4666666666654452 0
1 0.4777777777765238 0
1 0.4888888888876025 0
1 0.499999999998692 0
1 0.5111111111098217 0
1 0.522222222220962 0
1 0.5333333333321025 0
1 0.5444444444432428 0
1 0.5555555555543833 0
1 0.5666666666655237 0
1 0.5777777777766642 0
1 0.5888888888878044 0
1 0.5999999999989449 0
1 0.6111111111100853 0
1 0.6222222222212258 0
1 0.6333333333323662 0
1 0.6444444444435066 0
1 0.655555555554647 0
1 0.6666666666657874 0
1 0.6777777777769279 0
1 0.6888888888880682 0
1 0.6999999999992087 0
1 0.7111111111103491 0
1 0.7222222222214896 0
1 0.73333333333263 0
1 0.7444444444437703 0
1 0.7555555555549107 0
1 0.7666666666660512 0
1 0.7777777777771916 0
1 0.788888888888332 0
1 0.7999999999994724 0
1 0.8111111111106128 0
1 0.8222222222217532 0
1 0.8333333333328937 0
1 0.8444444444440341 0
1 0.8555555555551745 0
1 0.866666666666315 0
1 0.8777777777774554 0
1 0.8888888888885957 0
1 0.8999999999997361 0
1 0.9111111111108766 0
1 0.922222222222017 0
1 0.9333333333331575 0
1 0.9444444444442978 0
1 0.9555555555554383 0
1 0.9666666666665786 0
1 0.9777777777777191 0
1 0.9888888888888595 0
1 5 0 59
153
154
155
156
157
158
159
160
161
162
163
164
165
166
167
168
169
170
171
172
173
174
175
176
177
178
179
180
181
182
183
184
185
186
187
188
189
190
191
192
193
194
195
196
197
198
199
200
201
202
203
204
205
206
207
208
209
210
211
0.9833333333332639 1 0
0.9666666666665279 1 0
0.9499999999997918 1 0
0.9333333333330558 1 0
0.9166666666663197 1 0
0.8999999999995836 1 0
0.8833333333328475 1 0
0.866666666666204 1 0
0.849999999999653 1 0
0.833333333333102 1 0
0.816666666666551 1 0
0.8 1 0
0.783333333333449 1 0
0.766666666666898 1 0
0.7500000000003469 1 0
0.7333333333337959 1 0
0.7166666666672448 1 0
0.7000000000006938 1 0
0.6833333333341427 1 0
0.6666666666675918 1 0
0.6500000000010406 1 0
0.6333333333344895 1 0
0.6166666666679386 1 0
0.6000000000013874 1 0
0.5833333333348363 1 0
0.5666666666682854 1 0
0.5500000000017342 1 0
0.5333333333351832 1 0
0.5166666666686321 1 0
0.5000000000020595 1 0
0.483333333335345 1 0
0.466666666668609 1 0
0.450000000001873 1 0
0.4333333333351369 1 0
0.4166666666684009 1 0
0.4000000000016649 1 0
0.3833333333349288 1 0
0.3666666666681927 1 0
0.3500000000014567 1 0
0.3333333333347207 1 0
0.3166666666679846 1 0
0.3000000000012486 1 0
0.2833333333345126 1 0
0.2666666666677765 1 0
0.2500000000010405 1 0
0.2333333333343045 1 0
0.2166666666675684 1 0
0.2000000000008324 1 0
0.1833333333340964 1 0
0.1666666666673603 1 0
0.1500000000006243 1 0
0.1333333333338883 1 0
0.1166666666671521 1 0
0.1000000000004161 1 0
0.08333333333368009 1 0
0.06666666666694399 1 0
0.05000000000020799 1 0
0.03333333333347199 1 0
0.016666666666736 1 0
1 6 0 89
212
213
214
215
216
217
218
219
220
221
222
223
224
225
226
227
228
229
230
231
232
233
234
235
236
237
238
239
240
241
242
243
244
245
246
247
248
249
250
251
252
253
254
255
256
257
258
259
260
261
262
263
264
265
266
267
268
269
270
271
272
273
274
275
276
277
278
279
280
281
282
283
284
285
286
287
288
289
290
291
292
293
294
295
296
297
298
299
300
0 0.9888888888888426 0
0 0.9777777777776853 0
0 0.9666666666665279 0
0 0.9555555555553705 0
0 0.9444444444442132 0
0 0.9333333333330558 0
0 0.9222222222218983 0
0 0.9111111111107409 0
0 0.8999999999995836 0
0 0.8888888888884262 0
0 0.8777777777772828 0
0 0.866666666666204 0
0 0.8555555555551699 0
0 0.844444444444136 0
0 0.833333333333102 0
0 0.822222222222068 0
0 0.811111111111034 0
0 0.8 0
0 0.788888888888966 0
0 0.777777777777932 0
0 0.766666666666898 0
0 0.755555555555864 0
0 0.7444444444448299 0
0 0.7333333333337959 0
0 0.7222222222227619 0
0 0.7111111111117279 0
0 0.7000000000006938 0
0 0.6888888888896598 0
0 0.6777777777786258 0
0 0.6666666666675918 0
0 0.6555555555565576 0
0 0.6444444444455236 0
0 0.6333333333344896 0
0 0.6222222222234555 0
0 0.6111111111124214 0
0 0.6000000000013874 0
0 0.5888888888903534 0
0 0.5777777777793194 0
0 0.5666666666682854 0
0 0.5555555555572513 0
0 0.5444444444462173 0
0 0.5333333333351833 0
0 0.5222222222241493 0
0 0.5111111111131151 0
0 0.5000000000020595 0
0 0.4888888888909237 0
0 0.4777777777797664 0
0 0.466666666668609 0
0 0.4555555555574516 0
0 0.4444444444462943 0
0 0.433333333335137 0
0 0.4222222222239795 0
0 0.4111111111128222 0
0 0.4000000000016649 0
0 0.3888888888905075 0
0 0.3777777777793502 0
0 0.3666666666681927 0
0 0.3555555555570354 0
0 0.3444444444458781 0
0 0.3333333333347207 0
0 0.3222222222235634 0
0 0.311111111112406 0
0 0.3000000000012486 0
0 0.2888888888900912 0
0 0.277777777778934 0
0 0.2666666666677766 0
0 0.2555555555566191 0
0 0.2444444444454619 0
0 0.2333333333343045 0
0 0.2222222222231471 0
0 0.2111111111119899 0
0 0.2000000000008324 0
0 0.188888888889675 0
0 0.1777777777785177 0
0 0.1666666666673604 0
0 0.155555555556203 0
0 0.1444444444450456 0
0 0.1333333333338883 0
0 0.1222222222227309 0
0 0.1111111111115736 0
0 0.1000000000004162 0
0 0.08888888888925883 0
0 0.07777777777810146 0
0 0.0666666666669441 0
0 0.05555555555578684 0
0 0.04444444444462947 0
0 0.03333333333347199 0
0 0.02222222222231462 0
0 0.01111111111115737 0
$EndNodes
$Elements
4 300 1 300
1 3 1 60
1 1 5 
2 5 6 
3 6 7 
4 7 8 
5 8 9 
6 9 10 
7 10 11 
8 11 12 
9 12 13 
10 13 14 
11 14 15 
12 15 16 
13 16 17 
14 17 18 
15 18 19 
16 19 20 
17 20 21 
18 21 22 
19 22 23 
20 23 24 
21 24 25 
22 25 26 
23 26 27 
24 27 28 
25 28 29 
26 29 30 
27 30 31 
28 31 32 
29 32 33 
30 33 34 
31 34 35 
32 35 36 
33 36 37 
34 37 38 
35 38 39 
36 39 40 
37 40 41 
38 41 42 
39 42 43 
40 43 44 
41 44 45 
42 45 46 
43 46 47 
44 47 48 
45 48 49 
46 49 50 
47 50 51 
48 51 52 
49 52 53 
50 53 54 
51 54 55 
52 55 56 
53 56 57 
54 57 58 
55 58 59 
56 59 60 
57 60 61 
58 61 62 
59 62 63 
60 63 2 
1 4 1 90
61 2 64 
62 64 65 
63 65 66 
64 66 67 
65 67 68 
66 68 69 
67 69 70 
68 70 71 
69 71 72 
70 72 73 
71 73 74 
72 74 75 
73 75 76 
74 76 77 
75 77 78 
76 78 79 
77 79 80 
78 80 81 
79 81 82 
80 82 83 
81 83 84 
82 84 85 
83 85 86 
84 86 87 
85 87 88 
86 88 89 
87 89 90 
88 90 91 
89 91 92 
90 92 93 
91 93 94 
92 94 95 
93 95 96 
94 96 97 
95 97 98 
96 98 99 
97 99 100 
98 100 101 
99 101 102 
100 102 103 
101 103 104 
102 104 105 
103 105 106 
104 106 107 
105 107 108 
106 108 109 
107 109 110 
108 110 111 
109 111 112 
110 112 113 
111 113 114 
112 114 115 
113 115 116 
114 116 117 
115 117 118 
116 118 119 
117 119 120 
118 120 121 
119 121 122 
120 122 123 
121 123 124 
122 124 125 
123 125 126 
124 126 127 
125 127 128 
126 128 129 
127 129 130 
128 130 131 
129 131 132 
130 132 133 
131 133 134 
132 134 135 
133 135 136 
134 136 137 
135 137 138 
136 138 139 
137 139 140 
138 140 141 
139 141 142 
140 142 143 
141 143 144 
142 144 145 
143 145 146 
144 146 147 
145 147 148 
146 148 149 
147 149 150 
148 150 151 
149 151 152 
150 152 3 
1 5 1 60
151 3 153 
152 153 154 
153 154 155 
154 155 156 
155 156 157 
156 157 158 
157 158 159 
158 159 160 
159 160 161 
160 161 162 
161 162 163 
162 163 164 
163 164 165 
164 165 166 
165 166 167 
166 167 168 
167 168 169 
168 169 170 
169 170 171 
170 171 172 
171 172 173 
172 173 174 
173 174 175 
174 175 176 
175 176 177 
176 177 178 
177 178 179 
178 179 180 
179 180 181 
180 181 182 
181 182 183 
182 183 184 
183 184 185 
184 185 186 
185 186 187 
186 187 188 
187 188 189 
188 189 190 
189 190 191 
190 191 192 
191 192 193 
192 193 194 
193 194 195 
194 195 196 
195 196 197 
196 197 198 
197 198 199 
198 199 200 
199 200 201 
200 201 202 
201 202 203 
202 203 204 
203 204 205 
204 205 206 
205 206 207 
206 207 208 
207 208 209 
208 209 210 
209 210 211 
210 211 4 
1 6 1 90
211 4 212 
212 212 213 
213 213 214 
214 214 215 
215 215 216 
216 216 217 
217 217 218 
218 218 219 
219 219 220 
220 220 221 
221 221 222 
222 222 223 
223 223 224 
224 224 225 
225 225 226 
226 226 227 
227 227 228 
228 228 229 
229 229 230 
230 230 231 
231 231 232 
232 232 233 
233 233 234 
234 234 235 
235 235 236 
236 236 237 
237 237 238 
238 238 239 
239 239 240 
240 240 241 
241 241 242 
242 242 243 
243 243 244 
244 244 245 
245 245 246 
246 246 247 
247 247 248 
248 248 249 
249 249 250 
250 250 251 
251 251 252 
252 252 253 
253 253 254 
254 254 255 
255 255 256 
256 256 257 
257 257 258 
258 258 259 
259 259 260 
260 260 261 
261 261 262 
262 262 263 
263 263 264 
264 264 265 
265 265 266 
266 266 267 
267 267 268 
268 268 269 
269 269 270 
270 270 271 
271 271 272 
272 272 273 
273 273 274 
274 274 275 
275 275 276 
276 276 277 
277 277 278 
278 278 279 
279 279 280 
280 280 281 
281 281 282 
282 282 283 
283 283 284 
284 284 285 
285 285 286 
286 286 287 
287 287 288 
288 288 289 
289 289 290 
290 290 291 
291 291 292 
292 292 293 
293 293 294 
294 294 295 
295 295 296 
296 296 297 
297 297 298 
298 298 299 
299 299 300 
300 300 1 
$EndElements
