$MeshFormat
2.2 0 8
$EndMeshFormat
$Nodes
30
1 0 0 0
2 0.25 0 0
3 0.5 0 0
4 0.75 0 0
5 1 0 0
6 1 0.25 0
7 1 0.5 0
8 1 0.75 0
9 1 1 0
10 0.75 1 0
11 0.5 1 0
12 0.25 1 0
13 0 1 0
14 0 0.75 0
15 0 0.5 0
16 0 0.25 0
17 0.3333333333337724 0.1666666666662277 0
18 0.1666666666672331 0.3333333333327669 0
19 0.500000000000739 0.2499999999992611 0
20 0.2500000000008303 0.4999999999991697 0
21 0.7500000000010018 0.4999999999989982 0
22 0.5000000000005032 0.7499999999994968 0
23 0.8333333333333333 0.6666666666666667 0
24 0.6666666666666666 0.8333333333333334 0
25 0.1736192017927008 0.1736192017924384 0
26 0.2916345168104146 0.7083654831896151 0
27 0.7481927690841589 0.2518072309158418 0
28 0.5000000065499488 0.4999999934503142 0
29 0.2019863469426461 0.7980136530573603 0
30 0.8263808143779096 0.8263808143779096 0
$EndNodes
$Elements
66
1 15 2 0 1 1
2 15 2 0 2 2
3 15 2 0 3 3
4 15 2 0 4 4
5 15 2 0 5 5
6 15 2 0 6 6
7 15 2 0 7 7
8 15 2 0 8 8
9 15 2 0 9 9
10 15 2 0 10 10
11 15 2 0 11 11
12 15 2 0 12 12
13 15 2 0 13 13
14 15 2 0 14 14
15 15 2 0 15 15
16 15 2 0 16 16
17 1 2 0 1 1 2
18 1 2 0 2 2 3
19 1 2 0 3 3 4
20 1 2 0 4 4 5
21 1 2 0 5 5 6
22 1 2 0 6 6 7
23 1 2 0 7 7 8
24 1 2 0 8 8 9
25 1 2 0 9 9 10
26 1 2 0 10 10 11
27 1 2 0 11 11 12
28 1 2 0 12 12 13
29 1 2 0 13 13 14
30 1 2 0 14 14 15
31 1 2 0 15 15 16
32 1 2 0 16 16 1
33 1 2 0 18 3 17
34 1 2 0 18 17 18
35 1 2 0 18 18 15
36 1 2 0 19 4 19
37 1 2 0 19 19 20
38 1 2 0 19 20 14
39 1 2 0 20 6 21
40 1 2 0 20 21 22
41 1 2 0 20 22 12
42 1 2 0 21 7 23
43 1 2 0 21 23 24
44 1 2 0 21 24 11
45 2 2 0 1 17 18 25
46 2 2 0 5 24 23 30
47 3 2 0 1 17 25 2 3
48 3 2 0 1 16 25 18 15
49 3 2 0 1 25 16 1 2
50 3 2 0 2 17 3 4 19
51 3 2 0 2 18 20 14 15
52 3 2 0 2 18 17 19 20
53 3 2 0 3 5 27 19 4
54 3 2 0 3 5 6 21 27
55 3 2 0 3 27 21 22 28
56 3 2 0 3 27 28 20 19
57 3 2 0 3 26 20 28 22
58 3 2 0 3 12 13 14 29
59 3 2 0 3 22 12 29 26
60 3 2 0 3 20 26 29 14
61 3 2 0 4 23 21 6 7
62 3 2 0 4 24 11 12 22
63 3 2 0 4 21 23 24 22
64 3 2 0 5 8 30 23 7
65 3 2 0 5 24 30 10 11
66 3 2 0 5 9 10 30 8
$EndElements
