$MeshFormat
2.2 0 8
$EndMeshFormat
$Nodes
16
1 0 0 0
2 10 0 0
3 10 10 0
4 0 10 0
5 3.333333333326263 0 0
6 6.6666666666616 0 0
7 10 3.333333333326263 0
8 10 6.6666666666616 0
9 6.666666666666663 10 0
10 3.333333333333331 10 0
11 0 6.666666666666663 0
12 0 3.333333333333331 0
13 3.333333333328619 3.333333333330975 0
14 3.333333333330975 6.666666666664975 0
15 6.666666666663286 3.333333333328619 0
16 6.666666666664975 6.666666666663287 0
$EndNodes
$Elements
25
1 15 2 0 1 1
2 15 2 0 2 2
3 15 2 0 3 3
4 15 2 0 4 4
5 1 2 0 1 1 5
6 1 2 0 1 5 6
7 1 2 0 1 6 2
8 1 2 0 2 2 7
9 1 2 0 2 7 8
10 1 2 0 2 8 3
11 1 2 0 3 3 9
12 1 2 0 3 9 10
13 1 2 0 3 10 4
14 1 2 0 4 4 11
15 1 2 0 4 11 12
16 1 2 0 4 12 1
17 3 2 0 6 1 5 13 12
18 3 2 0 6 12 13 14 11
19 3 2 0 6 11 14 10 4
20 3 2 0 6 5 6 15 13
21 3 2 0 6 13 15 16 14
22 3 2 0 6 14 16 9 10
23 3 2 0 6 6 2 7 15
24 3 2 0 6 15 7 8 16
25 3 2 0 6 16 8 3 9
$EndElements
