$MeshFormat
2.0 0 8
$EndMeshFormat
$Nodes
676
1 0 0 0
2 24.384 0 0
3 48.768 0 0
4 73.152 0 0
5 97.536 0 0
6 121.92 0 0
7 146.304 0 0
8 170.688 0 0
9 195.072 0 0
10 219.456 0 0
11 243.84 0 0
12 268.224 0 0
13 292.608 0 0
14 316.992 0 0
15 341.376 0 0
16 365.76 0 0
17 390.144 0 0
18 414.528 0 0
19 438.912 0 0
20 463.296 0 0
21 487.68 0 0
22 512.064 0 0
23 536.448 0 0
24 560.832 0 0
25 585.216 0 0
26 609.6 0 0
27 0 24.384 0
28 24.384 24.384 0
29 48.768 24.384 0
30 73.152 24.384 0
31 97.536 24.384 0
32 121.92 24.384 0
33 146.304 24.384 0
34 170.688 24.384 0
35 195.072 24.384 0
36 219.456 24.384 0
37 243.84 24.384 0
38 268.224 24.384 0
39 292.608 24.384 0
40 316.992 24.384 0
41 341.376 24.384 0
42 365.76 24.384 0
43 390.144 24.384 0
44 414.528 24.384 0
45 438.912 24.384 0
46 463.296 24.384 0
47 487.68 24.384 0
48 512.064 24.384 0
49 536.448 24.384 0
50 560.832 24.384 0
51 585.216 24.384 0
52 609.6 24.384 0
53 0 48.768 0
54 24.384 48.768 0
55 48.768 48.768 0
56 73.152 48.768 0
57 97.536 48.768 0
58 121.92 48.768 0
59 146.304 48.768 0
60 170.688 48.768 0
61 195.072 48.768 0
62 219.456 48.768 0
63 243.84 48.768 0
64 268.224 48.768 0
65 292.608 48.768 0
66 316.992 48.768 0
67 341.376 48.768 0
68 365.76 48.768 0
69 390.144 48.768 0
70 414.528 48.768 0
71 438.912 48.768 0
72 463.296 48.768 0
73 487.68 48.768 0
74 512.064 48.768 0
75 536.448 48.768 0
76 560.832 48.768 0
77 585.216 48.768 0
78 609.6 48.768 0
79 0 73.152 0
80 24.384 73.152 0
81 48.768 73.152 0
82 73.152 73.152 0
83 97.536 73.152 0
84 121.92 73.152 0
85 146.304 73.152 0
86 170.688 73.152 0
87 195.072 73.152 0
88 219.456 73.152 0
89 243.84 73.152 0
90 268.224 73.152 0
91 292.608 73.152 0
92 316.992 73.152 0
93 341.376 73.152 0
94 365.76 73.152 0
95 390.144 73.152 0
96 414.528 73.152 0
97 438.912 73.152 0
98 463.296 73.152 0
99 487.68 73.152 0
100 512.064 73.152 0
101 536.448 73.152 0
102 560.832 73.152 0
103 585.216 73.152 0
104 609.6 73.152 0
105 0 97.536 0
106 24.384 97.536 0
107 48.768 97.536 0
108 73.152 97.536 0
109 97.536 97.536 0
110 121.92 97.536 0
111 146.304 97.536 0
112 170.688 97.536 0
113 195.072 97.536 0
114 219.456 97.536 0
115 243.84 97.536 0
116 268.224 97.536 0
117 292.608 97.536 0
118 316.992 97.536 0
119 341.376 97.536 0
120 365.76 97.536 0
121 390.144 97.536 0
122 414.528 97.536 0
123 438.912 97.536 0
124 463.296 97.536 0
125 487.68 97.536 0
126 512.064 97.536 0
127 536.448 97.536 0
128 560.832 97.536 0
129 585.216 97.536 0
130 609.6 97.536 0
131 0 121.92 0
132 24.384 121.92 0
133 48.768 121.92 0
134 73.152 121.92 0
135 97.536 121.92 0
136 121.92 121.92 0
137 146.304 121.92 0
138 170.688 121.92 0
139 195.072 121.92 0
140 219.456 121.92 0
141 243.84 121.92 0
142 268.224 121.92 0
143 292.608 121.92 0
144 316.992 121.92 0
145 341.376 121.92 0
146 365.76 121.92 0
147 390.144 121.92 0
148 414.528 121.92 0
149 438.912 121.92 0
150 463.296 121.92 0
151 487.68 121.92 0
152 512.064 121.92 0
153 536.448 121.92 0
154 560.832 121.92 0
155 585.216 121.92 0
156 609.6 121.92 0
157 0 146.304 0
158 24.384 146.304 0
159 48.768 146.304 0
160 73.152 146.304 0
161 97.536 146.304 0
162 121.92 146.304 0
163 146.304 146.304 0
164 170.688 146.304 0
165 195.072 146.304 0
166 219.456 146.304 0
167 243.84 146.304 0
168 268.224 146.304 0
169 292.608 146.304 0
170 316.992 146.304 0
171 341.376 146.304 0
172 365.76 146.304 0
173 390.144 146.304 0
174 414.528 146.304 0
175 438.912 146.304 0
176 463.296 146.304 0
177 487.68 146.304 0
178 512.064 146.304 0
179 536.448 146.304 0
180 560.832 146.304 0
181 585.216 146.304 0
182 609.6 146.304 0
183 0 170.688 0
184 24.384 170.688 0
185 48.768 170.688 0
186 73.152 170.688 0
187 97.536 170.688 0
188 121.92 170.688 0
189 146.304 170.688 0
190 170.688 170.688 0
191 195.072 170.688 0
192 219.456 170.688 0
193 243.84 170.688 0
194 268.224 170.688 0
195 292.608 170.688 0
196 316.992 170.688 0
197 341.376 170.688 0
198 365.76 170.688 0
199 390.144 170.688 0
200 414.528 170.688 0
201 438.912 170.688 0
202 463.296 170.688 0
203 487.68 170.688 0
204 512.064 170.688 0
205 536.448 170.688 0
206 560.832 170.688 0
207 585.216 170.688 0
208 609.6 170.688 0
209 0 195.072 0
210 24.384 195.072 0
211 48.768 195.072 0
212 73.152 195.072 0
213 97.536 195.072 0
214 121.92 195.072 0
215 146.304 195.072 0
216 170.688 195.072 0
217 195.072 195.072 0
218 219.456 195.072 0
219 243.84 195.072 0
220 268.224 195.072 0
221 292.608 195.072 0
222 316.992 195.072 0
223 341.376 195.072 0
224 365.76 195.072 0
225 390.144 195.072 0
226 414.528 195.072 0
227 438.912 195.072 0
228 463.296 195.072 0
229 487.68 195.072 0
230 512.064 195.072 0
231 536.448 195.072 0
232 560.832 195.072 0
233 585.216 195.072 0
234 609.6 195.072 0
235 0 219.456 0
236 24.384 219.456 0
237 48.768 219.456 0
238 73.152 219.456 0
239 97.536 219.456 0
240 121.92 219.456 0
241 146.304 219.456 0
242 170.688 219.456 0
243 195.072 219.456 0
244 219.456 219.456 0
245 243.84 219.456 0
246 268.224 219.456 0
247 292.608 219.456 0
248 316.992 219.456 0
249 341.376 219.456 0
250 365.76 219.456 0
251 390.144 219.456 0
252 414.528 219.456 0
253 438.912 219.456 0
254 463.296 219.456 0
255 487.68 219.456 0
256 512.064 219.456 0
257 536.448 219.456 0
258 560.832 219.456 0
259 585.216 219.456 0
260 609.6 219.456 0
261 0 243.84 0
262 24.384 243.84 0
263 48.768 243.84 0
264 73.152 243.84 0
265 97.536 243.84 0
266 121.92 243.84 0
267 146.304 243.84 0
268 170.688 243.84 0
269 195.072 243.84 0
270 219.456 243.84 0
271 243.84 243.84 0
272 268.224 243.84 0
273 292.608 243.84 0
274 316.992 243.84 0
275 341.376 243.84 0
276 365.76 243.84 0
277 390.144 243.84 0
278 414.528 243.84 0
279 438.912 243.84 0
280 463.296 243.84 0
281 487.68 243.84 0
282 512.064 243.84 0
283 536.448 243.84 0
284 560.832 243.84 0
285 585.216 243.84 0
286 609.6 243.84 0
287 0 268.224 0
288 24.384 268.224 0
289 48.768 268.224 0
290 73.152 268.224 0
291 97.536 268.224 0
292 121.92 268.224 0
293 146.304 268.224 0
294 170.688 268.224 0
295 195.072 268.224 0
296 219.456 268.224 0
297 243.84 268.224 0
298 268.224 268.224 0
299 292.608 268.224 0
300 316.992 268.224 0
301 341.376 268.224 0
302 365.76 268.224 0
303 390.144 268.224 0
304 414.528 268.224 0
305 438.912 268.224 0
306 463.296 268.224 0
307 487.68 268.224 0
308 512.064 268.224 0
309 536.448 268.224 0
310 560.832 268.224 0
311 585.216 268.224 0
312 609.6 268.224 0
313 0 292.608 0
314 24.384 292.608 0
315 48.768 292.608 0
316 73.152 292.608 0
317 97.536 292.608 0
318 121.92 292.608 0
319 146.304 292.608 0
320 170.688 292.608 0
321 195.072 292.608 0
322 219.456 292.608 0
323 243.84 292.608 0
324 268.224 292.608 0
325 292.608 292.608 0
326 316.992 292.608 0
327 341.376 292.608 0
328 365.76 292.608 0
329 390.144 292.608 0
330 414.528 292.608 0
331 438.912 292.608 0
332 463.296 292.608 0
333 487.68 292.608 0
334 512.064 292.608 0
335 536.448 292.608 0
336 560.832 292.608 0
337 585.216 292.608 0
338 609.6 292.608 0
339 0 316.992 0
340 24.384 316.992 0
341 48.768 316.992 0
342 73.152 316.992 0
343 97.536 316.992 0
344 121.92 316.992 0
345 146.304 316.992 0
346 170.688 316.992 0
347 195.072 316.992 0
348 219.456 316.992 0
349 243.84 316.992 0
350 268.224 316.992 0
351 292.608 316.992 0
352 316.992 316.992 0
353 341.376 316.992 0
354 365.76 316.992 0
355 390.144 316.992 0
356 414.528 316.992 0
357 438.912 316.992 0
358 463.296 316.992 0
359 487.68 316.992 0
360 512.064 316.992 0
361 536.448 316.992 0
362 560.832 316.992 0
363 585.216 316.992 0
364 609.6 316.992 0
365 0 341.376 0
366 24.384 341.376 0
367 48.768 341.376 0
368 73.152 341.376 0
369 97.536 341.376 0
370 121.92 341.376 0
371 146.304 341.376 0
372 170.688 341.376 0
373 195.072 341.376 0
374 219.456 341.376 0
375 243.84 341.376 0
376 268.224 341.376 0
377 292.608 341.376 0
378 316.992 341.376 0
379 341.376 341.376 0
380 365.76 341.376 0
381 390.144 341.376 0
382 414.528 341.376 0
383 438.912 341.376 0
384 463.296 341.376 0
385 487.68 341.376 0
386 512.064 341.376 0
387 536.448 341.376 0
388 560.832 341.376 0
389 585.216 341.376 0
390 609.6 341.376 0
391 0 365.76 0
392 24.384 365.76 0
393 48.768 365.76 0
394 73.152 365.76 0
395 97.536 365.76 0
396 121.92 365.76 0
397 146.304 365.76 0
398 170.688 365.76 0
399 195.072 365.76 0
400 219.456 365.76 0
401 243.84 365.76 0
402 268.224 365.76 0
403 292.608 365.76 0
404 316.992 365.76 0
405 341.376 365.76 0
406 365.76 365.76 0
407 390.144 365.76 0
408 414.528 365.76 0
409 438.912 365.76 0
410 463.296 365.76 0
411 487.68 365.76 0
412 512.064 365.76 0
413 536.448 365.76 0
414 560.832 365.76 0
415 585.216 365.76 0
416 609.6 365.76 0
417 0 390.144 0
418 24.384 390.144 0
419 48.768 390.144 0
420 73.152 390.144 0
421 97.536 390.144 0
422 121.92 390.144 0
423 146.304 390.144 0
424 170.688 390.144 0
425 195.072 390.144 0
426 219.456 390.144 0
427 243.84 390.144 0
428 268.224 390.144 0
429 292.608 390.144 0
430 316.992 390.144 0
431 341.376 390.144 0
432 365.76 390.144 0
433 390.144 390.144 0
434 414.528 390.144 0
435 438.912 390.144 0
436 463.296 390.144 0
437 487.68 390.144 0
438 512.064 390.144 0
439 536.448 390.144 0
440 560.832 390.144 0
441 585.216 390.144 0
442 609.6 390.144 0
443 0 414.528 0
444 24.384 414.528 0
445 48.768 414.528 0
446 73.152 414.528 0
447 97.536 414.528 0
448 121.92 414.528 0
449 146.304 414.528 0
450 170.688 414.528 0
451 195.072 414.528 0
452 219.456 414.528 0
453 243.84 414.528 0
454 268.224 414.528 0
455 292.608 414.528 0
456 316.992 414.528 0
457 341.376 414.528 0
458 365.76 414.528 0
459 390.144 414.528 0
460 414.528 414.528 0
461 438.912 414.528 0
462 463.296 414.528 0
463 487.68 414.528 0
464 512.064 414.528 0
465 536.448 414.528 0
466 560.832 414.528 0
467 585.216 414.528 0
468 609.6 414.528 0
469 0 438.912 0
470 24.384 438.912 0
471 48.768 438.912 0
472 73.152 438.912 0
473 97.536 438.912 0
474 121.92 438.912 0
475 146.304 438.912 0
476 170.688 438.912 0
477 195.072 438.912 0
478 219.456 438.912 0
479 243.84 438.912 0
480 268.224 438.912 0
481 292.608 438.912 0
482 316.992 438.912 0
483 341.376 438.912 0
484 365.76 438.912 0
485 390.144 438.912 0
486 414.528 438.912 0
487 438.912 438.912 0
488 463.296 438.912 0
489 487.68 438.912 0
490 512.064 438.912 0
491 536.448 438.912 0
492 560.832 438.912 0
493 585.216 438.912 0
494 609.6 438.912 0
495 0 463.296 0
496 24.384 463.296 0
497 48.768 463.296 0
498 73.152 463.296 0
499 97.536 463.296 0
500 121.92 463.296 0
501 146.304 463.296 0
502 170.688 463.296 0
503 195.072 463.296 0
504 219.456 463.296 0
505 243.84 463.296 0
506 268.224 463.296 0
507 292.608 463.296 0
508 316.992 463.296 0
509 341.376 463.296 0
510 365.76 463.296 0
511 390.144 463.296 0
512 414.528 463.296 0
513 438.912 463.296 0
514 463.296 463.296 0
515 487.68 463.296 0
516 512.064 463.296 0
517 536.448 463.296 0
518 560.832 463.296 0
519 585.216 463.296 0
520 609.6 463.296 0
521 0 487.68 0
522 24.384 487.68 0
523 48.768 487.68 0
524 73.152 487.68 0
525 97.536 487.68 0
526 121.92 487.68 0
527 146.304 487.68 0
528 170.688 487.68 0
529 195.072 487.68 0
530 219.456 487.68 0
531 243.84 487.68 0
532 268.224 487.68 0
533 292.608 487.68 0
534 316.992 487.68 0
535 341.376 487.68 0
536 365.76 487.68 0
537 390.144 487.68 0
538 414.528 487.68 0
539 438.912 487.68 0
540 463.296 487.68 0
541 487.68 487.68 0
542 512.064 487.68 0
543 536.448 487.68 0
544 560.832 487.68 0
545 585.216 487.68 0
546 609.6 487.68 0
547 0 512.064 0
548 24.384 512.064 0
549 48.768 512.064 0
550 73.152 512.064 0
551 97.536 512.064 0
552 121.92 512.064 0
553 146.304 512.064 0
554 170.688 512.064 0
555 195.072 512.064 0
556 219.456 512.064 0
557 243.84 512.064 0
558 268.224 512.064 0
559 292.608 512.064 0
560 316.992 512.064 0
561 341.376 512.064 0
562 365.76 512.064 0
563 390.144 512.064 0
564 414.528 512.064 0
565 438.912 512.064 0
566 463.296 512.064 0
567 487.68 512.064 0
568 512.064 512.064 0
569 536.448 512.064 0
570 560.832 512.064 0
571 585.216 512.064 0
572 609.6 512.064 0
573 0 536.448 0
574 24.384 536.448 0
575 48.768 536.448 0
576 73.152 536.448 0
577 97.536 536.448 0
578 121.92 536.448 0
579 146.304 536.448 0
580 170.688 536.448 0
581 195.072 536.448 0
582 219.456 536.448 0
583 243.84 536.448 0
584 268.224 536.448 0
585 292.608 536.448 0
586 316.992 536.448 0
587 341.376 536.448 0
588 365.76 536.448 0
589 390.144 536.448 0
590 414.528 536.448 0
591 438.912 536.448 0
592 463.296 536.448 0
593 487.68 536.448 0
594 512.064 536.448 0
595 536.448 536.448 0
596 560.832 536.448 0
597 585.216 536.448 0
598 609.6 536.448 0
599 0 560.832 0
600 24.384 560.832 0
601 48.768 560.832 0
602 73.152 560.832 0
603 97.536 560.832 0
604 121.92 560.832 0
605 146.304 560.832 0
606 170.688 560.832 0
607 195.072 560.832 0
608 219.456 560.832 0
609 243.84 560.832 0
610 268.224 560.832 0
611 292.608 560.832 0
612 316.992 560.832 0
613 341.376 560.832 0
614 365.76 560.832 0
615 390.144 560.832 0
616 414.528 560.832 0
617 438.912 560.832 0
618 463.296 560.832 0
619 487.68 560.832 0
620 512.064 560.832 0
621 536.448 560.832 0
622 560.832 560.832 0
623 585.216 560.832 0
624 609.6 560.832 0
625 0 585.216 0
626 24.384 585.216 0
627 48.768 585.216 0
628 73.152 585.216 0
629 97.536 585.216 0
630 121.92 585.216 0
631 146.304 585.216 0
632 170.688 585.216 0
633 195.072 585.216 0
634 219.456 585.216 0
635 243.84 585.216 0
636 268.224 585.216 0
637 292.608 585.216 0
638 316.992 585.216 0
639 341.376 585.216 0
640 365.76 585.216 0
641 390.144 585.216 0
642 414.528 585.216 0
643 438.912 585.216 0
644 463.296 585.216 0
645 487.68 585.216 0
646 512.064 585.216 0
647 536.448 585.216 0
648 560.832 585.216 0
649 585.216 585.216 0
650 609.6 585.216 0
651 0 609.6 0
652 24.384 609.6 0
653 48.768 609.6 0
654 73.152 609.6 0
655 97.536 609.6 0
656 121.92 609.6 0
657 146.304 609.6 0
658 170.688 609.6 0
659 195.072 609.6 0
660 219.456 609.6 0
661 243.84 609.6 0
662 268.224 609.6 0
663 292.608 609.6 0
664 316.992 609.6 0
665 341.376 609.6 0
666 365.76 609.6 0
667 390.144 609.6 0
668 414.528 609.6 0
669 438.912 609.6 0
670 463.296 609.6 0
671 487.68 609.6 0
672 512.064 609.6 0
673 536.448 609.6 0
674 560.832 609.6 0
675 585.216 609.6 0
676 609.6 609.6 0
$EndNodes
$Elements
625
624 3 0 1 2 28 27
623 3 0 27 28 54 53
622 3 0 53 54 80 79
621 3 0 79 80 106 105
620 3 0 105 106 132 131
619 3 0 131 132 158 157
618 3 0 157 158 184 183
617 3 0 183 184 210 209
616 3 0 209 210 236 235
615 3 0 235 236 262 261
614 3 0 261 262 288 287
613 3 0 287 288 314 313
612 3 0 313 314 340 339
611 3 0 339 340 366 365
610 3 0 365 366 392 391
609 3 0 391 392 418 417
608 3 0 417 418 444 443
607 3 0 443 444 470 469
606 3 0 469 470 496 495
605 3 0 495 496 522 521
604 3 0 521 522 548 547
603 3 0 547 548 574 573
602 3 0 573 574 600 599
601 3 0 599 600 626 625
600 3 0 625 626 652 651
599 3 0 2 3 29 28
598 3 0 28 29 55 54
597 3 0 54 55 81 80
596 3 0 80 81 107 106
595 3 0 106 107 133 132
594 3 0 132 133 159 158
593 3 0 158 159 185 184
592 3 0 184 185 211 210
591 3 0 210 211 237 236
590 3 0 236 237 263 262
589 3 0 262 263 289 288
588 3 0 288 289 315 314
587 3 0 314 315 341 340
586 3 0 340 341 367 366
585 3 0 366 367 393 392
584 3 0 392 393 419 418
583 3 0 418 419 445 444
582 3 0 444 445 471 470
581 3 0 470 471 497 496
580 3 0 496 497 523 522
579 3 0 522 523 549 548
578 3 0 548 549 575 574
577 3 0 574 575 601 600
576 3 0 600 601 627 626
575 3 0 626 627 653 652
574 3 0 3 4 30 29
573 3 0 29 30 56 55
572 3 0 55 56 82 81
571 3 0 81 82 108 107
570 3 0 107 108 134 133
569 3 0 133 134 160 159
568 3 0 159 160 186 185
567 3 0 185 186 212 211
566 3 0 211 212 238 237
565 3 0 237 238 264 263
564 3 0 263 264 290 289
563 3 0 289 290 316 315
562 3 0 315 316 342 341
561 3 0 341 342 368 367
560 3 0 367 368 394 393
559 3 0 393 394 420 419
558 3 0 419 420 446 445
557 3 0 445 446 472 471
556 3 0 471 472 498 497
555 3 0 497 498 524 523
554 3 0 523 524 550 549
553 3 0 549 550 576 575
552 3 0 575 576 602 601
551 3 0 601 602 628 627
550 3 0 627 628 654 653
549 3 0 4 5 31 30
548 3 0 30 31 57 56
547 3 0 56 57 83 82
546 3 0 82 83 109 108
545 3 0 108 109 135 134
544 3 0 134 135 161 160
543 3 0 160 161 187 186
542 3 0 186 187 213 212
541 3 0 212 213 239 238
540 3 0 238 239 265 264
539 3 0 264 265 291 290
538 3 0 290 291 317 316
537 3 0 316 317 343 342
536 3 0 342 343 369 368
535 3 0 368 369 395 394
534 3 0 394 395 421 420
533 3 0 420 421 447 446
532 3 0 446 447 473 472
531 3 0 472 473 499 498
530 3 0 498 499 525 524
529 3 0 524 525 551 550
528 3 0 550 551 577 576
527 3 0 576 577 603 602
526 3 0 602 603 629 628
525 3 0 628 629 655 654
524 3 0 5 6 32 31
523 3 0 31 32 58 57
522 3 0 57 58 84 83
521 3 0 83 84 110 109
520 3 0 109 110 136 135
519 3 0 135 136 162 161
518 3 0 161 162 188 187
517 3 0 187 188 214 213
516 3 0 213 214 240 239
515 3 0 239 240 266 265
514 3 0 265 266 292 291
513 3 0 291 292 318 317
512 3 0 317 318 344 343
511 3 0 343 344 370 369
510 3 0 369 370 396 395
509 3 0 395 396 422 421
508 3 0 421 422 448 447
507 3 0 447 448 474 473
506 3 0 473 474 500 499
505 3 0 499 500 526 525
504 3 0 525 526 552 551
503 3 0 551 552 578 577
502 3 0 577 578 604 603
501 3 0 603 604 630 629
500 3 0 629 630 656 655
499 3 0 6 7 33 32
498 3 0 32 33 59 58
497 3 0 58 59 85 84
496 3 0 84 85 111 110
495 3 0 110 111 137 136
494 3 0 136 137 163 162
493 3 0 162 163 189 188
492 3 0 188 189 215 214
491 3 0 214 215 241 240
490 3 0 240 241 267 266
489 3 0 266 267 293 292
488 3 0 292 293 319 318
487 3 0 318 319 345 344
486 3 0 344 345 371 370
485 3 0 370 371 397 396
484 3 0 396 397 423 422
483 3 0 422 423 449 448
482 3 0 448 449 475 474
481 3 0 474 475 501 500
480 3 0 500 501 527 526
479 3 0 526 527 553 552
478 3 0 552 553 579 578
477 3 0 578 579 605 604
476 3 0 604 605 631 630
475 3 0 630 631 657 656
474 3 0 7 8 34 33
473 3 0 33 34 60 59
472 3 0 59 60 86 85
471 3 0 85 86 112 111
470 3 0 111 112 138 137
469 3 0 137 138 164 163
468 3 0 163 164 190 189
467 3 0 189 190 216 215
466 3 0 215 216 242 241
465 3 0 241 242 268 267
464 3 0 267 268 294 293
463 3 0 293 294 320 319
462 3 0 319 320 346 345
461 3 0 345 346 372 371
460 3 0 371 372 398 397
459 3 0 397 398 424 423
458 3 0 423 424 450 449
457 3 0 449 450 476 475
456 3 0 475 476 502 501
455 3 0 501 502 528 527
454 3 0 527 528 554 553
453 3 0 553 554 580 579
452 3 0 579 580 606 605
451 3 0 605 606 632 631
450 3 0 631 632 658 657
449 3 0 8 9 35 34
448 3 0 34 35 61 60
447 3 0 60 61 87 86
446 3 0 86 87 113 112
445 3 0 112 113 139 138
444 3 0 138 139 165 164
443 3 0 164 165 191 190
442 3 0 190 191 217 216
441 3 0 216 217 243 242
440 3 0 242 243 269 268
439 3 0 268 269 295 294
438 3 0 294 295 321 320
437 3 0 320 321 347 346
436 3 0 346 347 373 372
435 3 0 372 373 399 398
434 3 0 398 399 425 424
433 3 0 424 425 451 450
432 3 0 450 451 477 476
431 3 0 476 477 503 502
430 3 0 502 503 529 528
429 3 0 528 529 555 554
428 3 0 554 555 581 580
427 3 0 580 581 607 606
426 3 0 606 607 633 632
425 3 0 632 633 659 658
424 3 0 9 10 36 35
423 3 0 35 36 62 61
422 3 0 61 62 88 87
421 3 0 87 88 114 113
420 3 0 113 114 140 139
419 3 0 139 140 166 165
418 3 0 165 166 192 191
417 3 0 191 192 218 217
416 3 0 217 218 244 243
415 3 0 243 244 270 269
414 3 0 269 270 296 295
413 3 0 295 296 322 321
412 3 0 321 322 348 347
411 3 0 347 348 374 373
410 3 0 373 374 400 399
409 3 0 399 400 426 425
408 3 0 425 426 452 451
407 3 0 451 452 478 477
406 3 0 477 478 504 503
405 3 0 503 504 530 529
404 3 0 529 530 556 555
403 3 0 555 556 582 581
402 3 0 581 582 608 607
401 3 0 607 608 634 633
400 3 0 633 634 660 659
399 3 0 10 11 37 36
398 3 0 36 37 63 62
397 3 0 62 63 89 88
396 3 0 88 89 115 114
395 3 0 114 115 141 140
394 3 0 140 141 167 166
393 3 0 166 167 193 192
392 3 0 192 193 219 218
391 3 0 218 219 245 244
390 3 0 244 245 271 270
389 3 0 270 271 297 296
388 3 0 296 297 323 322
387 3 0 322 323 349 348
386 3 0 348 349 375 374
385 3 0 374 375 401 400
384 3 0 400 401 427 426
383 3 0 426 427 453 452
382 3 0 452 453 479 478
381 3 0 478 479 505 504
380 3 0 504 505 531 530
379 3 0 530 531 557 556
378 3 0 556 557 583 582
377 3 0 582 583 609 608
376 3 0 608 609 635 634
375 3 0 634 635 661 660
374 3 0 11 12 38 37
373 3 0 37 38 64 63
372 3 0 63 64 90 89
371 3 0 89 90 116 115
370 3 0 115 116 142 141
369 3 0 141 142 168 167
368 3 0 167 168 194 193
367 3 0 193 194 220 219
366 3 0 219 220 246 245
365 3 0 245 246 272 271
364 3 0 271 272 298 297
363 3 0 297 298 324 323
362 3 0 323 324 350 349
361 3 0 349 350 376 375
360 3 0 375 376 402 401
359 3 0 401 402 428 427
358 3 0 427 428 454 453
357 3 0 453 454 480 479
356 3 0 479 480 506 505
355 3 0 505 506 532 531
354 3 0 531 532 558 557
353 3 0 557 558 584 583
352 3 0 583 584 610 609
351 3 0 609 610 636 635
350 3 0 635 636 662 661
349 3 0 12 13 39 38
348 3 0 38 39 65 64
347 3 0 64 65 91 90
346 3 0 90 91 117 116
345 3 0 116 117 143 142
344 3 0 142 143 169 168
343 3 0 168 169 195 194
342 3 0 194 195 221 220
341 3 0 220 221 247 246
340 3 0 246 247 273 272
339 3 0 272 273 299 298
338 3 0 298 299 325 324
337 3 0 324 325 351 350
336 3 0 350 351 377 376
335 3 0 376 377 403 402
334 3 0 402 403 429 428
333 3 0 428 429 455 454
332 3 0 454 455 481 480
331 3 0 480 481 507 506
330 3 0 506 507 533 532
329 3 0 532 533 559 558
328 3 0 558 559 585 584
327 3 0 584 585 611 610
326 3 0 610 611 637 636
325 3 0 636 637 663 662
324 3 0 13 14 40 39
323 3 0 39 40 66 65
322 3 0 65 66 92 91
321 3 0 91 92 118 117
320 3 0 117 118 144 143
319 3 0 143 144 170 169
318 3 0 169 170 196 195
317 3 0 195 196 222 221
316 3 0 221 222 248 247
315 3 0 247 248 274 273
314 3 0 273 274 300 299
313 3 0 299 300 326 325
312 3 0 325 326 352 351
311 3 0 351 352 378 377
310 3 0 377 378 404 403
309 3 0 403 404 430 429
308 3 0 429 430 456 455
307 3 0 455 456 482 481
306 3 0 481 482 508 507
305 3 0 507 508 534 533
304 3 0 533 534 560 559
303 3 0 559 560 586 585
302 3 0 585 586 612 611
301 3 0 611 612 638 637
300 3 0 637 638 664 663
299 3 0 14 15 41 40
298 3 0 40 41 67 66
297 3 0 66 67 93 92
296 3 0 92 93 119 118
295 3 0 118 119 145 144
294 3 0 144 145 171 170
293 3 0 170 171 197 196
292 3 0 196 197 223 222
291 3 0 222 223 249 248
290 3 0 248 249 275 274
289 3 0 274 275 301 300
288 3 0 300 301 327 326
287 3 0 326 327 353 352
286 3 0 352 353 379 378
285 3 0 378 379 405 404
284 3 0 404 405 431 430
283 3 0 430 431 457 456
282 3 0 456 457 483 482
281 3 0 482 483 509 508
280 3 0 508 509 535 534
279 3 0 534 535 561 560
278 3 0 560 561 587 586
277 3 0 586 587 613 612
276 3 0 612 613 639 638
275 3 0 638 639 665 664
274 3 0 15 16 42 41
273 3 0 41 42 68 67
272 3 0 67 68 94 93
271 3 0 93 94 120 119
270 3 0 119 120 146 145
269 3 0 145 146 172 171
268 3 0 171 172 198 197
267 3 0 197 198 224 223
266 3 0 223 224 250 249
265 3 0 249 250 276 275
264 3 0 275 276 302 301
263 3 0 301 302 328 327
262 3 0 327 328 354 353
261 3 0 353 354 380 379
260 3 0 379 380 406 405
259 3 0 405 406 432 431
258 3 0 431 432 458 457
257 3 0 457 458 484 483
256 3 0 483 484 510 509
255 3 0 509 510 536 535
254 3 0 535 536 562 561
253 3 0 561 562 588 587
252 3 0 587 588 614 613
251 3 0 613 614 640 639
250 3 0 639 640 666 665
249 3 0 16 17 43 42
248 3 0 42 43 69 68
247 3 0 68 69 95 94
246 3 0 94 95 121 120
245 3 0 120 121 147 146
244 3 0 146 147 173 172
243 3 0 172 173 199 198
242 3 0 198 199 225 224
241 3 0 224 225 251 250
240 3 0 250 251 277 276
239 3 0 276 277 303 302
238 3 0 302 303 329 328
237 3 0 328 329 355 354
236 3 0 354 355 381 380
235 3 0 380 381 407 406
234 3 0 406 407 433 432
233 3 0 432 433 459 458
232 3 0 458 459 485 484
231 3 0 484 485 511 510
230 3 0 510 511 537 536
229 3 0 536 537 563 562
228 3 0 562 563 589 588
227 3 0 588 589 615 614
226 3 0 614 615 641 640
225 3 0 640 641 667 666
224 3 0 17 18 44 43
223 3 0 43 44 70 69
222 3 0 69 70 96 95
221 3 0 95 96 122 121
220 3 0 121 122 148 147
219 3 0 147 148 174 173
218 3 0 173 174 200 199
217 3 0 199 200 226 225
216 3 0 225 226 252 251
215 3 0 251 252 278 277
214 3 0 277 278 304 303
213 3 0 303 304 330 329
212 3 0 329 330 356 355
211 3 0 355 356 382 381
210 3 0 381 382 408 407
209 3 0 407 408 434 433
208 3 0 433 434 460 459
207 3 0 459 460 486 485
206 3 0 485 486 512 511
205 3 0 511 512 538 537
204 3 0 537 538 564 563
203 3 0 563 564 590 589
202 3 0 589 590 616 615
201 3 0 615 616 642 641
200 3 0 641 642 668 667
199 3 0 18 19 45 44
198 3 0 44 45 71 70
197 3 0 70 71 97 96
196 3 0 96 97 123 122
195 3 0 122 123 149 148
194 3 0 148 149 175 174
193 3 0 174 175 201 200
192 3 0 200 201 227 226
191 3 0 226 227 253 252
190 3 0 252 253 279 278
189 3 0 278 279 305 304
188 3 0 304 305 331 330
187 3 0 330 331 357 356
186 3 0 356 357 383 382
185 3 0 382 383 409 408
184 3 0 408 409 435 434
183 3 0 434 435 461 460
182 3 0 460 461 487 486
181 3 0 486 487 513 512
180 3 0 512 513 539 538
179 3 0 538 539 565 564
178 3 0 564 565 591 590
177 3 0 590 591 617 616
176 3 0 616 617 643 642
175 3 0 642 643 669 668
174 3 0 19 20 46 45
173 3 0 45 46 72 71
172 3 0 71 72 98 97
171 3 0 97 98 124 123
170 3 0 123 124 150 149
169 3 0 149 150 176 175
168 3 0 175 176 202 201
167 3 0 201 202 228 227
166 3 0 227 228 254 253
165 3 0 253 254 280 279
164 3 0 279 280 306 305
163 3 0 305 306 332 331
162 3 0 331 332 358 357
161 3 0 357 358 384 383
160 3 0 383 384 410 409
159 3 0 409 410 436 435
158 3 0 435 436 462 461
157 3 0 461 462 488 487
156 3 0 487 488 514 513
155 3 0 513 514 540 539
154 3 0 539 540 566 565
153 3 0 565 566 592 591
152 3 0 591 592 618 617
151 3 0 617 618 644 643
150 3 0 643 644 670 669
149 3 0 20 21 47 46
148 3 0 46 47 73 72
147 3 0 72 73 99 98
146 3 0 98 99 125 124
145 3 0 124 125 151 150
144 3 0 150 151 177 176
143 3 0 176 177 203 202
142 3 0 202 203 229 228
141 3 0 228 229 255 254
140 3 0 254 255 281 280
139 3 0 280 281 307 306
138 3 0 306 307 333 332
137 3 0 332 333 359 358
136 3 0 358 359 385 384
135 3 0 384 385 411 410
134 3 0 410 411 437 436
133 3 0 436 437 463 462
132 3 0 462 463 489 488
131 3 0 488 489 515 514
130 3 0 514 515 541 540
129 3 0 540 541 567 566
128 3 0 566 567 593 592
127 3 0 592 593 619 618
126 3 0 618 619 645 644
125 3 0 644 645 671 670
124 3 0 21 22 48 47
123 3 0 47 48 74 73
122 3 0 73 74 100 99
121 3 0 99 100 126 125
120 3 0 125 126 152 151
119 3 0 151 152 178 177
118 3 0 177 178 204 203
117 3 0 203 204 230 229
116 3 0 229 230 256 255
115 3 0 255 256 282 281
114 3 0 281 282 308 307
113 3 0 307 308 334 333
112 3 0 333 334 360 359
111 3 0 359 360 386 385
110 3 0 385 386 412 411
109 3 0 411 412 438 437
108 3 0 437 438 464 463
107 3 0 463 464 490 489
106 3 0 489 490 516 515
105 3 0 515 516 542 541
104 3 0 541 542 568 567
103 3 0 567 568 594 593
102 3 0 593 594 620 619
101 3 0 619 620 646 645
100 3 0 645 646 672 671
99 3 0 22 23 49 48
98 3 0 48 49 75 74
97 3 0 74 75 101 100
96 3 0 100 101 127 126
95 3 0 126 127 153 152
94 3 0 152 153 179 178
93 3 0 178 179 205 204
92 3 0 204 205 231 230
91 3 0 230 231 257 256
90 3 0 256 257 283 282
89 3 0 282 283 309 308
88 3 0 308 309 335 334
87 3 0 334 335 361 360
86 3 0 360 361 387 386
85 3 0 386 387 413 412
84 3 0 412 413 439 438
83 3 0 438 439 465 464
82 3 0 464 465 491 490
81 3 0 490 491 517 516
80 3 0 516 517 543 542
79 3 0 542 543 569 568
78 3 0 568 569 595 594
77 3 0 594 595 621 620
76 3 0 620 621 647 646
75 3 0 646 647 673 672
74 3 0 23 24 50 49
73 3 0 49 50 76 75
72 3 0 75 76 102 101
71 3 0 101 102 128 127
70 3 0 127 128 154 153
69 3 0 153 154 180 179
68 3 0 179 180 206 205
67 3 0 205 206 232 231
66 3 0 231 232 258 257
65 3 0 257 258 284 283
64 3 0 283 284 310 309
63 3 0 309 310 336 335
62 3 0 335 336 362 361
61 3 0 361 362 388 387
60 3 0 387 388 414 413
59 3 0 413 414 440 439
58 3 0 439 440 466 465
57 3 0 465 466 492 491
56 3 0 491 492 518 517
55 3 0 517 518 544 543
54 3 0 543 544 570 569
53 3 0 569 570 596 595
52 3 0 595 596 622 621
51 3 0 621 622 648 647
50 3 0 647 648 674 673
49 3 0 24 25 51 50
48 3 0 50 51 77 76
47 3 0 76 77 103 102
46 3 0 102 103 129 128
45 3 0 128 129 155 154
44 3 0 154 155 181 180
43 3 0 180 181 207 206
42 3 0 206 207 233 232
41 3 0 232 233 259 258
40 3 0 258 259 285 284
39 3 0 284 285 311 310
38 3 0 310 311 337 336
37 3 0 336 337 363 362
36 3 0 362 363 389 388
35 3 0 388 389 415 414
34 3 0 414 415 441 440
33 3 0 440 441 467 466
32 3 0 466 467 493 492
31 3 0 492 493 519 518
30 3 0 518 519 545 544
29 3 0 544 545 571 570
28 3 0 570 571 597 596
27 3 0 596 597 623 622
26 3 0 622 623 649 648
25 3 0 648 649 675 674
24 3 0 25 26 52 51
23 3 0 51 52 78 77
22 3 0 77 78 104 103
21 3 0 103 104 130 129
20 3 0 129 130 156 155
19 3 0 155 156 182 181
18 3 0 181 182 208 207
17 3 0 207 208 234 233
16 3 0 233 234 260 259
15 3 0 259 260 286 285
14 3 0 285 286 312 311
13 3 0 311 312 338 337
12 3 0 337 338 364 363
11 3 0 363 364 390 389
10 3 0 389 390 416 415
9 3 0 415 416 442 441
8 3 0 441 442 468 467
7 3 0 467 468 494 493
6 3 0 493 494 520 519
5 3 0 519 520 546 545
4 3 0 545 546 572 571
3 3 0 571 572 598 597
2 3 0 597 598 624 623
1 3 0 623 624 650 649
-1 3 0 649 650 676 675
$EndElements
