$MeshFormat
4.1 0 8
$EndMeshFormat
$Entities
4 4 1 0
1 0 0 0 1 201 
2 100 0 0 0 
3 100 100 0 1 202 
4 0 100 0 0 
1 0 0 0 100 0 0 0 2 1 -2 
2 100 0 0 100 100 0 1 204 2 2 -3 
3 0 100 0 100 100 0 0 2 3 -4 
4 0 0 0 0 100 0 1 203 2 4 -1 
6 0 0 0 100 100 0 0 4 1 2 3 4 
$EndEntities
$Nodes
6 670 1 670
0 1 0 1
1
0 0 0
0 2 0 1
2
100 0 0
0 3 0 1
3
100 100 0
0 4 0 1
4
0 100 0
1 2 0 333
5
6
7
8
9
10
11
12
13
14
15
16
17
18
19
20
21
22
23
24
25
26
27
28
29
30
31
32
33
34
35
36
37
38
39
40
41
42
43
44
45
46
47
48
49
50
51
52
53
54
55
56
57
58
59
60
61
62
63
64
65
66
67
68
69
70
71
72
73
74
75
76
77
78
79
80
81
82
83
84
85
86
87
88
89
90
91
92
93
94
95
96
97
98
99
100
101
102
103
104
105
106
107
108
109
110
111
112
113
114
115
116
117
118
119
120
121
122
123
124
125
126
127
128
129
130
131
132
133
134
135
136
137
138
139
140
141
142
143
144
145
146
147
148
149
150
151
152
153
154
155
156
157
158
159
160
161
162
163
164
165
166
167
168
169
170
171
172
173
174
175
176
177
178
179
180
181
182
183
184
185
186
187
188
189
190
191
192
193
194
195
196
197
198
199
200
201
202
203
204
205
206
207
208
209
210
211
212
213
214
215
216
217
218
219
220
221
222
223
224
225
226
227
228
229
230
231
232
233
234
235
236
237
238
239
240
241
242
243
244
245
246
247
248
249
250
251
252
253
254
255
256
257
258
259
260
261
262
263
264
265
266
267
268
269
270
271
272
273
274
275
276
277
278
279
280
281
282
283
284
285
286
287
288
289
290
291
292
293
294
295
296
297
298
299
300
301
302
303
304
305
306
307
308
309
310
311
312
313
314
315
316
317
318
319
320
321
322
323
324
325
326
327
328
329
330
331
332
333
334
335
336
337
100 0.2994011976036024 0
100 0.5988023952072048 0
100 0.8982035928108136 0
100 1.197604790414432 0
100 1.497005988018052 0
100 1.796407185621683 0
100 2.095808383225319 0
100 2.395209580828948 0
100 2.694610778432551 0
100 2.994011976036153 0
100 3.293413173639718 0
100 3.592814371243254 0
100 3.892215568846789 0
100 4.191616766450293 0
100 4.491017964053796 0
100 4.790419161657298 0
100 5.089820359260801 0
100 5.389221556864303 0
100 5.688622754467855 0
100 5.988023952071424 0
100 6.287425149675009 0
100 6.586826347278711 0
100 6.886227544882413 0
100 7.18562874248615 0
100 7.485029940089919 0
100 7.784431137693687 0
100 8.083832335297455 0
100 8.383233532901224 0
100 8.682634730504994 0
100 8.982035928108761 0
100 9.281437125712531 0
100 9.580838323316298 0
100 9.880239520920068 0
100 10.17964071852384 0
100 10.4790419161276 0
100 10.77844311373137 0
100 11.07784431133514 0
100 11.37724550893891 0
100 11.67664670654268 0
100 11.97604790414633 0
100 12.27544910174997 0
100 12.57485029935354 0
100 12.87425149695691 0
100 13.17365269456028 0
100 13.47305389216356 0
100 13.7724550897668 0
100 14.07185628737004 0
100 14.37125748497327 0
100 14.67065868257651 0
100 14.97005988017975 0
100 15.26946107778298 0
100 15.56886227538622 0
100 15.86826347298946 0
100 16.16766467059269 0
100 16.46706586819593 0
100 16.76646706579917 0
100 17.0658682634024 0
100 17.36526946100564 0
100 17.66467065860888 0
100 17.96407185621211 0
100 18.26347305381535 0
100 18.56287425141859 0
100 18.86227544902183 0
100 19.16167664662506 0
100 19.4610778442283 0
100 19.76047904183153 0
100 20.05988023943477 0
100 20.359281437038 0
100 20.65868263464124 0
100 20.95808383224448 0
100 21.25748502984771 0
100 21.55688622745095 0
100 21.85628742505419 0
100 22.15568862265742 0
100 22.45508982026065 0
100 22.75449101786389 0
100 23.05389221546713 0
100 23.35329341307037 0
100 23.6526946106736 0
100 23.95209580827684 0
100 24.25149700588008 0
100 24.55089820348331 0
100 24.85029940108655 0
100 25.14970059868978 0
100 25.44910179629302 0
100 25.74850299389625 0
100 26.04790419149949 0
100 26.34730538910273 0
100 26.64670658670596 0
100 26.9461077843092 0
100 27.24550898191244 0
100 27.54491017951567 0
100 27.8443113771189 0
100 28.14371257472214 0
100 28.44311377232537 0
100 28.74251496992861 0
100 29.04191616753185 0
100 29.34131736513509 0
100 29.64071856273832 0
100 29.94011976034156 0
100 30.23952095794479 0
100 30.53892215554803 0
100 30.83832335315126 0
100 31.1377245507545 0
100 31.43712574835807 0
100 31.73652694596183 0
100 32.03592814356562 0
100 32.33532934116992 0
100 32.63473053877421 0
100 32.93413173637851 0
100 33.23353293398281 0
100 33.53293413158712 0
100 33.83233532919141 0
100 34.13173652679571 0
100 34.43113772440001 0
100 34.73053892200431 0
100 35.02994011960861 0
100 35.32934131721291 0
100 35.62874251481721 0
100 35.92814371242151 0
100 36.22754491002581 0
100 36.52694610763011 0
100 36.82634730523441 0
100 37.1257485028387 0
100 37.42514970044301 0
100 37.72455089804731 0
100 38.02395209565161 0
100 38.32335329325591 0
100 38.62275449086021 0
100 38.92215568846451 0
100 39.22155688606881 0
100 39.52095808367311 0
100 39.82035928127741 0
100 40.11976047888171 0
100 40.41916167648601 0
100 40.71856287409031 0
100 41.01796407169461 0
100 41.31736526929891 0
100 41.61676646690321 0
100 41.9161676645075 0
100 42.2155688621118 0
100 42.51497005971611 0
100 42.8143712573204 0
100 43.11377245492471 0
100 43.413173652529 0
100 43.71257485013331 0
100 44.0119760477376 0
100 44.3113772453419 0
100 44.61077844294621 0
100 44.9101796405505 0
100 45.20958083815481 0
100 45.5089820357591 0
100 45.8083832333634 0
100 46.1077844309677 0
100 46.40718562857201 0
100 46.70658682617631 0
100 47.0059880237806 0
100 47.3053892213849 0
100 47.6047904189892 0
100 47.9041916165935 0
100 48.2035928141978 0
100 48.50299401180209 0
100 48.8023952094064 0
100 49.1017964070107 0
100 49.401197604615 0
100 49.7005988022193 0
100 49.99999999982359 0
100 50.2994011974279 0
100 50.59880239503219 0
100 50.89820359263649 0
100 51.19760479024079 0
100 51.49700598784509 0
100 51.7964071854494 0
100 52.0958083830537 0
100 52.395209580658 0
100 52.69461077826229 0
100 52.99401197586658 0
100 53.2934131734709 0
100 53.59281437107519 0
100 53.89221556867949 0
100 54.19161676628379 0
100 54.4910179638881 0
100 54.79041916149239 0
100 55.08982035909668 0
100 55.38922155670099 0
100 55.68862275430529 0
100 55.9880239519096 0
100 56.28742514951389 0
100 56.58682634711819 0
100 56.88622754472249 0
100 57.18562874232679 0
100 57.48502993993109 0
100 57.78443113753539 0
100 58.08383233513968 0
100 58.38323353274399 0
100 58.68263473034829 0
100 58.98203592795258 0
100 59.28143712555688 0
100 59.58083832316118 0
100 59.88023952076549 0
100 60.17964071836979 0
100 60.47904191597409 0
100 60.77844311357838 0
100 61.07784431118268 0
100 61.37724550878698 0
100 61.67664670639128 0
100 61.97604790399558 0
100 62.27544910159988 0
100 62.57485029920419 0
100 62.87425149680848 0
100 63.17365269441279 0
100 63.47305389201776 0
100 63.77245508962312 0
100 64.07185628722853 0
100 64.37125748483496 0
100 64.67065868244137 0
100 64.9700598800478 0
100 65.26946107765423 0
100 65.56886227526067 0
100 65.86826347286708 0
100 66.16766467047351 0
100 66.46706586807993 0
100 66.76646706568637 0
100 67.0658682632928 0
100 67.36526946089923 0
100 67.66467065850564 0
100 67.96407185611207 0
100 68.2634730537185 0
100 68.56287425132493 0
100 68.86227544893136 0
100 69.16167664653777 0
100 69.46107784414421 0
100 69.76047904175063 0
100 70.05988023935707 0
100 70.35928143696349 0
100 70.65868263456993 0
100 70.95808383217634 0
100 71.25748502978277 0
100 71.5568862273892 0
100 71.85628742499563 0
100 72.15568862260206 0
100 72.45508982020847 0
100 72.7544910178149 0
100 73.05389221542133 0
100 73.35329341302777 0
100 73.65269461063419 0
100 73.95209580824061 0
100 74.25149700584703 0
100 74.55089820345347 0
100 74.8502994010599 0
100 75.14970059866633 0
100 75.44910179627274 0
100 75.74850299387917 0
100 76.0479041914856 0
100 76.34730538909203 0
100 76.64670658669846 0
100 76.9461077843049 0
100 77.24550898191131 0
100 77.54491017951774 0
100 77.84431137712417 0
100 78.1437125747306 0
100 78.44311377233704 0
100 78.74251496994346 0
100 79.04191616754989 0
100 79.34131736515634 0
100 79.64071856276276 0
100 79.94011976036919 0
100 80.23952095797561 0
100 80.53892215558204 0
100 80.83832335318849 0
100 81.1377245507949 0
100 81.43712574840133 0
100 81.73652694600776 0
100 82.0359281436142 0
100 82.33532934122063 0
100 82.63473053882706 0
100 82.93413173643349 0
100 83.23353293403993 0
100 83.53293413164634 0
100 83.83233532925277 0
100 84.1317365268592 0
100 84.43113772446563 0
100 84.73053892207207 0
100 85.0299401196785 0
100 85.32934131728493 0
100 85.62874251489137 0
100 85.92814371249779 0
100 86.22754491010421 0
100 86.52694610771064 0
100 86.82634730531707 0
100 87.1257485029235 0
100 87.42514970052994 0
100 87.72455089813637 0
100 88.02395209574281 0
100 88.32335329334923 0
100 88.62275449095566 0
100 88.92215568856209 0
100 89.22155688616851 0
100 89.52095808377494 0
100 89.82035928138137 0
100 90.11976047898781 0
100 90.41916167659426 0
100 90.71856287420067 0
100 91.0179640718071 0
100 91.31736526941353 0
100 91.61676646701996 0
100 91.91616766462639 0
100 92.21556886223281 0
100 92.51497005983924 0
100 92.8143712574457 0
100 93.11377245505211 0
100 93.41317365265854 0
100 93.71257485026497 0
100 94.0119760478714 0
100 94.31137724547783 0
100 94.61077844308426 0
100 94.91017964069069 0
100 95.20958083829711 0
100 95.50898203590356 0
100 95.80838323350999 0
100 96.10778443111641 0
100 96.40718562872284 0
100 96.70658682632927 0
100 97.0059880239357 0
100 97.30538922154213 0
100 97.60479041914856 0
100 97.90419161675499 0
100 98.20359281436143 0
100 98.50299401196786 0
100 98.80239520957429 0
100 99.10179640718071 0
100 99.40119760478714 0
100 99.70059880239357 0
1 4 0 333
338
339
340
341
342
343
344
345
346
347
348
349
350
351
352
353
354
355
356
357
358
359
360
361
362
363
364
365
366
367
368
369
370
371
372
373
374
375
376
377
378
379
380
381
382
383
384
385
386
387
388
389
390
391
392
393
394
395
396
397
398
399
400
401
402
403
404
405
406
407
408
409
410
411
412
413
414
415
416
417
418
419
420
421
422
423
424
425
426
427
428
429
430
431
432
433
434
435
436
437
438
439
440
441
442
443
444
445
446
447
448
449
450
451
452
453
454
455
456
457
458
459
460
461
462
463
464
465
466
467
468
469
470
471
472
473
474
475
476
477
478
479
480
481
482
483
484
485
486
487
488
489
490
491
492
493
494
495
496
497
498
499
500
501
502
503
504
505
506
507
508
509
510
511
512
513
514
515
516
517
518
519
520
521
522
523
524
525
526
527
528
529
530
531
532
533
534
535
536
537
538
539
540
541
542
543
544
545
546
547
548
549
550
551
552
553
554
555
556
557
558
559
560
561
562
563
564
565
566
567
568
569
570
571
572
573
574
575
576
577
578
579
580
581
582
583
584
585
586
587
588
589
590
591
592
593
594
595
596
597
598
599
600
601
602
603
604
605
606
607
608
609
610
611
612
613
614
615
616
617
618
619
620
621
622
623
624
625
626
627
628
629
630
631
632
633
634
635
636
637
638
639
640
641
642
643
644
645
646
647
648
649
650
651
652
653
654
655
656
657
658
659
660
661
662
663
664
665
666
667
668
669
670
0 99.70059880239734 0
0 99.40119760479467 0
0 99.10179640719201 0
0 98.80239520958935 0
0 98.50299401198669 0
0 98.20359281438402 0
0 97.90419161678136 0
0 97.6047904191787 0
0 97.30538922157604 0
0 97.00598802397337 0
0 96.70658682637071 0
0 96.40718562876805 0
0 96.10778443116538 0
0 95.80838323356272 0
0 95.50898203596006 0
0 95.2095808383574 0
0 94.91017964075473 0
0 94.61077844315207 0
0 94.31137724554941 0
0 94.01197604794675 0
0 93.71257485034408 0
0 93.41317365274142 0
0 93.11377245513876 0
0 92.8143712575361 0
0 92.51497005993343 0
0 92.21556886233077 0
0 91.91616766472811 0
0 91.61676646712544 0
0 91.31736526952278 0
0 91.01796407192012 0
0 90.71856287431746 0
0 90.41916167671479 0
0 90.11976047911213 0
0 89.82035928150947 0
0 89.52095808390681 0
0 89.22155688630414 0
0 88.92215568870148 0
0 88.62275449109882 0
0 88.32335329349615 0
0 88.02395209589349 0
0 87.72455089829083 0
0 87.42514970068817 0
0 87.1257485030855 0
0 86.82634730548284 0
0 86.52694610788018 0
0 86.22754491027752 0
0 85.92814371267485 0
0 85.62874251507218 0
0 85.32934131746953 0
0 85.02994011986685 0
0 84.73053892226419 0
0 84.43113772466154 0
0 84.13173652705886 0
0 83.8323353294562 0
0 83.53293413185355 0
0 83.23353293425087 0
0 82.93413173664821 0
0 82.63473053904555 0
0 82.33532934144289 0
0 82.03592814384022 0
0 81.73652694623756 0
0 81.4371257486349 0
0 81.13772455103224 0
0 80.83832335342957 0
0 80.53892215582691 0
0 80.23952095822425 0
0 79.94011976062158 0
0 79.64071856301892 0
0 79.34131736541626 0
0 79.0419161678136 0
0 78.74251497021093 0
0 78.44311377260827 0
0 78.14371257500561 0
0 77.84431137740295 0
0 77.5449101798003 0
0 77.24550898219762 0
0 76.94610778459497 0
0 76.64670658699231 0
0 76.34730538938965 0
0 76.04790419178698 0
0 75.74850299418432 0
0 75.44910179658166 0
0 75.149700598979 0
0 74.85029940137633 0
0 74.55089820377367 0
0 74.25149700617101 0
0 73.95209580856834 0
0 73.65269461096568 0
0 73.35329341336302 0
0 73.05389221576036 0
0 72.75449101815769 0
0 72.45508982055503 0
0 72.15568862295237 0
0 71.85628742534971 0
0 71.55688622774704 0
0 71.25748503014438 0
0 70.95808383254172 0
0 70.65868263493905 0
0 70.35928143733639 0
0 70.05988023973373 0
0 69.76047904213107 0
0 69.4610778445284 0
0 69.16167664692574 0
0 68.86227544932308 0
0 68.56287425172042 0
0 68.26347305411775 0
0 67.96407185651509 0
0 67.66467065891243 0
0 67.36526946130977 0
0 67.0658682637071 0
0 66.76646706610444 0
0 66.46706586850178 0
0 66.16766467089911 0
0 65.86826347329647 0
0 65.5688622756938 0
0 65.26946107809113 0
0 64.97005988048846 0
0 64.67065868288581 0
0 64.37125748528315 0
0 64.07185628768049 0
0 63.77245509007679 0
0 63.47305389247307 0
0 63.17365269486896 0
0 62.87425149726417 0
0 62.57485029965938 0
0 62.27544910205459 0
0 61.9760479044498 0
0 61.67664670684501 0
0 61.37724550924023 0
0 61.07784431163542 0
0 60.77844311403064 0
0 60.47904191642585 0
0 60.17964071882106 0
0 59.88023952121627 0
0 59.58083832361149 0
0 59.28143712600669 0
0 58.9820359284019 0
0 58.68263473079712 0
0 58.38323353319232 0
0 58.08383233558753 0
0 57.78443113798274 0
0 57.48502994037796 0
0 57.18562874277316 0
0 56.88622754516837 0
0 56.58682634756359 0
0 56.28742514995879 0
0 55.98802395235401 0
0 55.68862275474922 0
0 55.38922155714442 0
0 55.08982035953964 0
0 54.79041916193485 0
0 54.49101796433006 0
0 54.19161676672528 0
0 53.89221556912048 0
0 53.59281437151569 0
0 53.29341317391091 0
0 52.99401197630612 0
0 52.69461077870132 0
0 52.39520958109654 0
0 52.09580838349174 0
0 51.79640718588696 0
0 51.49700598828217 0
0 51.19760479067737 0
0 50.89820359307258 0
0 50.59880239546779 0
0 50.29940119786301 0
0 50.00000000025822 0
0 49.70059880265343 0
0 49.40119760504864 0
0 49.10179640744386 0
0 48.80239520983906 0
0 48.50299401223427 0
0 48.20359281462948 0
0 47.90419161702468 0
0 47.60479041941991 0
0 47.3053892218151 0
0 47.00598802421032 0
0 46.70658682660553 0
0 46.40718562900075 0
0 46.10778443139595 0
0 45.80838323379118 0
0 45.50898203618637 0
0 45.20958083858159 0
0 44.9101796409768 0
0 44.61077844337201 0
0 44.31137724576721 0
0 44.01197604816242 0
0 43.71257485055764 0
0 43.41317365295285 0
0 43.11377245534806 0
0 42.81437125774327 0
0 42.51497006013848 0
0 42.21556886253369 0
0 41.91616766492891 0
0 41.6167664673241 0
0 41.31736526971933 0
0 41.01796407211453 0
0 40.71856287450974 0
0 40.41916167690496 0
0 40.11976047930017 0
0 39.82035928169537 0
0 39.52095808409059 0
0 39.2215568864858 0
0 38.92215568888101 0
0 38.62275449127621 0
0 38.32335329367142 0
0 38.02395209606664 0
0 37.72455089846185 0
0 37.42514970085706 0
0 37.12574850325227 0
0 36.82634730564748 0
0 36.52694610804201 0
0 36.22754491043615 0
0 35.92814371283026 0
0 35.62874251522335 0
0 35.32934131761644 0
0 35.02994012000951 0
0 34.7305389224026 0
0 34.43113772479568 0
0 34.13173652718876 0
0 33.83233532958185 0
0 33.53293413197494 0
0 33.23353293436801 0
0 32.9341317367611 0
0 32.63473053915418 0
0 32.33532934154726 0
0 32.03592814394035 0
0 31.73652694633343 0
0 31.43712574872652 0
0 31.1377245511196 0
0 30.83832335351269 0
0 30.53892215590577 0
0 30.23952095829885 0
0 29.94011976069193 0
0 29.64071856308502 0
0 29.3413173654781 0
0 29.04191616787118 0
0 28.74251497026427 0
0 28.44311377265734 0
0 28.14371257505043 0
0 27.8443113774435 0
0 27.54491017983659 0
0 27.24550898222968 0
0 26.94610778462277 0
0 26.64670658701584 0
0 26.34730538940893 0
0 26.04790419180202 0
0 25.74850299419509 0
0 25.44910179658818 0
0 25.14970059898125 0
0 24.85029940137434 0
0 24.55089820376743 0
0 24.25149700616052 0
0 23.95209580855359 0
0 23.65269461094668 0
0 23.35329341333976 0
0 23.05389221573286 0
0 22.75449101812592 0
0 22.45508982051901 0
0 22.15568862291208 0
0 21.85628742530515 0
0 21.55688622769823 0
0 21.25748503009133 0
0 20.95808383248441 0
0 20.65868263487748 0
0 20.35928143727055 0
0 20.05988023966364 0
0 19.76047904205672 0
0 19.46107784444982 0
0 19.16167664684288 0
0 18.86227544923597 0
0 18.56287425162904 0
0 18.26347305402211 0
0 17.9640718564152 0
0 17.66467065880829 0
0 17.36526946120136 0
0 17.06586826359444 0
0 16.76646706598753 0
0 16.4670658683806 0
0 16.16766467077368 0
0 15.86826347316676 0
0 15.56886227555985 0
0 15.26946107795293 0
0 14.970059880346 0
0 14.67065868273907 0
0 14.37125748513216 0
0 14.07185628752525 0
0 13.77245508991832 0
0 13.4730538923114 0
0 13.17365269470449 0
0 12.87425149709756 0
0 12.57485029949063 0
0 12.27544910188372 0
0 11.97604790427681 0
0 11.67664670666989 0
0 11.37724550906296 0
0 11.07784431145605 0
0 10.77844311384911 0
0 10.4790419162422 0
0 10.17964071863528 0
0 9.880239521028372 0
0 9.580838323421446 0
0 9.28143712581452 0
0 8.982035928207594 0
0 8.682634730600682 0
0 8.383233532993771 0
0 8.083832335386845 0
0 7.784431137779919 0
0 7.485029940173007 0
0 7.185628742566081 0
0 6.886227544959155 0
0 6.586826347352243 0
0 6.287425149745332 0
0 5.988023952138406 0
0 5.68862275453148 0
0 5.389221556924568 0
0 5.089820359317628 0
0 4.79041916171073 0
0 4.491017964103804 0
0 4.191616766496892 0
0 3.892215568889966 0
0 3.59281437128304 0
0 3.293413173676115 0
0 2.994011976069217 0
0 2.694610778462291 0
0 2.395209580855365 0
0 2.095808383248439 0
0 1.796407185641527 0
0 1.497005988034601 0
0 1.197604790427675 0
0 0.8982035928207637 0
0 0.5988023952138519 0
0 0.299401197606926 0
$EndNodes
$Elements
4 670 1 670
0 1 15 1
1 1 
0 3 15 1
2 3 
1 2 1 334
3 2 5 
4 5 6 
5 6 7 
6 7 8 
7 8 9 
8 9 10 
9 10 11 
10 11 12 
11 12 13 
12 13 14 
13 14 15 
14 15 16 
15 16 17 
16 17 18 
17 18 19 
18 19 20 
19 20 21 
20 21 22 
21 22 23 
22 23 24 
23 24 25 
24 25 26 
25 26 27 
26 27 28 
27 28 29 
28 29 30 
29 30 31 
30 31 32 
31 32 33 
32 33 34 
33 34 35 
34 35 36 
35 36 37 
36 37 38 
37 38 39 
38 39 40 
39 40 41 
40 41 42 
41 42 43 
42 43 44 
43 44 45 
44 45 46 
45 46 47 
46 47 48 
47 48 49 
48 49 50 
49 50 51 
50 51 52 
51 52 53 
52 53 54 
53 54 55 
54 55 56 
55 56 57 
56 57 58 
57 58 59 
58 59 60 
59 60 61 
60 61 62 
61 62 63 
62 63 64 
63 64 65 
64 65 66 
65 66 67 
66 67 68 
67 68 69 
68 69 70 
69 70 71 
70 71 72 
71 72 73 
72 73 74 
73 74 75 
74 75 76 
75 76 77 
76 77 78 
77 78 79 
78 79 80 
79 80 81 
80 81 82 
81 82 83 
82 83 84 
83 84 85 
84 85 86 
85 86 87 
86 87 88 
87 88 89 
88 89 90 
89 90 91 
90 91 92 
91 92 93 
92 93 94 
93 94 95 
94 95 96 
95 96 97 
96 97 98 
97 98 99 
98 99 100 
99 100 101 
100 101 102 
101 102 103 
102 103 104 
103 104 105 
104 105 106 
105 106 107 
106 107 108 
107 108 109 
108 109 110 
109 110 111 
110 111 112 
111 112 113 
112 113 114 
113 114 115 
114 115 116 
115 116 117 
116 117 118 
117 118 119 
118 119 120 
119 120 121 
120 121 122 
121 122 123 
122 123 124 
123 124 125 
124 125 126 
125 126 127 
126 127 128 
127 128 129 
128 129 130 
129 130 131 
130 131 132 
131 132 133 
132 133 134 
133 134 135 
134 135 136 
135 136 137 
136 137 138 
137 138 139 
138 139 140 
139 140 141 
140 141 142 
141 142 143 
142 143 144 
143 144 145 
144 145 146 
145 146 147 
146 147 148 
147 148 149 
148 149 150 
149 150 151 
150 151 152 
151 152 153 
152 153 154 
153 154 155 
154 155 156 
155 156 157 
156 157 158 
157 158 159 
158 159 160 
159 160 161 
160 161 162 
161 162 163 
162 163 164 
163 164 165 
164 165 166 
165 166 167 
166 167 168 
167 168 169 
168 169 170 
169 170 171 
170 171 172 
171 172 173 
172 173 174 
173 174 175 
174 175 176 
175 176 177 
176 177 178 
177 178 179 
178 179 180 
179 180 181 
180 181 182 
181 182 183 
182 183 184 
183 184 185 
184 185 186 
185 186 187 
186 187 188 
187 188 189 
188 189 190 
189 190 191 
190 191 192 
191 192 193 
192 193 194 
193 194 195 
194 195 196 
195 196 197 
196 197 198 
197 198 199 
198 199 200 
199 200 201 
200 201 202 
201 202 203 
202 203 204 
203 204 205 
204 205 206 
205 206 207 
206 207 208 
207 208 209 
208 209 210 
209 210 211 
210 211 212 
211 212 213 
212 213 214 
213 214 215 
214 215 216 
215 216 217 
216 217 218 
217 218 219 
218 219 220 
219 220 221 
220 221 222 
221 222 223 
222 223 224 
223 224 225 
224 225 226 
225 226 227 
226 227 228 
227 228 229 
228 229 230 
229 230 231 
230 231 232 
231 232 233 
232 233 234 
233 234 235 
234 235 236 
235 236 237 
236 237 238 
237 238 239 
238 239 240 
239 240 241 
240 241 242 
241 242 243 
242 243 244 
243 244 245 
244 245 246 
245 246 247 
246 247 248 
247 248 249 
248 249 250 
249 250 251 
250 251 252 
251 252 253 
252 253 254 
253 254 255 
254 255 256 
255 256 257 
256 257 258 
257 258 259 
258 259 260 
259 260 261 
260 261 262 
261 262 263 
262 263 264 
263 264 265 
264 265 266 
265 266 267 
266 267 268 
267 268 269 
268 269 270 
269 270 271 
270 271 272 
271 272 273 
272 273 274 
273 274 275 
274 275 276 
275 276 277 
276 277 278 
277 278 279 
278 279 280 
279 280 281 
280 281 282 
281 282 283 
282 283 284 
283 284 285 
284 285 286 
285 286 287 
286 287 288 
287 288 289 
288 289 290 
289 290 291 
290 291 292 
291 292 293 
292 293 294 
293 294 295 
294 295 296 
295 296 297 
296 297 298 
297 298 299 
298 299 300 
299 300 301 
300 301 302 
301 302 303 
302 303 304 
303 304 305 
304 305 306 
305 306 307 
306 307 308 
307 308 309 
308 309 310 
309 310 311 
310 311 312 
311 312 313 
312 313 314 
313 314 315 
314 315 316 
315 316 317 
316 317 318 
317 318 319 
318 319 320 
319 320 321 
320 321 322 
321 322 323 
322 323 324 
323 324 325 
324 325 326 
325 326 327 
326 327 328 
327 328 329 
328 329 330 
329 330 331 
330 331 332 
331 332 333 
332 333 334 
333 334 335 
334 335 336 
335 336 337 
336 337 3 
1 4 1 334
337 4 338 
338 338 339 
339 339 340 
340 340 341 
341 341 342 
342 342 343 
343 343 344 
344 344 345 
345 345 346 
346 346 347 
347 347 348 
348 348 349 
349 349 350 
350 350 351 
351 351 352 
352 352 353 
353 353 354 
354 354 355 
355 355 356 
356 356 357 
357 357 358 
358 358 359 
359 359 360 
360 360 361 
361 361 362 
362 362 363 
363 363 364 
364 364 365 
365 365 366 
366 366 367 
367 367 368 
368 368 369 
369 369 370 
370 370 371 
371 371 372 
372 372 373 
373 373 374 
374 374 375 
375 375 376 
376 376 377 
377 377 378 
378 378 379 
379 379 380 
380 380 381 
381 381 382 
382 382 383 
383 383 384 
384 384 385 
385 385 386 
386 386 387 
387 387 388 
388 388 389 
389 389 390 
390 390 391 
391 391 392 
392 392 393 
393 393 394 
394 394 395 
395 395 396 
396 396 397 
397 397 398 
398 398 399 
399 399 400 
400 400 401 
401 401 402 
402 402 403 
403 403 404 
404 404 405 
405 405 406 
406 406 407 
407 407 408 
408 408 409 
409 409 410 
410 410 411 
411 411 412 
412 412 413 
413 413 414 
414 414 415 
415 415 416 
416 416 417 
417 417 418 
418 418 419 
419 419 420 
420 420 421 
421 421 422 
422 422 423 
423 423 424 
424 424 425 
425 425 426 
426 426 427 
427 427 428 
428 428 429 
429 429 430 
430 430 431 
431 431 432 
432 432 433 
433 433 434 
434 434 435 
435 435 436 
436 436 437 
437 437 438 
438 438 439 
439 439 440 
440 440 441 
441 441 442 
442 442 443 
443 443 444 
444 444 445 
445 445 446 
446 446 447 
447 447 448 
448 448 449 
449 449 450 
450 450 451 
451 451 452 
452 452 453 
453 453 454 
454 454 455 
455 455 456 
456 456 457 
457 457 458 
458 458 459 
459 459 460 
460 460 461 
461 461 462 
462 462 463 
463 463 464 
464 464 465 
465 465 466 
466 466 467 
467 467 468 
468 468 469 
469 469 470 
470 470 471 
471 471 472 
472 472 473 
473 473 474 
474 474 475 
475 475 476 
476 476 477 
477 477 478 
478 478 479 
479 479 480 
480 480 481 
481 481 482 
482 482 483 
483 483 484 
484 484 485 
485 485 486 
486 486 487 
487 487 488 
488 488 489 
489 489 490 
490 490 491 
491 491 492 
492 492 493 
493 493 494 
494 494 495 
495 495 496 
496 496 497 
497 497 498 
498 498 499 
499 499 500 
500 500 501 
501 501 502 
502 502 503 
503 503 504 
504 504 505 
505 505 506 
506 506 507 
507 507 508 
508 508 509 
509 509 510 
510 510 511 
511 511 512 
512 512 513 
513 513 514 
514 514 515 
515 515 516 
516 516 517 
517 517 518 
518 518 519 
519 519 520 
520 520 521 
521 521 522 
522 522 523 
523 523 524 
524 524 525 
525 525 526 
526 526 527 
527 527 528 
528 528 529 
529 529 530 
530 530 531 
531 531 532 
532 532 533 
533 533 534 
534 534 535 
535 535 536 
536 536 537 
537 537 538 
538 538 539 
539 539 540 
540 540 541 
541 541 542 
542 542 543 
543 543 544 
544 544 545 
545 545 546 
546 546 547 
547 547 548 
548 548 549 
549 549 550 
550 550 551 
551 551 552 
552 552 553 
553 553 554 
554 554 555 
555 555 556 
556 556 557 
557 557 558 
558 558 559 
559 559 560 
560 560 561 
561 561 562 
562 562 563 
563 563 564 
564 564 565 
565 565 566 
566 566 567 
567 567 568 
568 568 569 
569 569 570 
570 570 571 
571 571 572 
572 572 573 
573 573 574 
574 574 575 
575 575 576 
576 576 577 
577 577 578 
578 578 579 
579 579 580 
580 580 581 
581 581 582 
582 582 583 
583 583 584 
584 584 585 
585 585 586 
586 586 587 
587 587 588 
588 588 589 
589 589 590 
590 590 591 
591 591 592 
592 592 593 
593 593 594 
594 594 595 
595 595 596 
596 596 597 
597 597 598 
598 598 599 
599 599 600 
600 600 601 
601 601 602 
602 602 603 
603 603 604 
604 604 605 
605 605 606 
606 606 607 
607 607 608 
608 608 609 
609 609 610 
610 610 611 
611 611 612 
612 612 613 
613 613 614 
614 614 615 
615 615 616 
616 616 617 
617 617 618 
618 618 619 
619 619 620 
620 620 621 
621 621 622 
622 622 623 
623 623 624 
624 624 625 
625 625 626 
626 626 627 
627 627 628 
628 628 629 
629 629 630 
630 630 631 
631 631 632 
632 632 633 
633 633 634 
634 634 635 
635 635 636 
636 636 637 
637 637 638 
638 638 639 
639 639 640 
640 640 641 
641 641 642 
642 642 643 
643 643 644 
644 644 645 
645 645 646 
646 646 647 
647 647 648 
648 648 649 
649 649 650 
650 650 651 
651 651 652 
652 652 653 
653 653 654 
654 654 655 
655 655 656 
656 656 657 
657 657 658 
658 658 659 
659 659 660 
660 660 661 
661 661 662 
662 662 663 
663 663 664 
664 664 665 
665 665 666 
666 666 667 
667 667 668 
668 668 669 
669 669 670 
670 670 1 
$EndElements
