$MeshFormat
2.2 0 8
$EndMeshFormat
$Nodes
121
1 0 0 0
2 100 0 0
3 100 100 0
4 0 100 0
5 9.99999999996156 0 0
6 19.99999999991408 0 0
7 29.99999999986219 0 0
8 39.99999999984 0 0
9 49.99999999982364 0 0
10 59.99999999980729 0 0
11 69.99999999983591 0 0
12 79.9999999998906 0 0
13 89.9999999999453 0 0
14 100 9.99999999996156 0
15 100 19.99999999991408 0
16 100 29.99999999986219 0
17 100 39.99999999984 0
18 100 49.99999999982364 0
19 100 59.99999999980729 0
20 100 69.99999999983591 0
21 100 79.9999999998906 0
22 100 89.9999999999453 0
23 90.00000000007105 100 0
24 80.00000000014211 100 0
25 70.00000000021316 100 0
26 60.00000000025813 100 0
27 50.00000000025813 100 0
28 40.00000000025813 100 0
29 30.00000000021316 100 0
30 20.00000000014211 100 0
31 10.00000000007105 100 0
32 0 90.00000000007105 0
33 0 80.00000000014211 0
34 0 70.00000000021316 0
35 0 60.00000000025813 0
36 0 50.00000000025813 0
37 0 40.00000000025813 0
38 0 30.00000000021316 0
39 0 20.00000000014211 0
40 0 10.00000000007105 0
41 9.999999999972509 10.0000000000601 0
42 9.999999999983459 20.00000000011931 0
43 9.999999999994408 30.00000000017805 0
44 10.00000000000536 40.0000000002163 0
45 10.00000000001631 50.00000000021468 0
46 10.00000000002726 60.00000000021303 0
47 10.00000000003821 70.00000000017543 0
48 10.00000000004916 80.00000000011696 0
49 10.00000000006011 90.00000000005849 0
50 19.99999999993688 10.00000000004916 0
51 19.99999999995969 20.00000000009651 0
52 19.99999999998249 30.00000000014297 0
53 20.00000000000529 40.0000000001745 0
54 20.00000000002809 50.00000000017122 0
55 20.0000000000509 60.00000000016796 0
56 20.0000000000737 70.00000000013769 0
57 20.00000000009651 80.0000000000918 0
58 20.00000000011931 90.0000000000459 0
59 29.99999999989728 10.00000000003821 0
60 29.99999999993238 20.0000000000737 0
61 29.99999999996747 30.00000000010787 0
62 30.00000000000257 40.00000000013269 0
63 30.00000000003767 50.00000000012779 0
64 30.00000000007277 60.00000000012286 0
65 30.00000000010786 70.0000000001 0
66 30.00000000014297 80.00000000006665 0
67 30.00000000017806 90.00000000003331 0
68 39.99999999988179 10.00000000002726 0
69 39.99999999992362 20.0000000000509 0
70 39.99999999996545 30.00000000007277 0
71 40.00000000000724 40.00000000009089 0
72 40.00000000004906 50.00000000008433 0
73 40.00000000009087 60.00000000007779 0
74 40.00000000013269 70.00000000006226 0
75 40.00000000017451 80.0000000000415 0
76 40.0000000002163 90.00000000002075 0
77 49.9999999998671 10.00000000001631 0
78 49.99999999991054 20.00000000002809 0
79 49.99999999995399 30.00000000003767 0
80 49.99999999999743 40.00000000004906 0
81 50.0000000000409 50.00000000004088 0
82 50.00000000008433 60.00000000003271 0
83 50.0000000001278 70.00000000002451 0
84 50.00000000017122 80.00000000001637 0
85 50.00000000021468 90.00000000000819 0
86 59.99999999985236 10.00000000000536 0
87 59.99999999989747 20.00000000000529 0
88 59.99999999994254 30.00000000000258 0
89 59.99999999998762 40.00000000000724 0
90 60.00000000003271 49.99999999999743 0
91 60.00000000007778 59.99999999998762 0
92 60.00000000012287 69.99999999998683 0
93 60.00000000016797 79.99999999999119 0
94 60.00000000021303 89.99999999999559 0
95 69.99999999987365 9.999999999994408 0
96 69.99999999991137 19.99999999998249 0
97 69.99999999994908 29.99999999996747 0
98 69.9999999999868 39.99999999996543 0
99 70.00000000002454 49.999999999954 0
100 70.00000000006226 59.99999999994254 0
101 70.0000000001 69.99999999994908 0
102 70.00000000013772 79.99999999996606 0
103 70.00000000017542 89.99999999998303 0
104 79.99999999991576 9.999999999983459 0
105 79.99999999994091 19.99999999995969 0
106 79.99999999996606 29.99999999993238 0
107 79.99999999999119 39.99999999992363 0
108 80.00000000001637 49.99999999991054 0
109 80.0000000000415 59.99999999989745 0
110 80.00000000006665 69.99999999991134 0
111 80.0000000000918 79.99999999994091 0
112 80.00000000011697 89.99999999997044 0
113 89.99999999995788 9.999999999972511 0
114 89.99999999997044 19.99999999993689 0
115 89.99999999998303 29.99999999989728 0
116 89.99999999999562 39.99999999988181 0
117 90.00000000000819 49.9999999998671 0
118 90.00000000002075 59.99999999985238 0
119 90.00000000003334 69.99999999987364 0
120 90.00000000004593 79.99999999991577 0
121 90.00000000005851 89.99999999995789 0
$EndNodes
$Elements
144
1 15 2 0 1 1
2 15 2 0 2 2
3 15 2 0 3 3
4 15 2 0 4 4
5 1 2 0 1 1 5
6 1 2 0 1 5 6
7 1 2 0 1 6 7
8 1 2 0 1 7 8
9 1 2 0 1 8 9
10 1 2 0 1 9 10
11 1 2 0 1 10 11
12 1 2 0 1 11 12
13 1 2 0 1 12 13
14 1 2 0 1 13 2
15 1 2 0 2 2 14
16 1 2 0 2 14 15
17 1 2 0 2 15 16
18 1 2 0 2 16 17
19 1 2 0 2 17 18
20 1 2 0 2 18 19
21 1 2 0 2 19 20
22 1 2 0 2 20 21
23 1 2 0 2 21 22
24 1 2 0 2 22 3
25 1 2 0 3 3 23
26 1 2 0 3 23 24
27 1 2 0 3 24 25
28 1 2 0 3 25 26
29 1 2 0 3 26 27
30 1 2 0 3 27 28
31 1 2 0 3 28 29
32 1 2 0 3 29 30
33 1 2 0 3 30 31
34 1 2 0 3 31 4
35 1 2 0 4 4 32
36 1 2 0 4 32 33
37 1 2 0 4 33 34
38 1 2 0 4 34 35
39 1 2 0 4 35 36
40 1 2 0 4 36 37
41 1 2 0 4 37 38
42 1 2 0 4 38 39
43 1 2 0 4 39 40
44 1 2 0 4 40 1
45 3 2 0 6 1 5 41 40
46 3 2 0 6 40 41 42 39
47 3 2 0 6 39 42 43 38
48 3 2 0 6 38 43 44 37
49 3 2 0 6 37 44 45 36
50 3 2 0 6 36 45 46 35
51 3 2 0 6 35 46 47 34
52 3 2 0 6 34 47 48 33
53 3 2 0 6 33 48 49 32
54 3 2 0 6 32 49 31 4
55 3 2 0 6 5 6 50 41
56 3 2 0 6 41 50 51 42
57 3 2 0 6 42 51 52 43
58 3 2 0 6 43 52 53 44
59 3 2 0 6 44 53 54 45
60 3 2 0 6 45 54 55 46
61 3 2 0 6 46 55 56 47
62 3 2 0 6 47 56 57 48
63 3 2 0 6 48 57 58 49
64 3 2 0 6 49 58 30 31
65 3 2 0 6 6 7 59 50
66 3 2 0 6 50 59 60 51
67 3 2 0 6 51 60 61 52
68 3 2 0 6 52 61 62 53
69 3 2 0 6 53 62 63 54
70 3 2 0 6 54 63 64 55
71 3 2 0 6 55 64 65 56
72 3 2 0 6 56 65 66 57
73 3 2 0 6 57 66 67 58
74 3 2 0 6 58 67 29 30
75 3 2 0 6 7 8 68 59
76 3 2 0 6 59 68 69 60
77 3 2 0 6 60 69 70 61
78 3 2 0 6 61 70 71 62
79 3 2 0 6 62 71 72 63
80 3 2 0 6 63 72 73 64
81 3 2 0 6 64 73 74 65
82 3 2 0 6 65 74 75 66
83 3 2 0 6 66 75 76 67
84 3 2 0 6 67 76 28 29
85 3 2 0 6 8 9 77 68
86 3 2 0 6 68 77 78 69
87 3 2 0 6 69 78 79 70
88 3 2 0 6 70 79 80 71
89 3 2 0 6 71 80 81 72
90 3 2 0 6 72 81 82 73
91 3 2 0 6 73 82 83 74
92 3 2 0 6 74 83 84 75
93 3 2 0 6 75 84 85 76
94 3 2 0 6 76 85 27 28
95 3 2 0 6 9 10 86 77
96 3 2 0 6 77 86 87 78
97 3 2 0 6 78 87 88 79
98 3 2 0 6 79 88 89 80
99 3 2 0 6 80 89 90 81
100 3 2 0 6 81 90 91 82
101 3 2 0 6 82 91 92 83
102 3 2 0 6 83 92 93 84
103 3 2 0 6 84 93 94 85
104 3 2 0 6 85 94 26 27
105 3 2 0 6 10 11 95 86
106 3 2 0 6 86 95 96 87
107 3 2 0 6 87 96 97 88
108 3 2 0 6 88 97 98 89
109 3 2 0 6 89 98 99 90
110 3 2 0 6 90 99 100 91
111 3 2 0 6 91 100 101 92
112 3 2 0 6 92 101 102 93
113 3 2 0 6 93 102 103 94
114 3 2 0 6 94 103 25 26
115 3 2 0 6 11 12 104 95
116 3 2 0 6 95 104 105 96
117 3 2 0 6 96 105 106 97
118 3 2 0 6 97 106 107 98
119 3 2 0 6 98 107 108 99
120 3 2 0 6 99 108 109 100
121 3 2 0 6 100 109 110 101
122 3 2 0 6 101 110 111 102
123 3 2 0 6 102 111 112 103
124 3 2 0 6 103 112 24 25
125 3 2 0 6 12 13 113 104
126 3 2 0 6 104 113 114 105
127 3 2 0 6 105 114 115 106
128 3 2 0 6 106 115 116 107
129 3 2 0 6 107 116 117 108
130 3 2 0 6 108 117 118 109
131 3 2 0 6 109 118 119 110
132 3 2 0 6 110 119 120 111
133 3 2 0 6 111 120 121 112
134 3 2 0 6 112 121 23 24
135 3 2 0 6 13 2 14 113
136 3 2 0 6 113 14 15 114
137 3 2 0 6 114 15 16 115
138 3 2 0 6 115 16 17 116
139 3 2 0 6 116 17 18 117
140 3 2 0 6 117 18 19 118
141 3 2 0 6 118 19 20 119
142 3 2 0 6 119 20 21 120
143 3 2 0 6 120 21 22 121
144 3 2 0 6 121 22 3 23
$EndElements
