$MeshFormat
2.2 0 8
$EndMeshFormat
$Nodes
441
1 0 0 0
2 100 0 0
3 100 100 0
4 0 100 0
5 4.999999999979745 0 0
6 9.99999999996156 0 0
7 14.99999999994004 0 0
8 19.99999999991408 0 0
9 24.99999999988813 0 0
10 29.99999999986219 0 0
11 34.99999999984818 0 0
12 39.99999999984 0 0
13 44.99999999983182 0 0
14 49.99999999982364 0 0
15 54.99999999981547 0 0
16 59.99999999980729 0 0
17 64.99999999980855 0 0
18 69.99999999983591 0 0
19 74.99999999986325 0 0
20 79.9999999998906 0 0
21 84.99999999991795 0 0
22 89.9999999999453 0 0
23 94.99999999997264 0 0
24 100 4.999999999979745 0
25 100 9.99999999996156 0
26 100 14.99999999994004 0
27 100 19.99999999991408 0
28 100 24.99999999988813 0
29 100 29.99999999986219 0
30 100 34.99999999984818 0
31 100 39.99999999984 0
32 100 44.99999999983182 0
33 100 49.99999999982364 0
34 100 54.99999999981547 0
35 100 59.99999999980729 0
36 100 64.99999999980855 0
37 100 69.99999999983591 0
38 100 74.99999999986325 0
39 100 79.9999999998906 0
40 100 84.99999999991795 0
41 100 89.9999999999453 0
42 100 94.99999999997264 0
43 95.00000000003553 100 0
44 90.00000000007105 100 0
45 85.00000000010658 100 0
46 80.00000000014211 100 0
47 75.00000000017764 100 0
48 70.00000000021316 100 0
49 65.00000000024869 100 0
50 60.00000000025813 100 0
51 55.00000000025813 100 0
52 50.00000000025813 100 0
53 45.00000000025813 100 0
54 40.00000000025813 100 0
55 35.00000000024869 100 0
56 30.00000000021316 100 0
57 25.00000000017764 100 0
58 20.00000000014211 100 0
59 15.00000000010657 100 0
60 10.00000000007105 100 0
61 5.000000000035527 100 0
62 0 95.00000000003553 0
63 0 90.00000000007105 0
64 0 85.00000000010658 0
65 0 80.00000000014211 0
66 0 75.00000000017764 0
67 0 70.00000000021316 0
68 0 65.00000000024869 0
69 0 60.00000000025813 0
70 0 55.00000000025813 0
71 0 50.00000000025813 0
72 0 45.00000000025813 0
73 0 40.00000000025813 0
74 0 35.00000000024869 0
75 0 30.00000000021316 0
76 0 25.00000000017764 0
77 0 20.00000000014211 0
78 0 15.00000000010657 0
79 0 10.00000000007105 0
80 0 5.000000000035527 0
81 4.999999999982534 5.000000000032739 0
82 4.999999999985324 10.00000000006558 0
83 4.999999999988114 15.00000000009824 0
84 4.999999999990902 20.00000000013071 0
85 4.99999999999369 25.00000000016315 0
86 4.999999999996482 30.00000000019561 0
87 4.999999999999268 35.00000000022867 0
88 5.000000000002059 40.00000000023722 0
89 5.000000000004846 45.00000000023681 0
90 5.000000000007637 50.0000000002364 0
91 5.000000000010425 55.000000000236 0
92 5.000000000013214 60.00000000023559 0
93 5.000000000016003 65.00000000022666 0
94 5.000000000018793 70.00000000019431 0
95 5.000000000021583 75.00000000016193 0
96 5.000000000024372 80.00000000012955 0
97 5.000000000027161 85.00000000009716 0
98 5.000000000029949 90.00000000006474 0
99 5.000000000032738 95.00000000003239 0
100 9.999999999967036 5.000000000029949 0
101 9.999999999972511 10.00000000006011 0
102 9.999999999977984 15.00000000008992 0
103 9.99999999998346 20.00000000011931 0
104 9.999999999988933 25.00000000014869 0
105 9.999999999994408 30.00000000017807 0
106 9.999999999999883 35.00000000020863 0
107 10.00000000000536 40.0000000002163 0
108 10.00000000001083 45.00000000021549 0
109 10.00000000001631 50.00000000021468 0
110 10.00000000002178 55.00000000021386 0
111 10.00000000002726 60.00000000021303 0
112 10.00000000003273 65.00000000020466 0
113 10.00000000003821 70.00000000017543 0
114 10.00000000004368 75.0000000001462 0
115 10.00000000004916 80.00000000011696 0
116 10.00000000005463 85.00000000008771 0
117 10.00000000006011 90.00000000005849 0
118 10.00000000006558 95.00000000002925 0
119 14.99999999994837 5.000000000027161 0
120 14.9999999999567 10.00000000005463 0
121 14.99999999996503 15.00000000008159 0
122 14.99999999997335 20.00000000010791 0
123 14.99999999998168 25.0000000001342 0
124 14.99999999999 30.00000000016052 0
125 14.99999999999833 35.00000000018862 0
126 15.00000000000665 40.00000000019541 0
127 15.00000000001498 45.00000000019419 0
128 15.00000000002331 50.00000000019296 0
129 15.00000000003164 55.00000000019174 0
130 15.00000000003996 60.00000000019051 0
131 15.00000000004828 65.00000000018267 0
132 15.00000000005661 70.00000000015656 0
133 15.00000000006494 75.00000000013048 0
134 15.00000000007326 80.00000000010439 0
135 15.00000000008159 85.00000000007827 0
136 15.00000000008991 90.00000000005218 0
137 15.00000000009824 95.00000000002609 0
138 19.99999999992549 5.000000000024372 0
139 19.99999999993689 10.00000000004916 0
140 19.99999999994829 15.00000000007326 0
141 19.99999999995969 20.0000000000965 0
142 19.9999999999711 25.00000000011973 0
143 19.9999999999825 30.00000000014297 0
144 19.9999999999939 35.00000000016858 0
145 20.00000000000529 40.0000000001745 0
146 20.00000000001669 45.00000000017286 0
147 20.00000000002809 50.00000000017123 0
148 20.0000000000395 55.00000000016961 0
149 20.0000000000509 60.00000000016796 0
150 20.0000000000623 65.00000000016067 0
151 20.0000000000737 70.00000000013769 0
152 20.0000000000851 75.00000000011477 0
153 20.00000000009651 80.00000000009182 0
154 20.00000000010791 85.00000000006884 0
155 20.00000000011931 90.0000000000459 0
156 20.0000000001307 95.00000000002294 0
157 24.99999999990261 5.000000000021581 0
158 24.99999999991708 10.00000000004368 0
159 24.99999999993155 15.00000000006494 0
160 24.99999999994603 20.0000000000851 0
161 24.9999999999605 25.00000000010526 0
162 24.99999999997497 30.00000000012542 0
163 24.99999999998946 35.00000000014857 0
164 25.00000000000394 40.00000000015359 0
165 25.0000000000184 45.00000000015155 0
166 25.00000000003288 50.00000000014951 0
167 25.00000000004736 55.00000000014746 0
168 25.00000000006183 60.00000000014541 0
169 25.00000000007631 65.00000000013867 0
170 25.00000000009078 70.00000000011885 0
171 25.00000000010526 75.00000000009902 0
172 25.00000000011973 80.00000000007924 0
173 25.0000000001342 85.00000000005943 0
174 25.00000000014869 90.00000000003962 0
175 25.00000000016316 95.00000000001981 0
176 29.99999999987973 5.000000000018793 0
177 29.99999999989728 10.00000000003821 0
178 29.99999999991483 15.00000000005661 0
179 29.99999999993238 20.00000000007371 0
180 29.99999999994993 25.00000000009078 0
181 29.99999999996748 30.00000000010787 0
182 29.99999999998503 35.00000000012854 0
183 30.00000000000258 40.00000000013269 0
184 30.00000000002012 45.00000000013024 0
185 30.00000000003768 50.0000000001278 0
186 30.00000000005523 55.00000000012533 0
187 30.00000000007278 60.00000000012287 0
188 30.00000000009032 65.00000000011664 0
189 30.00000000010787 70.0000000001 0
190 30.00000000012542 75.00000000008333 0
191 30.00000000014297 80.00000000006665 0
192 30.00000000016052 85.00000000004999 0
193 30.00000000017807 90.00000000003331 0
194 30.00000000019562 95.00000000001667 0
195 34.99999999986822 5.000000000016003 0
196 34.99999999988823 10.00000000003273 0
197 34.99999999990825 15.00000000004828 0
198 34.99999999992828 20.0000000000623 0
199 34.99999999994831 25.00000000007631 0
200 34.99999999996833 30.00000000009032 0
201 34.99999999998836 35.00000000010851 0
202 35.00000000000838 40.00000000011178 0
203 35.00000000002841 45.00000000010893 0
204 35.00000000004843 50.00000000010606 0
205 35.00000000006845 55.00000000010321 0
206 35.00000000008849 60.00000000010032 0
207 35.00000000010851 65.00000000009464 0
208 35.00000000012854 70.00000000008112 0
209 35.00000000014856 75.00000000006759 0
210 35.00000000016858 80.00000000005409 0
211 35.00000000018861 85.00000000004056 0
212 35.00000000020863 90.00000000002706 0
213 35.00000000022867 95.00000000001353 0
214 39.9999999998609 5.000000000013214 0
215 39.99999999988181 10.00000000002726 0
216 39.99999999990273 15.00000000003995 0
217 39.99999999992364 20.0000000000509 0
218 39.99999999994454 25.00000000006183 0
219 39.99999999996544 30.00000000007277 0
220 39.99999999998634 35.00000000008849 0
221 40.00000000000725 40.00000000009088 0
222 40.00000000002815 45.00000000008761 0
223 40.00000000004907 50.00000000008433 0
224 40.00000000006997 55.00000000008106 0
225 40.00000000009088 60.00000000007779 0
226 40.00000000011178 65.00000000007265 0
227 40.00000000013269 70.00000000006224 0
228 40.00000000015361 75.0000000000519 0
229 40.0000000001745 80.0000000000415 0
230 40.00000000019541 85.00000000003115 0
231 40.0000000002163 90.00000000002075 0
232 40.00000000023722 95.00000000001037 0
233 44.99999999985313 5.000000000010424 0
234 44.99999999987446 10.00000000002178 0
235 44.99999999989578 15.00000000003163 0
236 44.99999999991709 20.0000000000395 0
237 44.9999999999384 25.00000000004735 0
238 44.99999999995971 30.00000000005522 0
239 44.99999999998103 35.00000000006846 0
240 45.00000000000234 40.00000000006996 0
241 45.00000000002366 45.00000000006629 0
242 45.00000000004498 50.00000000006261 0
243 45.00000000006629 55.00000000005893 0
244 45.00000000008761 60.00000000005525 0
245 45.00000000010893 65.00000000005062 0
246 45.00000000013024 70.0000000000434 0
247 45.00000000015156 75.00000000003615 0
248 45.00000000017288 80.00000000002893 0
249 45.00000000019418 85.00000000002169 0
250 45.00000000021551 90.00000000001447 0
251 45.00000000023681 95.00000000000722 0
252 49.99999999984537 5.000000000007637 0
253 49.9999999998671 10.00000000001631 0
254 49.99999999988882 15.00000000002331 0
255 49.99999999991054 20.00000000002809 0
256 49.99999999993226 25.00000000003288 0
257 49.99999999995399 30.00000000003767 0
258 49.99999999997572 35.00000000004843 0
259 49.99999999999743 40.00000000004907 0
260 50.00000000001916 45.00000000004498 0
261 50.0000000000409 50.00000000004088 0
262 50.00000000006261 55.00000000003681 0
263 50.00000000008433 60.00000000003271 0
264 50.00000000010605 65.00000000002862 0
265 50.0000000001278 70.00000000002451 0
266 50.00000000014951 75.00000000002044 0
267 50.00000000017122 80.00000000001637 0
268 50.00000000019297 85.00000000001228 0
269 50.00000000021468 90.00000000000819 0
270 50.0000000002364 95.00000000000409 0
271 54.99999999983761 5.000000000004846 0
272 54.99999999985975 10.00000000001083 0
273 54.99999999988187 15.00000000001498 0
274 54.99999999990401 20.0000000000167 0
275 54.99999999992614 25.0000000000184 0
276 54.99999999994829 30.00000000002012 0
277 54.99999999997039 35.00000000002841 0
278 54.99999999999254 40.00000000002815 0
279 55.00000000001468 45.00000000002366 0
280 55.00000000003679 50.00000000001917 0
281 55.00000000005893 55.00000000001467 0
282 55.00000000008107 60.00000000001017 0
283 55.00000000010321 65.00000000000662 0
284 55.00000000012532 70.00000000000567 0
285 55.00000000014746 75.00000000000472 0
286 55.0000000001696 80.00000000000378 0
287 55.00000000019173 85.00000000000284 0
288 55.00000000021386 90.00000000000188 0
289 55.00000000023599 95.00000000000094 0
290 59.99999999982984 5.000000000002057 0
291 59.99999999985236 10.00000000000536 0
292 59.99999999987493 15.00000000000665 0
293 59.99999999989745 20.00000000000529 0
294 59.99999999991999 25.00000000000393 0
295 59.99999999994253 30.00000000000258 0
296 59.99999999996508 35.00000000000838 0
297 59.99999999998762 40.00000000000725 0
298 60.00000000001016 45.00000000000234 0
299 60.00000000003271 49.99999999999743 0
300 60.00000000005525 54.99999999999254 0
301 60.00000000007778 59.99999999998762 0
302 60.00000000010033 64.9999999999846 0
303 60.00000000012287 69.99999999998683 0
304 60.00000000014542 74.999999999989 0
305 60.00000000016797 79.99999999999119 0
306 60.00000000019051 84.99999999999341 0
307 60.00000000021303 89.99999999999559 0
308 60.00000000023558 94.99999999999778 0
309 64.99999999983055 4.999999999999268 0
310 64.99999999985258 9.999999999999885 0
311 64.99999999987457 14.99999999999832 0
312 64.99999999989657 19.9999999999939 0
313 64.9999999999186 24.99999999998946 0
314 64.9999999999406 29.99999999998503 0
315 64.9999999999626 34.99999999998836 0
316 64.9999999999846 39.99999999998634 0
317 65.00000000000662 44.99999999998103 0
318 65.00000000002862 49.99999999997571 0
319 65.00000000005062 54.99999999997039 0
320 65.00000000007265 59.99999999996508 0
321 65.00000000009464 64.9999999999626 0
322 65.00000000011664 69.99999999996795 0
323 65.00000000013867 74.99999999997328 0
324 65.00000000016065 79.99999999997863 0
325 65.00000000018267 84.99999999998397 0
326 65.00000000020466 89.99999999998931 0
327 65.00000000022666 94.99999999999466 0
328 69.99999999985475 4.99999999999648 0
329 69.99999999987365 9.999999999994408 0
330 69.99999999989249 14.99999999999 0
331 69.99999999991137 19.99999999998249 0
332 69.99999999993021 24.99999999997497 0
333 69.99999999994908 29.99999999996748 0
334 69.99999999996794 34.99999999996832 0
335 69.99999999998681 39.99999999996544 0
336 70.00000000000568 44.99999999995971 0
337 70.00000000002454 49.999999999954 0
338 70.00000000004339 54.99999999994828 0
339 70.00000000006226 59.99999999994254 0
340 70.00000000008113 64.9999999999406 0
341 70.0000000001 69.99999999994908 0
342 70.00000000011883 74.99999999995757 0
343 70.00000000013772 79.99999999996606 0
344 70.00000000015656 84.99999999997453 0
345 70.00000000017542 89.99999999998303 0
346 70.00000000019431 94.9999999999915 0
347 74.99999999987899 4.99999999999369 0
348 74.9999999998947 9.999999999988933 0
349 74.99999999991041 14.99999999998168 0
350 74.99999999992613 19.99999999997109 0
351 74.99999999994185 24.9999999999605 0
352 74.99999999995757 29.99999999994993 0
353 74.99999999997328 34.9999999999483 0
354 74.999999999989 39.99999999994454 0
355 75.00000000000472 44.9999999999384 0
356 75.00000000002044 49.99999999993226 0
357 75.00000000003615 54.99999999992614 0
358 75.00000000005187 59.99999999991999 0
359 75.00000000006759 64.99999999991857 0
360 75.00000000008333 69.9999999999302 0
361 75.00000000009902 74.99999999994185 0
362 75.00000000011477 79.99999999995347 0
363 75.00000000013048 84.9999999999651 0
364 75.0000000001462 89.99999999997675 0
365 75.00000000016192 94.99999999998835 0
366 79.99999999990317 4.999999999990902 0
367 79.99999999991576 9.99999999998346 0
368 79.99999999992832 14.99999999997335 0
369 79.99999999994093 19.99999999995969 0
370 79.9999999999535 24.99999999994603 0
371 79.99999999996606 29.99999999993238 0
372 79.99999999997863 34.99999999992828 0
373 79.99999999999122 39.99999999992362 0
374 80.00000000000378 44.99999999991708 0
375 80.00000000001637 49.99999999991054 0
376 80.00000000002893 54.999999999904 0
377 80.0000000000415 59.99999999989745 0
378 80.00000000005409 64.99999999989656 0
379 80.00000000006665 69.99999999991134 0
380 80.00000000007924 74.99999999992613 0
381 80.0000000000918 79.99999999994091 0
382 80.00000000010436 84.99999999995566 0
383 80.00000000011697 89.99999999997044 0
384 80.00000000012956 94.99999999998523 0
385 84.9999999999274 4.999999999988114 0
386 84.99999999993682 9.999999999977984 0
387 84.99999999994625 14.99999999996502 0
388 84.99999999995566 19.9999999999483 0
389 84.9999999999651 24.99999999993154 0
390 84.99999999997453 29.99999999991483 0
391 84.99999999998397 34.99999999990825 0
392 84.99999999999341 39.99999999990273 0
393 85.00000000000284 44.99999999989576 0
394 85.00000000001228 49.99999999988883 0
395 85.00000000002169 54.99999999988188 0
396 85.00000000003115 59.99999999987492 0
397 85.00000000004056 64.99999999987457 0
398 85.00000000004999 69.99999999989249 0
399 85.00000000005943 74.99999999991041 0
400 85.00000000006884 79.99999999992832 0
401 85.00000000007827 84.99999999994623 0
402 85.00000000008771 89.99999999996416 0
403 85.00000000009715 94.99999999998205 0
404 89.9999999999516 4.999999999985324 0
405 89.99999999995788 9.999999999972511 0
406 89.99999999996416 14.99999999995669 0
407 89.99999999997044 19.99999999993688 0
408 89.99999999997675 24.99999999991708 0
409 89.99999999998303 29.99999999989728 0
410 89.99999999998931 34.99999999988823 0
411 89.99999999999562 39.99999999988181 0
412 90.00000000000188 44.99999999987445 0
413 90.00000000000819 49.9999999998671 0
414 90.00000000001447 54.99999999985975 0
415 90.00000000002075 59.99999999985238 0
416 90.00000000002706 64.99999999985258 0
417 90.00000000003334 69.99999999987364 0
418 90.00000000003962 74.99999999989467 0
419 90.00000000004593 79.99999999991577 0
420 90.00000000005218 84.99999999993682 0
421 90.00000000005851 89.99999999995789 0
422 90.00000000006474 94.99999999997894 0
423 94.9999999999758 4.999999999982535 0
424 94.99999999997891 9.999999999967034 0
425 94.99999999998209 14.99999999994837 0
426 94.99999999998519 19.99999999992549 0
427 94.99999999998838 24.9999999999026 0
428 94.99999999999149 29.99999999987973 0
429 94.99999999999466 34.9999999998682 0
430 94.99999999999778 39.9999999998609 0
431 95.00000000000094 44.99999999985313 0
432 95.00000000000409 49.99999999984536 0
433 95.00000000000722 54.99999999983761 0
434 95.0000000000104 59.99999999982983 0
435 95.0000000000135 64.99999999983058 0
436 95.00000000001666 69.99999999985478 0
437 95.00000000001981 74.99999999987898 0
438 95.00000000002298 79.99999999990321 0
439 95.00000000002608 84.99999999992735 0
440 95.00000000002922 89.9999999999516 0
441 95.0000000000324 94.99999999997578 0
$EndNodes
$Elements
484
1 15 2 0 1 1
2 15 2 0 2 2
3 15 2 0 3 3
4 15 2 0 4 4
5 1 2 0 1 1 5
6 1 2 0 1 5 6
7 1 2 0 1 6 7
8 1 2 0 1 7 8
9 1 2 0 1 8 9
10 1 2 0 1 9 10
11 1 2 0 1 10 11
12 1 2 0 1 11 12
13 1 2 0 1 12 13
14 1 2 0 1 13 14
15 1 2 0 1 14 15
16 1 2 0 1 15 16
17 1 2 0 1 16 17
18 1 2 0 1 17 18
19 1 2 0 1 18 19
20 1 2 0 1 19 20
21 1 2 0 1 20 21
22 1 2 0 1 21 22
23 1 2 0 1 22 23
24 1 2 0 1 23 2
25 1 2 0 2 2 24
26 1 2 0 2 24 25
27 1 2 0 2 25 26
28 1 2 0 2 26 27
29 1 2 0 2 27 28
30 1 2 0 2 28 29
31 1 2 0 2 29 30
32 1 2 0 2 30 31
33 1 2 0 2 31 32
34 1 2 0 2 32 33
35 1 2 0 2 33 34
36 1 2 0 2 34 35
37 1 2 0 2 35 36
38 1 2 0 2 36 37
39 1 2 0 2 37 38
40 1 2 0 2 38 39
41 1 2 0 2 39 40
42 1 2 0 2 40 41
43 1 2 0 2 41 42
44 1 2 0 2 42 3
45 1 2 0 3 3 43
46 1 2 0 3 43 44
47 1 2 0 3 44 45
48 1 2 0 3 45 46
49 1 2 0 3 46 47
50 1 2 0 3 47 48
51 1 2 0 3 48 49
52 1 2 0 3 49 50
53 1 2 0 3 50 51
54 1 2 0 3 51 52
55 1 2 0 3 52 53
56 1 2 0 3 53 54
57 1 2 0 3 54 55
58 1 2 0 3 55 56
59 1 2 0 3 56 57
60 1 2 0 3 57 58
61 1 2 0 3 58 59
62 1 2 0 3 59 60
63 1 2 0 3 60 61
64 1 2 0 3 61 4
65 1 2 0 4 4 62
66 1 2 0 4 62 63
67 1 2 0 4 63 64
68 1 2 0 4 64 65
69 1 2 0 4 65 66
70 1 2 0 4 66 67
71 1 2 0 4 67 68
72 1 2 0 4 68 69
73 1 2 0 4 69 70
74 1 2 0 4 70 71
75 1 2 0 4 71 72
76 1 2 0 4 72 73
77 1 2 0 4 73 74
78 1 2 0 4 74 75
79 1 2 0 4 75 76
80 1 2 0 4 76 77
81 1 2 0 4 77 78
82 1 2 0 4 78 79
83 1 2 0 4 79 80
84 1 2 0 4 80 1
85 3 2 0 6 1 5 81 80
86 3 2 0 6 80 81 82 79
87 3 2 0 6 79 82 83 78
88 3 2 0 6 78 83 84 77
89 3 2 0 6 77 84 85 76
90 3 2 0 6 76 85 86 75
91 3 2 0 6 75 86 87 74
92 3 2 0 6 74 87 88 73
93 3 2 0 6 73 88 89 72
94 3 2 0 6 72 89 90 71
95 3 2 0 6 71 90 91 70
96 3 2 0 6 70 91 92 69
97 3 2 0 6 69 92 93 68
98 3 2 0 6 68 93 94 67
99 3 2 0 6 67 94 95 66
100 3 2 0 6 66 95 96 65
101 3 2 0 6 65 96 97 64
102 3 2 0 6 64 97 98 63
103 3 2 0 6 63 98 99 62
104 3 2 0 6 62 99 61 4
105 3 2 0 6 5 6 100 81
106 3 2 0 6 81 100 101 82
107 3 2 0 6 82 101 102 83
108 3 2 0 6 83 102 103 84
109 3 2 0 6 84 103 104 85
110 3 2 0 6 85 104 105 86
111 3 2 0 6 86 105 106 87
112 3 2 0 6 87 106 107 88
113 3 2 0 6 88 107 108 89
114 3 2 0 6 89 108 109 90
115 3 2 0 6 90 109 110 91
116 3 2 0 6 91 110 111 92
117 3 2 0 6 92 111 112 93
118 3 2 0 6 93 112 113 94
119 3 2 0 6 94 113 114 95
120 3 2 0 6 95 114 115 96
121 3 2 0 6 96 115 116 97
122 3 2 0 6 97 116 117 98
123 3 2 0 6 98 117 118 99
124 3 2 0 6 99 118 60 61
125 3 2 0 6 6 7 119 100
126 3 2 0 6 100 119 120 101
127 3 2 0 6 101 120 121 102
128 3 2 0 6 102 121 122 103
129 3 2 0 6 103 122 123 104
130 3 2 0 6 104 123 124 105
131 3 2 0 6 105 124 125 106
132 3 2 0 6 106 125 126 107
133 3 2 0 6 107 126 127 108
134 3 2 0 6 108 127 128 109
135 3 2 0 6 109 128 129 110
136 3 2 0 6 110 129 130 111
137 3 2 0 6 111 130 131 112
138 3 2 0 6 112 131 132 113
139 3 2 0 6 113 132 133 114
140 3 2 0 6 114 133 134 115
141 3 2 0 6 115 134 135 116
142 3 2 0 6 116 135 136 117
143 3 2 0 6 117 136 137 118
144 3 2 0 6 118 137 59 60
145 3 2 0 6 7 8 138 119
146 3 2 0 6 119 138 139 120
147 3 2 0 6 120 139 140 121
148 3 2 0 6 121 140 141 122
149 3 2 0 6 122 141 142 123
150 3 2 0 6 123 142 143 124
151 3 2 0 6 124 143 144 125
152 3 2 0 6 125 144 145 126
153 3 2 0 6 126 145 146 127
154 3 2 0 6 127 146 147 128
155 3 2 0 6 128 147 148 129
156 3 2 0 6 129 148 149 130
157 3 2 0 6 130 149 150 131
158 3 2 0 6 131 150 151 132
159 3 2 0 6 132 151 152 133
160 3 2 0 6 133 152 153 134
161 3 2 0 6 134 153 154 135
162 3 2 0 6 135 154 155 136
163 3 2 0 6 136 155 156 137
164 3 2 0 6 137 156 58 59
165 3 2 0 6 8 9 157 138
166 3 2 0 6 138 157 158 139
167 3 2 0 6 139 158 159 140
168 3 2 0 6 140 159 160 141
169 3 2 0 6 141 160 161 142
170 3 2 0 6 142 161 162 143
171 3 2 0 6 143 162 163 144
172 3 2 0 6 144 163 164 145
173 3 2 0 6 145 164 165 146
174 3 2 0 6 146 165 166 147
175 3 2 0 6 147 166 167 148
176 3 2 0 6 148 167 168 149
177 3 2 0 6 149 168 169 150
178 3 2 0 6 150 169 170 151
179 3 2 0 6 151 170 171 152
180 3 2 0 6 152 171 172 153
181 3 2 0 6 153 172 173 154
182 3 2 0 6 154 173 174 155
183 3 2 0 6 155 174 175 156
184 3 2 0 6 156 175 57 58
185 3 2 0 6 9 10 176 157
186 3 2 0 6 157 176 177 158
187 3 2 0 6 158 177 178 159
188 3 2 0 6 159 178 179 160
189 3 2 0 6 160 179 180 161
190 3 2 0 6 161 180 181 162
191 3 2 0 6 162 181 182 163
192 3 2 0 6 163 182 183 164
193 3 2 0 6 164 183 184 165
194 3 2 0 6 165 184 185 166
195 3 2 0 6 166 185 186 167
196 3 2 0 6 167 186 187 168
197 3 2 0 6 168 187 188 169
198 3 2 0 6 169 188 189 170
199 3 2 0 6 170 189 190 171
200 3 2 0 6 171 190 191 172
201 3 2 0 6 172 191 192 173
202 3 2 0 6 173 192 193 174
203 3 2 0 6 174 193 194 175
204 3 2 0 6 175 194 56 57
205 3 2 0 6 10 11 195 176
206 3 2 0 6 176 195 196 177
207 3 2 0 6 177 196 197 178
208 3 2 0 6 178 197 198 179
209 3 2 0 6 179 198 199 180
210 3 2 0 6 180 199 200 181
211 3 2 0 6 181 200 201 182
212 3 2 0 6 182 201 202 183
213 3 2 0 6 183 202 203 184
214 3 2 0 6 184 203 204 185
215 3 2 0 6 185 204 205 186
216 3 2 0 6 186 205 206 187
217 3 2 0 6 187 206 207 188
218 3 2 0 6 188 207 208 189
219 3 2 0 6 189 208 209 190
220 3 2 0 6 190 209 210 191
221 3 2 0 6 191 210 211 192
222 3 2 0 6 192 211 212 193
223 3 2 0 6 193 212 213 194
224 3 2 0 6 194 213 55 56
225 3 2 0 6 11 12 214 195
226 3 2 0 6 195 214 215 196
227 3 2 0 6 196 215 216 197
228 3 2 0 6 197 216 217 198
229 3 2 0 6 198 217 218 199
230 3 2 0 6 199 218 219 200
231 3 2 0 6 200 219 220 201
232 3 2 0 6 201 220 221 202
233 3 2 0 6 202 221 222 203
234 3 2 0 6 203 222 223 204
235 3 2 0 6 204 223 224 205
236 3 2 0 6 205 224 225 206
237 3 2 0 6 206 225 226 207
238 3 2 0 6 207 226 227 208
239 3 2 0 6 208 227 228 209
240 3 2 0 6 209 228 229 210
241 3 2 0 6 210 229 230 211
242 3 2 0 6 211 230 231 212
243 3 2 0 6 212 231 232 213
244 3 2 0 6 213 232 54 55
245 3 2 0 6 12 13 233 214
246 3 2 0 6 214 233 234 215
247 3 2 0 6 215 234 235 216
248 3 2 0 6 216 235 236 217
249 3 2 0 6 217 236 237 218
250 3 2 0 6 218 237 238 219
251 3 2 0 6 219 238 239 220
252 3 2 0 6 220 239 240 221
253 3 2 0 6 221 240 241 222
254 3 2 0 6 222 241 242 223
255 3 2 0 6 223 242 243 224
256 3 2 0 6 224 243 244 225
257 3 2 0 6 225 244 245 226
258 3 2 0 6 226 245 246 227
259 3 2 0 6 227 246 247 228
260 3 2 0 6 228 247 248 229
261 3 2 0 6 229 248 249 230
262 3 2 0 6 230 249 250 231
263 3 2 0 6 231 250 251 232
264 3 2 0 6 232 251 53 54
265 3 2 0 6 13 14 252 233
266 3 2 0 6 233 252 253 234
267 3 2 0 6 234 253 254 235
268 3 2 0 6 235 254 255 236
269 3 2 0 6 236 255 256 237
270 3 2 0 6 237 256 257 238
271 3 2 0 6 238 257 258 239
272 3 2 0 6 239 258 259 240
273 3 2 0 6 240 259 260 241
274 3 2 0 6 241 260 261 242
275 3 2 0 6 242 261 262 243
276 3 2 0 6 243 262 263 244
277 3 2 0 6 244 263 264 245
278 3 2 0 6 245 264 265 246
279 3 2 0 6 246 265 266 247
280 3 2 0 6 247 266 267 248
281 3 2 0 6 248 267 268 249
282 3 2 0 6 249 268 269 250
283 3 2 0 6 250 269 270 251
284 3 2 0 6 251 270 52 53
285 3 2 0 6 14 15 271 252
286 3 2 0 6 252 271 272 253
287 3 2 0 6 253 272 273 254
288 3 2 0 6 254 273 274 255
289 3 2 0 6 255 274 275 256
290 3 2 0 6 256 275 276 257
291 3 2 0 6 257 276 277 258
292 3 2 0 6 258 277 278 259
293 3 2 0 6 259 278 279 260
294 3 2 0 6 260 279 280 261
295 3 2 0 6 261 280 281 262
296 3 2 0 6 262 281 282 263
297 3 2 0 6 263 282 283 264
298 3 2 0 6 264 283 284 265
299 3 2 0 6 265 284 285 266
300 3 2 0 6 266 285 286 267
301 3 2 0 6 267 286 287 268
302 3 2 0 6 268 287 288 269
303 3 2 0 6 269 288 289 270
304 3 2 0 6 270 289 51 52
305 3 2 0 6 15 16 290 271
306 3 2 0 6 271 290 291 272
307 3 2 0 6 272 291 292 273
308 3 2 0 6 273 292 293 274
309 3 2 0 6 274 293 294 275
310 3 2 0 6 275 294 295 276
311 3 2 0 6 276 295 296 277
312 3 2 0 6 277 296 297 278
313 3 2 0 6 278 297 298 279
314 3 2 0 6 279 298 299 280
315 3 2 0 6 280 299 300 281
316 3 2 0 6 281 300 301 282
317 3 2 0 6 282 301 302 283
318 3 2 0 6 283 302 303 284
319 3 2 0 6 284 303 304 285
320 3 2 0 6 285 304 305 286
321 3 2 0 6 286 305 306 287
322 3 2 0 6 287 306 307 288
323 3 2 0 6 288 307 308 289
324 3 2 0 6 289 308 50 51
325 3 2 0 6 16 17 309 290
326 3 2 0 6 290 309 310 291
327 3 2 0 6 291 310 311 292
328 3 2 0 6 292 311 312 293
329 3 2 0 6 293 312 313 294
330 3 2 0 6 294 313 314 295
331 3 2 0 6 295 314 315 296
332 3 2 0 6 296 315 316 297
333 3 2 0 6 297 316 317 298
334 3 2 0 6 298 317 318 299
335 3 2 0 6 299 318 319 300
336 3 2 0 6 300 319 320 301
337 3 2 0 6 301 320 321 302
338 3 2 0 6 302 321 322 303
339 3 2 0 6 303 322 323 304
340 3 2 0 6 304 323 324 305
341 3 2 0 6 305 324 325 306
342 3 2 0 6 306 325 326 307
343 3 2 0 6 307 326 327 308
344 3 2 0 6 308 327 49 50
345 3 2 0 6 17 18 328 309
346 3 2 0 6 309 328 329 310
347 3 2 0 6 310 329 330 311
348 3 2 0 6 311 330 331 312
349 3 2 0 6 312 331 332 313
350 3 2 0 6 313 332 333 314
351 3 2 0 6 314 333 334 315
352 3 2 0 6 315 334 335 316
353 3 2 0 6 316 335 336 317
354 3 2 0 6 317 336 337 318
355 3 2 0 6 318 337 338 319
356 3 2 0 6 319 338 339 320
357 3 2 0 6 320 339 340 321
358 3 2 0 6 321 340 341 322
359 3 2 0 6 322 341 342 323
360 3 2 0 6 323 342 343 324
361 3 2 0 6 324 343 344 325
362 3 2 0 6 325 344 345 326
363 3 2 0 6 326 345 346 327
364 3 2 0 6 327 346 48 49
365 3 2 0 6 18 19 347 328
366 3 2 0 6 328 347 348 329
367 3 2 0 6 329 348 349 330
368 3 2 0 6 330 349 350 331
369 3 2 0 6 331 350 351 332
370 3 2 0 6 332 351 352 333
371 3 2 0 6 333 352 353 334
372 3 2 0 6 334 353 354 335
373 3 2 0 6 335 354 355 336
374 3 2 0 6 336 355 356 337
375 3 2 0 6 337 356 357 338
376 3 2 0 6 338 357 358 339
377 3 2 0 6 339 358 359 340
378 3 2 0 6 340 359 360 341
379 3 2 0 6 341 360 361 342
380 3 2 0 6 342 361 362 343
381 3 2 0 6 343 362 363 344
382 3 2 0 6 344 363 364 345
383 3 2 0 6 345 364 365 346
384 3 2 0 6 346 365 47 48
385 3 2 0 6 19 20 366 347
386 3 2 0 6 347 366 367 348
387 3 2 0 6 348 367 368 349
388 3 2 0 6 349 368 369 350
389 3 2 0 6 350 369 370 351
390 3 2 0 6 351 370 371 352
391 3 2 0 6 352 371 372 353
392 3 2 0 6 353 372 373 354
393 3 2 0 6 354 373 374 355
394 3 2 0 6 355 374 375 356
395 3 2 0 6 356 375 376 357
396 3 2 0 6 357 376 377 358
397 3 2 0 6 358 377 378 359
398 3 2 0 6 359 378 379 360
399 3 2 0 6 360 379 380 361
400 3 2 0 6 361 380 381 362
401 3 2 0 6 362 381 382 363
402 3 2 0 6 363 382 383 364
403 3 2 0 6 364 383 384 365
404 3 2 0 6 365 384 46 47
405 3 2 0 6 20 21 385 366
406 3 2 0 6 366 385 386 367
407 3 2 0 6 367 386 387 368
408 3 2 0 6 368 387 388 369
409 3 2 0 6 369 388 389 370
410 3 2 0 6 370 389 390 371
411 3 2 0 6 371 390 391 372
412 3 2 0 6 372 391 392 373
413 3 2 0 6 373 392 393 374
414 3 2 0 6 374 393 394 375
415 3 2 0 6 375 394 395 376
416 3 2 0 6 376 395 396 377
417 3 2 0 6 377 396 397 378
418 3 2 0 6 378 397 398 379
419 3 2 0 6 379 398 399 380
420 3 2 0 6 380 399 400 381
421 3 2 0 6 381 400 401 382
422 3 2 0 6 382 401 402 383
423 3 2 0 6 383 402 403 384
424 3 2 0 6 384 403 45 46
425 3 2 0 6 21 22 404 385
426 3 2 0 6 385 404 405 386
427 3 2 0 6 386 405 406 387
428 3 2 0 6 387 406 407 388
429 3 2 0 6 388 407 408 389
430 3 2 0 6 389 408 409 390
431 3 2 0 6 390 409 410 391
432 3 2 0 6 391 410 411 392
433 3 2 0 6 392 411 412 393
434 3 2 0 6 393 412 413 394
435 3 2 0 6 394 413 414 395
436 3 2 0 6 395 414 415 396
437 3 2 0 6 396 415 416 397
438 3 2 0 6 397 416 417 398
439 3 2 0 6 398 417 418 399
440 3 2 0 6 399 418 419 400
441 3 2 0 6 400 419 420 401
442 3 2 0 6 401 420 421 402
443 3 2 0 6 402 421 422 403
444 3 2 0 6 403 422 44 45
445 3 2 0 6 22 23 423 404
446 3 2 0 6 404 423 424 405
447 3 2 0 6 405 424 425 406
448 3 2 0 6 406 425 426 407
449 3 2 0 6 407 426 427 408
450 3 2 0 6 408 427 428 409
451 3 2 0 6 409 428 429 410
452 3 2 0 6 410 429 430 411
453 3 2 0 6 411 430 431 412
454 3 2 0 6 412 431 432 413
455 3 2 0 6 413 432 433 414
456 3 2 0 6 414 433 434 415
457 3 2 0 6 415 434 435 416
458 3 2 0 6 416 435 436 417
459 3 2 0 6 417 436 437 418
460 3 2 0 6 418 437 438 419
461 3 2 0 6 419 438 439 420
462 3 2 0 6 420 439 440 421
463 3 2 0 6 421 440 441 422
464 3 2 0 6 422 441 43 44
465 3 2 0 6 23 2 24 423
466 3 2 0 6 423 24 25 424
467 3 2 0 6 424 25 26 425
468 3 2 0 6 425 26 27 426
469 3 2 0 6 426 27 28 427
470 3 2 0 6 427 28 29 428
471 3 2 0 6 428 29 30 429
472 3 2 0 6 429 30 31 430
473 3 2 0 6 430 31 32 431
474 3 2 0 6 431 32 33 432
475 3 2 0 6 432 33 34 433
476 3 2 0 6 433 34 35 434
477 3 2 0 6 434 35 36 435
478 3 2 0 6 435 36 37 436
479 3 2 0 6 436 37 38 437
480 3 2 0 6 437 38 39 438
481 3 2 0 6 438 39 40 439
482 3 2 0 6 439 40 41 440
483 3 2 0 6 440 41 42 441
484 3 2 0 6 441 42 3 43
$EndElements
