$MeshFormat
2.2 0 8
$EndMeshFormat
$Nodes
121
1 0 0 0
2 10 0 0
3 10 10 0
4 0 10 0
5 0.9999999999991853 0 0
6 1.999999999996818 0 0
7 2.999999999993897 0 0
8 3.999999999991012 0 0
9 4.999999999992394 0 0
10 5.999999999993916 0 0
11 6.999999999995437 0 0
12 7.999999999996959 0 0
13 8.999999999998479 0 0
14 10 0.9999999999991853 0
15 10 1.999999999996818 0
16 10 2.999999999993897 0
17 10 3.999999999991012 0
18 10 4.999999999992394 0
19 10 5.999999999993916 0
20 10 6.999999999995437 0
21 10 7.999999999996959 0
22 10 8.999999999998479 0
23 9.000000000000002 10 0
24 8.000000000000004 10 0
25 7.000000000000005 10 0
26 6.000000000000004 10 0
27 5.000000000000004 10 0
28 4.000000000000004 10 0
29 3.000000000000003 10 0
30 2.000000000000002 10 0
31 1 10 0
32 0 9.000000000000002 0
33 0 8.000000000000004 0
34 0 7.000000000000005 0
35 0 6.000000000000004 0
36 0 5.000000000000004 0
37 0 4.000000000000004 0
38 0 3.000000000000003 0
39 0 2.000000000000002 0
40 0 1 0
41 1.064572839890727 0.9820256408476662 0
42 1.197993881332391 1.969560061285649 0
43 1.205297666015391 3.09976651478927 0
44 1.070532805665687 3.939755699933485 0
45 1.031455095303178 4.751273568193731 0
46 0.9269026211983482 5.868331954355918 0
47 0.8819568701819991 6.816400518825961 0
48 0.9706490809365886 8.008778666609127 0
49 0.9292302458116448 9.014419936662129 0
50 2.048840742382072 0.9219169703103937 0
51 1.921778140407633 2.240796163985526 0
52 1.862497579233505 3.106930838572196 0
53 2.027152267348709 3.745242883893834 0
54 2.025591960661396 5.096000655397884 0
55 1.984965723288257 5.960856519572179 0
56 1.906420252907735 6.940116959774317 0
57 2.044670377643264 7.770804779802241 0
58 1.949939303545563 8.912000139959924 0
59 3.134029937918982 1.121066415484862 0
60 2.95980239113446 2.04306424608151 0
61 2.937707349075839 2.975864333031873 0
62 2.844493138865852 4.10562835690855 0
63 2.990638684191507 5.130459276723684 0
64 2.916134431898894 6.04698142871427 0
65 2.995342614913877 7.203403675254457 0
66 3.10684732556756 8.011316118870054 0
67 3.011928900949008 8.741616041101429 0
68 4.046424634288437 1.192126225816072 0
69 3.894895831616696 1.934771584332738 0
70 4.042737644249467 2.931131173507846 0
71 4.012620081409853 4.125923848765683 0
72 3.957403920937797 4.949025940089782 0
73 4.038495636014801 6.033937185380956 0
74 3.969503672658536 6.816001803531625 0
75 3.955447112849724 7.895703954999976 0
76 4.052526611384995 9.245204167156761 0
77 5.033481550787113 0.9903220309499915 0
78 4.996553196185516 2.007829927290743 0
79 4.974993074573134 3.039201154500319 0
80 4.848071855104896 4.148566965882461 0
81 5.102834153111795 4.881779630872883 0
82 4.817759361833962 6.076291422190995 0
83 4.871230277730731 6.92638129514936 0
84 4.934548164963375 7.798413753959884 0
85 4.861900517214851 9.061567015981813 0
86 6.201491472646804 0.8981770719958007 0
87 6.105757238253194 1.839987638861677 0
88 6.169928558052459 2.791027179503379 0
89 6.033784763248645 4.10163697332566 0
90 5.828340640296005 5.067852403525635 0
91 6.032564070542534 6.045038267230956 0
92 6.030192980629107 7.038099421526094 0
93 6.242550686447606 8.061598279716709 0
94 6.085351969121791 8.873291382869537 0
95 7.150617425266853 0.8933112986137076 0
96 7.053661520498094 2.106867820797057 0
97 6.968099544916433 2.902014298629255 0
98 6.893944662951758 3.989976777769876 0
99 7.035969803910623 5.107533822369362 0
100 7.18895943002863 5.965594611674808 0
101 7.081336755208085 6.888569517662689 0
102 7.062721413980706 7.970949837905513 0
103 7.061520891194109 8.990532241353543 0
104 7.8030698607881 0.9419530562306355 0
105 8.027832186734496 1.838053958764897 0
106 8.050091259362624 2.885098533288972 0
107 8.007567133396156 3.85141386127483 0
108 8.072901988426352 5.140796661606702 0
109 7.820902982164364 5.878082744806168 0
110 8.066792173617678 7.066956199216135 0
111 8.074215766389507 8.147623533221044 0
112 8.084680862669451 8.95901499819554 0
113 8.89953272210875 0.9692135811230657 0
114 9.010643638119006 2.300905613664692 0
115 9.089213824747624 2.790346936739853 0
116 9.141563577604847 4.008356402474322 0
117 8.907010517795445 5.088347707354662 0
118 9.028139616645047 6.005924339182021 0
119 9.278712731611838 7.082409472897233 0
120 9.024239060919726 7.913967759577372 0
121 8.896972304003594 8.985084262607936 0
$EndNodes
$Elements
144
1 15 2 0 1 1
2 15 2 0 2 2
3 15 2 0 3 3
4 15 2 0 4 4
5 1 2 0 1 1 5
6 1 2 0 1 5 6
7 1 2 0 1 6 7
8 1 2 0 1 7 8
9 1 2 0 1 8 9
10 1 2 0 1 9 10
11 1 2 0 1 10 11
12 1 2 0 1 11 12
13 1 2 0 1 12 13
14 1 2 0 1 13 2
15 1 2 0 2 2 14
16 1 2 0 2 14 15
17 1 2 0 2 15 16
18 1 2 0 2 16 17
19 1 2 0 2 17 18
20 1 2 0 2 18 19
21 1 2 0 2 19 20
22 1 2 0 2 20 21
23 1 2 0 2 21 22
24 1 2 0 2 22 3
25 1 2 0 3 3 23
26 1 2 0 3 23 24
27 1 2 0 3 24 25
28 1 2 0 3 25 26
29 1 2 0 3 26 27
30 1 2 0 3 27 28
31 1 2 0 3 28 29
32 1 2 0 3 29 30
33 1 2 0 3 30 31
34 1 2 0 3 31 4
35 1 2 0 4 4 32
36 1 2 0 4 32 33
37 1 2 0 4 33 34
38 1 2 0 4 34 35
39 1 2 0 4 35 36
40 1 2 0 4 36 37
41 1 2 0 4 37 38
42 1 2 0 4 38 39
43 1 2 0 4 39 40
44 1 2 0 4 40 1
45 3 2 0 1 1 5 41 40
46 3 2 0 1 40 41 42 39
47 3 2 0 1 39 42 43 38
48 3 2 0 1 38 43 44 37
49 3 2 0 1 37 44 45 36
50 3 2 0 1 36 45 46 35
51 3 2 0 1 35 46 47 34
52 3 2 0 1 34 47 48 33
53 3 2 0 1 33 48 49 32
54 3 2 0 1 32 49 31 4
55 3 2 0 1 5 6 50 41
56 3 2 0 1 41 50 51 42
57 3 2 0 1 42 51 52 43
58 3 2 0 1 43 52 53 44
59 3 2 0 1 44 53 54 45
60 3 2 0 1 45 54 55 46
61 3 2 0 1 46 55 56 47
62 3 2 0 1 47 56 57 48
63 3 2 0 1 48 57 58 49
64 3 2 0 1 49 58 30 31
65 3 2 0 1 6 7 59 50
66 3 2 0 1 50 59 60 51
67 3 2 0 1 51 60 61 52
68 3 2 0 1 52 61 62 53
69 3 2 0 1 53 62 63 54
70 3 2 0 1 54 63 64 55
71 3 2 0 1 55 64 65 56
72 3 2 0 1 56 65 66 57
73 3 2 0 1 57 66 67 58
74 3 2 0 1 58 67 29 30
75 3 2 0 1 7 8 68 59
76 3 2 0 1 59 68 69 60
77 3 2 0 1 60 69 70 61
78 3 2 0 1 61 70 71 62
79 3 2 0 1 62 71 72 63
80 3 2 0 1 63 72 73 64
81 3 2 0 1 64 73 74 65
82 3 2 0 1 65 74 75 66
83 3 2 0 1 66 75 76 67
84 3 2 0 1 67 76 28 29
85 3 2 0 1 8 9 77 68
86 3 2 0 1 68 77 78 69
87 3 2 0 1 69 78 79 70
88 3 2 0 1 70 79 80 71
89 3 2 0 1 71 80 81 72
90 3 2 0 1 72 81 82 73
91 3 2 0 1 73 82 83 74
92 3 2 0 1 74 83 84 75
93 3 2 0 1 75 84 85 76
94 3 2 0 1 76 85 27 28
95 3 2 0 1 9 10 86 77
96 3 2 0 1 77 86 87 78
97 3 2 0 1 78 87 88 79
98 3 2 0 1 79 88 89 80
99 3 2 0 1 80 89 90 81
100 3 2 0 1 81 90 91 82
101 3 2 0 1 82 91 92 83
102 3 2 0 1 83 92 93 84
103 3 2 0 1 84 93 94 85
104 3 2 0 1 85 94 26 27
105 3 2 0 1 10 11 95 86
106 3 2 0 1 86 95 96 87
107 3 2 0 1 87 96 97 88
108 3 2 0 1 88 97 98 89
109 3 2 0 1 89 98 99 90
110 3 2 0 1 90 99 100 91
111 3 2 0 1 91 100 101 92
112 3 2 0 1 92 101 102 93
113 3 2 0 1 93 102 103 94
114 3 2 0 1 94 103 25 26
115 3 2 0 1 11 12 104 95
116 3 2 0 1 95 104 105 96
117 3 2 0 1 96 105 106 97
118 3 2 0 1 97 106 107 98
119 3 2 0 1 98 107 108 99
120 3 2 0 1 99 108 109 100
121 3 2 0 1 100 109 110 101
122 3 2 0 1 101 110 111 102
123 3 2 0 1 102 111 112 103
124 3 2 0 1 103 112 24 25
125 3 2 0 1 12 13 113 104
126 3 2 0 1 104 113 114 105
127 3 2 0 1 105 114 115 106
128 3 2 0 1 106 115 116 107
129 3 2 0 1 107 116 117 108
130 3 2 0 1 108 117 118 109
131 3 2 0 1 109 118 119 110
132 3 2 0 1 110 119 120 111
133 3 2 0 1 111 120 121 112
134 3 2 0 1 112 121 23 24
135 3 2 0 1 13 2 14 113
136 3 2 0 1 113 14 15 114
137 3 2 0 1 114 15 16 115
138 3 2 0 1 115 16 17 116
139 3 2 0 1 116 17 18 117
140 3 2 0 1 117 18 19 118
141 3 2 0 1 118 19 20 119
142 3 2 0 1 119 20 21 120
143 3 2 0 1 120 21 22 121
144 3 2 0 1 121 22 3 23
$EndElements
