$MeshFormat
2.2 0 8
$EndMeshFormat
$Nodes
49
1 0 0 0
2 6 0 0
3 6 6 0
4 0 6 0
5 0.999999999995645 0 0
6 1.99999999999205 0 0
7 2.999999999988572 0 0
8 3.999999999992323 0 0
9 4.999999999996161 0 0
10 6 0.999999999995645 0
11 6 1.99999999999205 0
12 6 2.999999999988572 0
13 6 3.999999999992323 0
14 6 4.999999999996161 0
15 5.000000000006331 6 0
16 4.000000000003875 6 0
17 3.000000000008324 6 0
18 2.000000000005607 6 0
19 1.000000000002804 6 0
20 0 5.000000000006331 0
21 0 4.000000000003875 0
22 0 3.000000000008324 0
23 0 2.000000000005607 0
24 0 1.000000000002804 0
25 0.9999999999968382 1.000000000001611 0
26 0.9999999999980316 2.000000000003346 0
27 0.9999999999992246 3.000000000005032 0
28 1.000000000000418 4.00000000000195 0
29 1.000000000001611 5.000000000004636 0
30 1.99999999999431 1.000000000000418 0
31 1.999999999996569 2.000000000001088 0
32 1.999999999998828 3.00000000000174 0
33 2.000000000001087 4.000000000000025 0
34 2.000000000003348 5.000000000002942 0
35 2.999999999991864 0.9999999999992253 0
36 2.999999999995156 1.999999999998828 0
37 2.999999999998447 2.999999999998448 0
38 3.00000000000174 3.999999999998099 0
39 3.000000000005032 5.000000000001247 0
40 3.999999999994249 0.9999999999980316 0
41 3.999999999996175 1.999999999996569 0
42 3.999999999998099 2.999999999995156 0
43 4.000000000000025 3.999999999996173 0
44 4.00000000000195 4.999999999999551 0
45 4.999999999997856 0.9999999999968381 0
46 4.999999999999552 1.999999999994309 0
47 5.000000000001247 2.999999999991864 0
48 5.000000000002942 3.999999999994249 0
49 5.000000000004637 4.999999999997858 0
$EndNodes
$Elements
64
1 15 2 0 1 1
2 15 2 0 2 2
3 15 2 0 3 3
4 15 2 0 4 4
5 1 2 0 1 1 5
6 1 2 0 1 5 6
7 1 2 0 1 6 7
8 1 2 0 1 7 8
9 1 2 0 1 8 9
10 1 2 0 1 9 2
11 1 2 0 2 2 10
12 1 2 0 2 10 11
13 1 2 0 2 11 12
14 1 2 0 2 12 13
15 1 2 0 2 13 14
16 1 2 0 2 14 3
17 1 2 0 3 3 15
18 1 2 0 3 15 16
19 1 2 0 3 16 17
20 1 2 0 3 17 18
21 1 2 0 3 18 19
22 1 2 0 3 19 4
23 1 2 0 4 4 20
24 1 2 0 4 20 21
25 1 2 0 4 21 22
26 1 2 0 4 22 23
27 1 2 0 4 23 24
28 1 2 0 4 24 1
29 3 2 0 1 1 5 25 24
30 3 2 0 1 24 25 26 23
31 3 2 0 1 23 26 27 22
32 3 2 0 1 22 27 28 21
33 3 2 0 1 21 28 29 20
34 3 2 0 1 20 29 19 4
35 3 2 0 1 5 6 30 25
36 3 2 0 1 25 30 31 26
37 3 2 0 1 26 31 32 27
38 3 2 0 1 27 32 33 28
39 3 2 0 1 28 33 34 29
40 3 2 0 1 29 34 18 19
41 3 2 0 1 6 7 35 30
42 3 2 0 1 30 35 36 31
43 3 2 0 1 31 36 37 32
44 3 2 0 1 32 37 38 33
45 3 2 0 1 33 38 39 34
46 3 2 0 1 34 39 17 18
47 3 2 0 1 7 8 40 35
48 3 2 0 1 35 40 41 36
49 3 2 0 1 36 41 42 37
50 3 2 0 1 37 42 43 38
51 3 2 0 1 38 43 44 39
52 3 2 0 1 39 44 16 17
53 3 2 0 1 8 9 45 40
54 3 2 0 1 40 45 46 41
55 3 2 0 1 41 46 47 42
56 3 2 0 1 42 47 48 43
57 3 2 0 1 43 48 49 44
58 3 2 0 1 44 49 15 16
59 3 2 0 1 9 2 10 45
60 3 2 0 1 45 10 11 46
61 3 2 0 1 46 11 12 47
62 3 2 0 1 47 12 13 48
63 3 2 0 1 48 13 14 49
64 3 2 0 1 49 14 3 15
$EndElements
