$MeshFormat
2.2 0 8
$EndMeshFormat
$Nodes
121
1 0 0 0
2 10 0 0
3 10 10 0
4 0 10 0
5 0.9999999999991853 0 0
6 1.999999999996818 0 0
7 2.999999999993897 0 0
8 3.999999999991012 0 0
9 4.999999999992394 0 0
10 5.999999999993916 0 0
11 6.999999999995437 0 0
12 7.999999999996959 0 0
13 8.999999999998479 0 0
14 10 0.9999999999991853 0
15 10 1.999999999996818 0
16 10 2.999999999993897 0
17 10 3.999999999991012 0
18 10 4.999999999992394 0
19 10 5.999999999993916 0
20 10 6.999999999995437 0
21 10 7.999999999996959 0
22 10 8.999999999998479 0
23 9.000000000000002 10 0
24 8.000000000000004 10 0
25 7.000000000000005 10 0
26 6.000000000000004 10 0
27 5.000000000000004 10 0
28 4.000000000000004 10 0
29 3.000000000000003 10 0
30 2.000000000000002 10 0
31 1 10 0
32 0 9.000000000000002 0
33 0 8.000000000000004 0
34 0 7.000000000000005 0
35 0 6.000000000000004 0
36 0 5.000000000000004 0
37 0 4.000000000000004 0
38 0 3.000000000000003 0
39 0 2.000000000000002 0
40 0 1 0
41 0.9999999999992667 0.9999999999999202 0
42 0.999999999999348 1.999999999999683 0
43 0.9999999999994297 2.999999999999392 0
44 0.9999999999995115 3.999999999999105 0
45 0.9999999999995932 4.999999999999244 0
46 0.9999999999996747 5.999999999999393 0
47 0.9999999999997565 6.999999999999549 0
48 0.9999999999998382 7.999999999999697 0
49 0.9999999999999185 8.999999999999847 0
50 1.999999999997135 0.9999999999998384 0
51 1.999999999997455 1.999999999999364 0
52 1.999999999997772 2.999999999998782 0
53 1.999999999998091 3.999999999998205 0
54 1.99999999999841 4.999999999998481 0
55 1.999999999998728 5.999999999998787 0
56 1.999999999999047 6.999999999999089 0
57 1.999999999999364 7.999999999999396 0
58 1.999999999999684 8.999999999999698 0
59 2.999999999994508 0.9999999999997565 0
60 2.999999999995118 1.999999999999047 0
61 2.999999999995727 2.999999999998169 0
62 2.999999999996339 3.999999999997304 0
63 2.99999999999695 4.999999999997721 0
64 2.99999999999756 5.999999999998177 0
65 2.999999999998171 6.999999999998636 0
66 2.999999999998781 7.999999999999091 0
67 2.999999999999392 8.999999999999545 0
68 3.99999999999191 0.9999999999996747 0
69 3.99999999999281 1.999999999998728 0
70 3.999999999993708 2.999999999997561 0
71 3.999999999994608 3.999999999996407 0
72 3.999999999995507 4.999999999996962 0
73 3.999999999996406 5.99999999999757 0
74 3.999999999997305 6.999999999998179 0
75 3.999999999998204 7.999999999998787 0
76 3.999999999999105 8.999999999999392 0
77 4.999999999993154 0.9999999999995932 0
78 4.999999999993914 1.99999999999841 0
79 4.99999999999468 2.999999999996949 0
80 4.999999999995436 3.999999999995508 0
81 4.999999999996199 4.999999999996199 0
82 4.999999999996959 5.999999999996961 0
83 4.999999999997721 6.999999999997721 0
84 4.999999999998481 7.999999999998481 0
85 4.999999999999244 8.99999999999924 0
86 5.999999999994524 0.9999999999995115 0
87 5.999999999995136 1.999999999998091 0
88 5.999999999995743 2.999999999996338 0
89 5.99999999999635 3.99999999999461 0
90 5.999999999996961 4.999999999995438 0
91 5.99999999999757 5.99999999999635 0
92 5.999999999998177 6.999999999997265 0
93 5.999999999998788 7.999999999998177 0
94 5.999999999999393 8.999999999999089 0
95 6.99999999999589 0.99999999999943 0
96 6.99999999999635 1.999999999997773 0
97 6.999999999996806 2.999999999995729 0
98 6.999999999997264 3.999999999993709 0
99 6.999999999997721 4.999999999994679 0
100 6.999999999998179 5.999999999995742 0
101 6.999999999998634 6.999999999996806 0
102 6.999999999999091 7.999999999997874 0
103 6.999999999999549 8.999999999998936 0
104 7.999999999997263 0.9999999999993483 0
105 7.99999999999757 1.999999999997455 0
106 7.999999999997875 2.999999999995119 0
107 7.999999999998177 3.999999999992811 0
108 7.999999999998481 4.999999999993916 0
109 7.999999999998786 5.999999999995134 0
110 7.999999999999091 6.99999999999635 0
111 7.999999999999395 7.999999999997566 0
112 7.999999999999698 8.999999999998785 0
113 8.999999999998634 0.9999999999992668 0
114 8.999999999998785 1.999999999997136 0
115 8.999999999998938 2.999999999994508 0
116 8.999999999999089 3.999999999991912 0
117 8.999999999999241 4.999999999993154 0
118 8.999999999999391 5.999999999994525 0
119 8.999999999999545 6.999999999995891 0
120 8.9999999999997 7.999999999997263 0
121 8.999999999999845 8.999999999998632 0
$EndNodes
$Elements
144
1 15 2 0 1 1
2 15 2 0 2 2
3 15 2 0 3 3
4 15 2 0 4 4
5 1 2 0 1 1 5
6 1 2 0 1 5 6
7 1 2 0 1 6 7
8 1 2 0 1 7 8
9 1 2 0 1 8 9
10 1 2 0 1 9 10
11 1 2 0 1 10 11
12 1 2 0 1 11 12
13 1 2 0 1 12 13
14 1 2 0 1 13 2
15 1 2 0 2 2 14
16 1 2 0 2 14 15
17 1 2 0 2 15 16
18 1 2 0 2 16 17
19 1 2 0 2 17 18
20 1 2 0 2 18 19
21 1 2 0 2 19 20
22 1 2 0 2 20 21
23 1 2 0 2 21 22
24 1 2 0 2 22 3
25 1 2 0 3 3 23
26 1 2 0 3 23 24
27 1 2 0 3 24 25
28 1 2 0 3 25 26
29 1 2 0 3 26 27
30 1 2 0 3 27 28
31 1 2 0 3 28 29
32 1 2 0 3 29 30
33 1 2 0 3 30 31
34 1 2 0 3 31 4
35 1 2 0 4 4 32
36 1 2 0 4 32 33
37 1 2 0 4 33 34
38 1 2 0 4 34 35
39 1 2 0 4 35 36
40 1 2 0 4 36 37
41 1 2 0 4 37 38
42 1 2 0 4 38 39
43 1 2 0 4 39 40
44 1 2 0 4 40 1
45 3 2 0 1 1 5 41 40
46 3 2 0 1 40 41 42 39
47 3 2 0 1 39 42 43 38
48 3 2 0 1 38 43 44 37
49 3 2 0 1 37 44 45 36
50 3 2 0 1 36 45 46 35
51 3 2 0 1 35 46 47 34
52 3 2 0 1 34 47 48 33
53 3 2 0 1 33 48 49 32
54 3 2 0 1 32 49 31 4
55 3 2 0 1 5 6 50 41
56 3 2 0 1 41 50 51 42
57 3 2 0 1 42 51 52 43
58 3 2 0 1 43 52 53 44
59 3 2 0 1 44 53 54 45
60 3 2 0 1 45 54 55 46
61 3 2 0 1 46 55 56 47
62 3 2 0 1 47 56 57 48
63 3 2 0 1 48 57 58 49
64 3 2 0 1 49 58 30 31
65 3 2 0 1 6 7 59 50
66 3 2 0 1 50 59 60 51
67 3 2 0 1 51 60 61 52
68 3 2 0 1 52 61 62 53
69 3 2 0 1 53 62 63 54
70 3 2 0 1 54 63 64 55
71 3 2 0 1 55 64 65 56
72 3 2 0 1 56 65 66 57
73 3 2 0 1 57 66 67 58
74 3 2 0 1 58 67 29 30
75 3 2 0 1 7 8 68 59
76 3 2 0 1 59 68 69 60
77 3 2 0 1 60 69 70 61
78 3 2 0 1 61 70 71 62
79 3 2 0 1 62 71 72 63
80 3 2 0 1 63 72 73 64
81 3 2 0 1 64 73 74 65
82 3 2 0 1 65 74 75 66
83 3 2 0 1 66 75 76 67
84 3 2 0 1 67 76 28 29
85 3 2 0 1 8 9 77 68
86 3 2 0 1 68 77 78 69
87 3 2 0 1 69 78 79 70
88 3 2 0 1 70 79 80 71
89 3 2 0 1 71 80 81 72
90 3 2 0 1 72 81 82 73
91 3 2 0 1 73 82 83 74
92 3 2 0 1 74 83 84 75
93 3 2 0 1 75 84 85 76
94 3 2 0 1 76 85 27 28
95 3 2 0 1 9 10 86 77
96 3 2 0 1 77 86 87 78
97 3 2 0 1 78 87 88 79
98 3 2 0 1 79 88 89 80
99 3 2 0 1 80 89 90 81
100 3 2 0 1 81 90 91 82
101 3 2 0 1 82 91 92 83
102 3 2 0 1 83 92 93 84
103 3 2 0 1 84 93 94 85
104 3 2 0 1 85 94 26 27
105 3 2 0 1 10 11 95 86
106 3 2 0 1 86 95 96 87
107 3 2 0 1 87 96 97 88
108 3 2 0 1 88 97 98 89
109 3 2 0 1 89 98 99 90
110 3 2 0 1 90 99 100 91
111 3 2 0 1 91 100 101 92
112 3 2 0 1 92 101 102 93
113 3 2 0 1 93 102 103 94
114 3 2 0 1 94 103 25 26
115 3 2 0 1 11 12 104 95
116 3 2 0 1 95 104 105 96
117 3 2 0 1 96 105 106 97
118 3 2 0 1 97 106 107 98
119 3 2 0 1 98 107 108 99
120 3 2 0 1 99 108 109 100
121 3 2 0 1 100 109 110 101
122 3 2 0 1 101 110 111 102
123 3 2 0 1 102 111 112 103
124 3 2 0 1 103 112 24 25
125 3 2 0 1 12 13 113 104
126 3 2 0 1 104 113 114 105
127 3 2 0 1 105 114 115 106
128 3 2 0 1 106 115 116 107
129 3 2 0 1 107 116 117 108
130 3 2 0 1 108 117 118 109
131 3 2 0 1 109 118 119 110
132 3 2 0 1 110 119 120 111
133 3 2 0 1 111 120 121 112
134 3 2 0 1 112 121 23 24
135 3 2 0 1 13 2 14 113
136 3 2 0 1 113 14 15 114
137 3 2 0 1 114 15 16 115
138 3 2 0 1 115 16 17 116
139 3 2 0 1 116 17 18 117
140 3 2 0 1 117 18 19 118
141 3 2 0 1 118 19 20 119
142 3 2 0 1 119 20 21 120
143 3 2 0 1 120 21 22 121
144 3 2 0 1 121 22 3 23
$EndElements
